<svg width="140" height="140" viewBox="0 0 140 140" fill="none" xmlns="http://www.w3.org/2000/svg">
<rect width="140" height="140" rx="70" fill="#404B51"/>
<path d="M70 70C72.3012 70 74.1667 68.1345 74.1667 65.8333C74.1667 63.5321 72.3012 61.6667 70 61.6667C67.6989 61.6667 65.8334 63.5321 65.8334 65.8333C65.8334 68.1345 67.6989 70 70 70ZM70 70V80.4167M70.0001 32.5C79.7327 41.1107 92.4354 45.594 105.417 45C107.307 51.4292 107.885 58.1728 107.117 64.8299C106.35 71.4871 104.251 77.922 100.948 83.7522C97.6438 89.5825 93.2017 94.6891 87.8854 98.7687C82.569 102.848 76.4867 105.817 70.0001 107.5C63.5135 105.817 57.4313 102.848 52.1149 98.7687C46.7985 94.6891 42.3564 89.5825 39.0526 83.7522C35.7488 77.922 33.6507 71.4871 32.8829 64.8299C32.1152 58.1728 32.6935 51.4292 34.5835 45C47.5648 45.594 60.2675 41.1107 70.0001 32.5Z" stroke="#31C1BF" stroke-width="4" stroke-linecap="round" stroke-linejoin="round"/>
</svg>
