<svg width="96" height="97" viewBox="0 0 96 97" fill="none" xmlns="http://www.w3.org/2000/svg">
<circle cx="48" cy="48.522" r="48" fill="#F8FAFA"/>
<rect width="52" height="52" transform="translate(22 22.522)" fill="#F8FAFA"/>
<path d="M44.1265 27.1129C42.2837 28.4645 41.0765 29.7192 40.3697 31.0154C39.6628 32.3113 39.5356 33.668 39.7606 34.8308C40.2107 37.1564 41.6798 38.7939 42.2556 40.3294C42.4479 40.7342 42.7737 40.9029 43.2328 41.0201C43.8426 41.1425 44.1855 40.9569 44.6925 40.6487C46.0024 38.8146 46.3802 37.0964 46.1432 35.6724C45.9275 34.3785 45.3152 33.4624 44.8668 32.7999C45.1229 31.3382 45.8754 29.8989 46.2738 28.6506C46.4395 28.128 46.2151 27.5474 45.8101 27.1873C45.1394 26.7298 44.7893 26.7842 44.1265 27.1129ZM56.2963 30.2175C55.8514 29.8474 55.5082 29.7023 54.9619 29.7823C54.493 29.8523 54.14 30.1184 53.8596 30.5368C53.2839 32.0723 51.8148 33.7098 51.3646 36.0354C51.1396 37.1982 51.2672 38.555 51.9737 39.8508C52.6806 41.147 53.8878 42.4017 55.7305 43.7533C56.1997 44.0924 56.8862 44.0937 57.3567 43.7579C57.8272 43.4208 58.047 42.7703 57.877 42.2169C57.4302 40.8047 56.836 39.6089 56.4701 38.2272C56.9001 37.1055 57.5733 36.1581 57.7465 35.1951C57.7646 33.18 57.1654 31.4658 56.2963 30.2175ZM47.0452 38.3698C46.6722 38.7263 46.4737 39.2787 46.6214 39.7783C47.7252 43.5232 47.1178 44.8064 46.2153 45.944C45.6218 46.6427 44.9904 47.211 44.4603 47.7573C44.0406 46.67 43.5698 45.3656 43.1692 43.7676C43.0077 43.0905 42.2759 42.6039 41.5894 42.7165C40.9025 42.8292 40.3647 43.5241 40.4278 44.2173C40.6176 46.4888 39.367 48.3689 37.7878 50.5284C36.2086 52.6879 34.2773 55.0737 34.2773 58.2609C34.2773 61.7561 35.9372 64.67 38.4114 66.6027C40.8857 68.5354 44.138 69.5623 47.5207 69.5623C52.2357 69.5623 55.8832 68.5834 58.414 66.6027C60.9448 64.622 62.1938 61.627 62.1274 58.2319C62.0575 54.6584 60.9445 50.5042 58.153 45.7554C57.4818 44.794 56.7289 44.5631 55.7306 44.9863C55.2892 45.3143 55.1464 45.7687 55.0632 46.2631C55.037 46.9194 55.1286 47.5554 55.1357 48.091C54.9991 47.3741 54.8799 46.6228 54.6426 45.6103C54.0066 42.8965 52.4967 39.4126 48.4054 38.0516C47.8666 37.8997 47.4743 38.0796 47.0452 38.3698ZM38.7739 38.5161C37.2445 39.7142 36.2634 40.6264 35.6116 41.4903C34.9598 42.3542 34.6091 43.3376 34.7849 44.2323C35.0478 45.3738 35.9979 46.1629 36.5111 47.0903C36.753 47.5643 37.2122 47.8642 37.8021 47.9027C38.4064 47.8448 39.0109 47.453 39.1803 46.771C39.369 45.4262 39.9613 44.3178 40.5001 43.1586C41.1477 41.8184 41.4793 40.2673 40.8773 38.9948C40.2466 38.1698 39.5591 38.0987 38.7739 38.5161ZM49.6381 54.0971C49.9525 55.6497 49.8489 57.0946 49.6381 58.6091C49.4762 59.3979 49.5487 60.2411 50.0296 60.6837C50.3942 61.0104 51.1043 61.0742 51.4366 60.9592C52.2017 60.6947 52.6107 60.2553 53.0323 59.813C53.3843 59.4438 53.6945 59.0637 53.9898 58.7104C54.2544 60.4664 53.6893 62.1848 52.6409 63.6287C51.2731 65.5117 49.0835 66.748 47.3609 66.748C45.7878 66.748 44.444 65.8798 43.4156 64.5574C42.3872 63.2349 41.791 61.4753 41.791 60.2485C41.791 59.5377 41.9386 59.0203 42.1537 58.551C42.436 59.3392 42.9483 59.8126 43.6623 60.1759C44.3792 60.4146 45.249 59.948 45.4464 59.2184C46.0739 56.9164 46.4794 56.8899 47.477 56.2442C48.3875 55.526 49.1126 54.8369 49.6381 54.0971Z" fill="#1B2022"/>
<path d="M44.127 27.1129C42.2842 28.4645 41.077 29.7192 40.3702 31.0154C39.6633 32.3113 39.5361 33.668 39.7611 34.8308C40.2112 37.1564 41.6803 38.7939 42.2561 40.3294C42.4484 40.7342 42.7741 40.9029 43.2333 41.0201C43.843 41.1425 44.1859 40.9569 44.693 40.6487C46.0028 38.8146 46.3807 37.0964 46.1437 35.6724C45.928 34.3785 45.3157 33.4624 44.8672 32.7999C45.1234 31.3382 45.8759 29.8989 46.2742 28.6506C46.44 28.128 46.2156 27.5474 45.8105 27.1873C45.1399 26.7298 44.7898 26.7842 44.127 27.1129ZM56.2968 30.2175C55.8519 29.8474 55.5086 29.7024 54.9624 29.7823C54.4935 29.8523 54.1405 30.1184 53.8601 30.5368C53.2844 32.0723 51.8152 33.7098 51.3651 36.0354C51.1401 37.1982 51.2677 38.555 51.9742 39.8508C52.6811 41.147 53.8883 42.4017 55.731 43.7533C56.2002 44.0924 56.8867 44.0937 57.3572 43.7579C57.8277 43.4208 58.0475 42.7703 57.8775 42.2169C57.4307 40.8047 56.8364 39.6089 56.4705 38.2272C56.9006 37.1055 57.5738 36.1581 57.747 35.1951C57.7651 33.18 57.1659 31.4658 56.2968 30.2175ZM38.7744 38.5161C37.245 39.7142 36.2639 40.6264 35.6121 41.4903C34.9603 42.3542 34.6095 43.3376 34.7854 44.2323C35.0483 45.3738 35.9984 46.1629 36.5116 47.0903C36.7535 47.5643 37.2126 47.8642 37.8026 47.9027C38.4068 47.8448 39.0114 47.453 39.1807 46.771C39.3695 45.4262 39.9618 44.3178 40.5006 43.1586C41.1482 41.8184 41.4797 40.2673 40.8778 38.9948C40.247 38.1698 39.5596 38.0987 38.7744 38.5161Z" fill="#1B2022"/>
</svg>
