<svg width="96" height="97" viewBox="0 0 96 97" fill="none" xmlns="http://www.w3.org/2000/svg">
<circle cx="48" cy="48.522" r="48" fill="#F8FAFA"/>
<path d="M69.2163 54.2654C68.4391 54.2654 67.7945 54.91 67.7945 55.6873C67.7945 61.2989 63.8891 66.0006 58.6376 67.2329L59.1495 66.3798C59.5476 65.6973 59.3391 64.8252 58.6566 64.427C57.993 64.0289 57.102 64.2375 56.7038 64.92L54.7132 68.2377C54.4478 68.6737 54.4478 69.2235 54.6943 69.6595C54.9407 70.1145 55.4147 70.38 55.9265 70.38C64.0218 70.38 70.6193 63.7825 70.6193 55.6873C70.6382 54.91 69.9936 54.2654 69.2163 54.2654Z" fill="#1B2022"/>
<path d="M40.7786 25.8279C32.6834 25.8279 26.0859 32.4254 26.0859 40.5206C26.0859 41.2979 26.7305 41.9425 27.5078 41.9425C28.2851 41.9425 28.9297 41.2979 28.9297 40.5206C28.9297 34.9089 32.8351 30.2073 38.0866 28.975L37.5747 29.8281C37.1766 30.5106 37.3851 31.3827 38.0676 31.7808C38.7311 32.1789 39.6222 31.9704 40.0203 31.2879L42.0109 27.9702C42.2574 27.5341 42.2764 27.0033 42.0109 26.5483C41.7645 26.1123 41.2905 25.8279 40.7786 25.8279Z" fill="#1B2022"/>
<path d="M66.3718 41.8477C66.3718 47.6869 62.1252 52.5023 56.5704 53.3933C56.5704 53.3744 56.5704 53.3744 56.5704 53.3554C56.0206 46.2839 50.2952 40.5206 43.1289 39.9519C44.0199 34.3971 48.8354 30.1504 54.6745 30.1504C61.1393 30.1504 66.3718 35.3829 66.3718 41.8477Z" fill="#1B2022"/>
<path d="M53.7272 53.5641C53.2911 47.8197 48.7032 43.2318 42.9589 42.7957C42.6555 42.7768 42.3711 42.7578 42.0489 42.7578C35.5841 42.7578 30.3516 47.9903 30.3516 54.4741C30.3516 60.9389 35.5841 66.1714 42.0489 66.1714C48.5136 66.1714 53.7651 60.9389 53.7651 54.4741C53.7651 54.1518 53.7462 53.8674 53.7272 53.5641ZM44.248 60.1616H42.9968V60.882C42.9968 61.6593 42.3522 62.3039 41.5749 62.3039C40.7976 62.3039 40.153 61.6593 40.153 60.882V60.1616H38.1624C37.3851 60.1616 36.7405 59.517 36.7405 58.7397V54.4741V50.2084C36.7405 49.4311 37.3851 48.7866 38.1624 48.7866H40.153V48.0661C40.153 47.2889 40.7976 46.6443 41.5749 46.6443C42.3522 46.6443 42.9968 47.2889 42.9968 48.0661V48.7866H43.4897C45.3855 48.7866 47.0539 50.4549 47.0539 52.3507C47.0539 52.9005 46.9211 53.4124 46.6936 53.8864C47.5657 54.5309 48.1155 55.5168 48.1155 56.6164C48.1155 58.5691 46.3903 60.1616 44.248 60.1616Z" fill="#1B2022"/>
<circle cx="42.3574" cy="54.7964" r="8.53125" fill="#1B2022"/>
<path fill-rule="evenodd" clip-rule="evenodd" d="M44.9143 55.3196C42.7752 55.3196 41.0415 53.5864 41.0415 51.4502C41.0415 50.3317 40.1393 49.4248 39.014 49.4248C37.8988 49.4248 36.9863 50.3317 36.9863 51.4502C36.9863 52.5687 37.8886 53.4756 39.014 53.4756H39.0241C41.1531 53.4756 42.8766 55.2088 42.8867 57.345V57.3551C42.8867 58.4735 43.789 59.3804 44.9143 59.3804C46.0397 59.3804 46.942 58.4735 46.942 57.3551C46.9318 56.2265 46.0295 55.3196 44.9143 55.3196Z" fill="#F8FAFA"/>
<path fill-rule="evenodd" clip-rule="evenodd" d="M39.0237 55.3196C37.9085 55.3196 36.9961 56.2265 36.9961 57.345C36.9961 58.4635 37.8984 59.3704 39.0237 59.3704C40.149 59.3704 41.0513 58.4635 41.0513 57.345C41.0412 56.2265 40.1389 55.3196 39.0237 55.3196Z" fill="#F8FAFA"/>
<path fill-rule="evenodd" clip-rule="evenodd" d="M44.9143 49.4248C46.0342 49.4248 46.942 50.3316 46.942 51.4502C46.942 52.5688 46.0342 53.4756 44.9143 53.4756C43.7945 53.4756 42.8867 52.5688 42.8867 51.4502C42.8867 50.3316 43.7945 49.4248 44.9143 49.4248Z" fill="#F8FAFA"/>
</svg>
