<svg width="137" height="33" viewBox="0 0 137 33" fill="none" xmlns="http://www.w3.org/2000/svg">
<mask id="path-1-outside-1_290_2684" maskUnits="userSpaceOnUse" x="-0.652344" y="-0.656372" width="137" height="34" fill="black">
<rect fill="white" x="-0.652344" y="-0.656372" width="137" height="34"/>
<path fill-rule="evenodd" clip-rule="evenodd" d="M9.91068 1.84917C7.23387 2.67066 4.96386 3.41824 4.86632 3.51041C4.50242 3.85403 4.75874 4.59046 5.24229 4.59046C5.34267 4.59046 7.59139 3.92957 10.2395 3.12176L15.0542 1.65297L20.0301 3.17317C22.8065 4.02133 25.0885 4.66721 25.1924 4.63416C25.6656 4.48399 25.8054 3.70377 25.3974 3.49003C25.0788 3.32313 15.1625 0.331598 14.9677 0.343664C14.8632 0.350255 12.5875 1.02767 9.91068 1.84917ZM0.933847 4.67431C0.63007 4.92019 0.459324 6.01332 0.36888 8.29135C0.117118 14.6303 2.11256 20.7912 5.96351 25.5647C7.3302 27.2588 9.5264 29.2617 11.4132 30.535C12.5757 31.3195 14.8105 32.5752 15.044 32.5752C15.5196 32.5752 18.7897 30.5576 20.405 29.2675C21.5094 28.3853 23.4313 26.4693 24.2571 25.427C26.6041 22.4648 28.4128 18.596 29.1634 14.9327C29.6427 12.5929 29.7627 11.1734 29.6993 8.59553C29.6366 6.05023 29.4781 4.87811 29.1648 4.64085C28.9459 4.47517 28.6333 4.45033 28.4254 4.58194C28.3474 4.63132 27.047 7.2338 25.5356 10.3653L22.7877 16.0587L15.2377 16.0521C11.0851 16.0484 7.6575 16.0118 7.62059 15.9707C7.58378 15.9296 6.26505 13.3738 4.69009 10.2912C3.11514 7.20866 1.74358 4.64207 1.64208 4.58782C1.37278 4.44364 1.19129 4.46584 0.933847 4.67431ZM7.58693 18.7842C10.7942 25.0441 13.4001 30.1843 13.3775 30.2068C13.3052 30.2792 11.5647 29.0866 10.519 28.2482C6.51671 25.0388 3.72168 20.687 2.46023 15.7005C1.89273 13.4574 1.72817 12.1736 1.67291 9.55877C1.64634 8.30402 1.65405 7.30559 1.69005 7.33996C1.72594 7.37444 4.37953 12.5243 7.58693 18.7842ZM28.4274 10.6285C28.081 16.0183 26.4504 20.4727 23.3625 24.4637C22.4583 25.6325 20.4713 27.5916 19.2381 28.5302C18.1612 29.3499 16.7548 30.2836 16.7548 30.179C16.7548 30.1443 18.4155 27.0078 20.4453 23.2088C22.7921 18.8165 24.9057 14.6969 26.2501 11.8948L28.3644 7.488L28.4514 8.19391C28.5042 8.6224 28.4948 9.57885 28.4274 10.6285ZM39.1122 10.663C38.6214 10.8895 38.3124 11.2105 38.1031 11.7116C37.9695 12.0312 37.9465 12.7404 37.9484 16.4757C37.9504 20.5255 37.965 20.8956 38.1378 21.2698C38.3643 21.7606 38.6853 22.0696 39.1864 22.2789C39.5088 22.4136 40.2954 22.4358 44.7363 22.4358H49.9107V21.7795V21.1231L44.7813 21.0951L39.6518 21.067L39.4581 20.8276C39.2743 20.6007 39.2643 20.3731 39.2643 16.4536C39.2643 12.5341 39.2743 12.3065 39.4581 12.0795L39.6518 11.8401L44.7813 11.8121L49.9107 11.7841V11.1276V10.4713L44.7142 10.4736C39.8789 10.4756 39.4896 10.4888 39.1122 10.663ZM57.6166 16.4536V22.4358H63.0412H68.4658V21.7768V21.1177H63.7003H58.9348V19.1405V17.1633H62.7877H66.6407V16.4536V15.7438H62.7877H58.9348V13.7666V11.7894H63.7003H68.4658V11.1304V10.4713H63.0412H57.6166V16.4536ZM76.2394 10.5389C76.2022 10.5761 76.1718 13.2681 76.1718 16.5212V22.4358H76.8815H77.5913V20.2052V17.9745L80.1008 17.9801L82.6103 17.9856L84.4652 20.2107L86.3201 22.4358H87.1775C87.6491 22.4358 88.0349 22.4156 88.0349 22.3907C88.0349 22.366 87.2144 21.3735 86.2115 20.1854L84.3882 18.0252L85.6447 17.9745C86.8614 17.9254 86.9136 17.914 87.2842 17.6137C88.0996 16.9532 88.082 17.0215 88.1161 14.3739C88.1445 12.1675 88.1326 11.9769 87.9431 11.6055C87.6882 11.1058 87.2283 10.713 86.739 10.5772C86.3208 10.4611 76.3536 10.4248 76.2394 10.5389ZM95.3353 11.1304V11.7894H97.9715H100.608V17.1126V22.4358H101.266H101.924L101.95 17.138L101.977 11.8401L104.587 11.8131L107.198 11.786V11.1287V10.4713H101.267H95.3353V11.1304ZM114.499 16.4536V22.4358H115.158H115.817V16.4536V10.4713H115.158H114.499V16.4536ZM124.131 16.4536V22.4358H124.79H125.449V19.7996V17.1633L127.401 17.1692L129.353 17.1752L131.533 19.7989L133.713 22.4227L134.61 22.4292L135.506 22.4358L135.1 21.9542C131.87 18.1211 130.527 16.4905 130.547 16.4253C130.561 16.3819 131.655 15.0517 132.979 13.4693C134.303 11.887 135.386 10.5651 135.386 10.5319C135.386 10.4986 135.009 10.4743 134.549 10.4779L133.713 10.4845L131.533 13.1083L129.353 15.732L127.401 15.7379L125.449 15.7438V13.1076V10.4713H124.79H124.131V16.4536ZM86.6603 12.1162C86.7896 12.3008 86.8182 12.6868 86.8182 14.2501C86.8182 16.1412 86.8159 16.1609 86.5692 16.4074L86.3204 16.6564H82.2534C78.2135 16.6564 77.8824 16.6314 77.6689 16.3116C77.6279 16.2503 77.5937 15.3139 77.5928 14.2309C77.5915 12.5394 77.6149 12.2356 77.7591 12.0763C77.9167 11.9022 78.1895 11.8908 82.2147 11.8908H86.5025L86.6603 12.1162ZM21.9809 17.5436C21.7377 18.1786 15.0889 30.4426 15.0238 30.3763C14.9485 30.2996 10.2693 21.2168 8.93517 18.5575L8.33755 17.3661H15.1932C21.6808 17.3661 22.0453 17.3757 21.9809 17.5436Z"/>
</mask>
<path fill-rule="evenodd" clip-rule="evenodd" d="M9.91068 1.84917C7.23387 2.67066 4.96386 3.41824 4.86632 3.51041C4.50242 3.85403 4.75874 4.59046 5.24229 4.59046C5.34267 4.59046 7.59139 3.92957 10.2395 3.12176L15.0542 1.65297L20.0301 3.17317C22.8065 4.02133 25.0885 4.66721 25.1924 4.63416C25.6656 4.48399 25.8054 3.70377 25.3974 3.49003C25.0788 3.32313 15.1625 0.331598 14.9677 0.343664C14.8632 0.350255 12.5875 1.02767 9.91068 1.84917ZM0.933847 4.67431C0.63007 4.92019 0.459324 6.01332 0.36888 8.29135C0.117118 14.6303 2.11256 20.7912 5.96351 25.5647C7.3302 27.2588 9.5264 29.2617 11.4132 30.535C12.5757 31.3195 14.8105 32.5752 15.044 32.5752C15.5196 32.5752 18.7897 30.5576 20.405 29.2675C21.5094 28.3853 23.4313 26.4693 24.2571 25.427C26.6041 22.4648 28.4128 18.596 29.1634 14.9327C29.6427 12.5929 29.7627 11.1734 29.6993 8.59553C29.6366 6.05023 29.4781 4.87811 29.1648 4.64085C28.9459 4.47517 28.6333 4.45033 28.4254 4.58194C28.3474 4.63132 27.047 7.2338 25.5356 10.3653L22.7877 16.0587L15.2377 16.0521C11.0851 16.0484 7.6575 16.0118 7.62059 15.9707C7.58378 15.9296 6.26505 13.3738 4.69009 10.2912C3.11514 7.20866 1.74358 4.64207 1.64208 4.58782C1.37278 4.44364 1.19129 4.46584 0.933847 4.67431ZM7.58693 18.7842C10.7942 25.0441 13.4001 30.1843 13.3775 30.2068C13.3052 30.2792 11.5647 29.0866 10.519 28.2482C6.51671 25.0388 3.72168 20.687 2.46023 15.7005C1.89273 13.4574 1.72817 12.1736 1.67291 9.55877C1.64634 8.30402 1.65405 7.30559 1.69005 7.33996C1.72594 7.37444 4.37953 12.5243 7.58693 18.7842ZM28.4274 10.6285C28.081 16.0183 26.4504 20.4727 23.3625 24.4637C22.4583 25.6325 20.4713 27.5916 19.2381 28.5302C18.1612 29.3499 16.7548 30.2836 16.7548 30.179C16.7548 30.1443 18.4155 27.0078 20.4453 23.2088C22.7921 18.8165 24.9057 14.6969 26.2501 11.8948L28.3644 7.488L28.4514 8.19391C28.5042 8.6224 28.4948 9.57885 28.4274 10.6285ZM39.1122 10.663C38.6214 10.8895 38.3124 11.2105 38.1031 11.7116C37.9695 12.0312 37.9465 12.7404 37.9484 16.4757C37.9504 20.5255 37.965 20.8956 38.1378 21.2698C38.3643 21.7606 38.6853 22.0696 39.1864 22.2789C39.5088 22.4136 40.2954 22.4358 44.7363 22.4358H49.9107V21.7795V21.1231L44.7813 21.0951L39.6518 21.067L39.4581 20.8276C39.2743 20.6007 39.2643 20.3731 39.2643 16.4536C39.2643 12.5341 39.2743 12.3065 39.4581 12.0795L39.6518 11.8401L44.7813 11.8121L49.9107 11.7841V11.1276V10.4713L44.7142 10.4736C39.8789 10.4756 39.4896 10.4888 39.1122 10.663ZM57.6166 16.4536V22.4358H63.0412H68.4658V21.7768V21.1177H63.7003H58.9348V19.1405V17.1633H62.7877H66.6407V16.4536V15.7438H62.7877H58.9348V13.7666V11.7894H63.7003H68.4658V11.1304V10.4713H63.0412H57.6166V16.4536ZM76.2394 10.5389C76.2022 10.5761 76.1718 13.2681 76.1718 16.5212V22.4358H76.8815H77.5913V20.2052V17.9745L80.1008 17.9801L82.6103 17.9856L84.4652 20.2107L86.3201 22.4358H87.1775C87.6491 22.4358 88.0349 22.4156 88.0349 22.3907C88.0349 22.366 87.2144 21.3735 86.2115 20.1854L84.3882 18.0252L85.6447 17.9745C86.8614 17.9254 86.9136 17.914 87.2842 17.6137C88.0996 16.9532 88.082 17.0215 88.1161 14.3739C88.1445 12.1675 88.1326 11.9769 87.9431 11.6055C87.6882 11.1058 87.2283 10.713 86.739 10.5772C86.3208 10.4611 76.3536 10.4248 76.2394 10.5389ZM95.3353 11.1304V11.7894H97.9715H100.608V17.1126V22.4358H101.266H101.924L101.95 17.138L101.977 11.8401L104.587 11.8131L107.198 11.786V11.1287V10.4713H101.267H95.3353V11.1304ZM114.499 16.4536V22.4358H115.158H115.817V16.4536V10.4713H115.158H114.499V16.4536ZM124.131 16.4536V22.4358H124.79H125.449V19.7996V17.1633L127.401 17.1692L129.353 17.1752L131.533 19.7989L133.713 22.4227L134.61 22.4292L135.506 22.4358L135.1 21.9542C131.87 18.1211 130.527 16.4905 130.547 16.4253C130.561 16.3819 131.655 15.0517 132.979 13.4693C134.303 11.887 135.386 10.5651 135.386 10.5319C135.386 10.4986 135.009 10.4743 134.549 10.4779L133.713 10.4845L131.533 13.1083L129.353 15.732L127.401 15.7379L125.449 15.7438V13.1076V10.4713H124.79H124.131V16.4536ZM86.6603 12.1162C86.7896 12.3008 86.8182 12.6868 86.8182 14.2501C86.8182 16.1412 86.8159 16.1609 86.5692 16.4074L86.3204 16.6564H82.2534C78.2135 16.6564 77.8824 16.6314 77.6689 16.3116C77.6279 16.2503 77.5937 15.3139 77.5928 14.2309C77.5915 12.5394 77.6149 12.2356 77.7591 12.0763C77.9167 11.9022 78.1895 11.8908 82.2147 11.8908H86.5025L86.6603 12.1162ZM21.9809 17.5436C21.7377 18.1786 15.0889 30.4426 15.0238 30.3763C14.9485 30.2996 10.2693 21.2168 8.93517 18.5575L8.33755 17.3661H15.1932C21.6808 17.3661 22.0453 17.3757 21.9809 17.5436Z" fill="white"/>
<path fill-rule="evenodd" clip-rule="evenodd" d="M9.91068 1.84917C7.23387 2.67066 4.96386 3.41824 4.86632 3.51041C4.50242 3.85403 4.75874 4.59046 5.24229 4.59046C5.34267 4.59046 7.59139 3.92957 10.2395 3.12176L15.0542 1.65297L20.0301 3.17317C22.8065 4.02133 25.0885 4.66721 25.1924 4.63416C25.6656 4.48399 25.8054 3.70377 25.3974 3.49003C25.0788 3.32313 15.1625 0.331598 14.9677 0.343664C14.8632 0.350255 12.5875 1.02767 9.91068 1.84917ZM0.933847 4.67431C0.63007 4.92019 0.459324 6.01332 0.36888 8.29135C0.117118 14.6303 2.11256 20.7912 5.96351 25.5647C7.3302 27.2588 9.5264 29.2617 11.4132 30.535C12.5757 31.3195 14.8105 32.5752 15.044 32.5752C15.5196 32.5752 18.7897 30.5576 20.405 29.2675C21.5094 28.3853 23.4313 26.4693 24.2571 25.427C26.6041 22.4648 28.4128 18.596 29.1634 14.9327C29.6427 12.5929 29.7627 11.1734 29.6993 8.59553C29.6366 6.05023 29.4781 4.87811 29.1648 4.64085C28.9459 4.47517 28.6333 4.45033 28.4254 4.58194C28.3474 4.63132 27.047 7.2338 25.5356 10.3653L22.7877 16.0587L15.2377 16.0521C11.0851 16.0484 7.6575 16.0118 7.62059 15.9707C7.58378 15.9296 6.26505 13.3738 4.69009 10.2912C3.11514 7.20866 1.74358 4.64207 1.64208 4.58782C1.37278 4.44364 1.19129 4.46584 0.933847 4.67431ZM7.58693 18.7842C10.7942 25.0441 13.4001 30.1843 13.3775 30.2068C13.3052 30.2792 11.5647 29.0866 10.519 28.2482C6.51671 25.0388 3.72168 20.687 2.46023 15.7005C1.89273 13.4574 1.72817 12.1736 1.67291 9.55877C1.64634 8.30402 1.65405 7.30559 1.69005 7.33996C1.72594 7.37444 4.37953 12.5243 7.58693 18.7842ZM28.4274 10.6285C28.081 16.0183 26.4504 20.4727 23.3625 24.4637C22.4583 25.6325 20.4713 27.5916 19.2381 28.5302C18.1612 29.3499 16.7548 30.2836 16.7548 30.179C16.7548 30.1443 18.4155 27.0078 20.4453 23.2088C22.7921 18.8165 24.9057 14.6969 26.2501 11.8948L28.3644 7.488L28.4514 8.19391C28.5042 8.6224 28.4948 9.57885 28.4274 10.6285ZM39.1122 10.663C38.6214 10.8895 38.3124 11.2105 38.1031 11.7116C37.9695 12.0312 37.9465 12.7404 37.9484 16.4757C37.9504 20.5255 37.965 20.8956 38.1378 21.2698C38.3643 21.7606 38.6853 22.0696 39.1864 22.2789C39.5088 22.4136 40.2954 22.4358 44.7363 22.4358H49.9107V21.7795V21.1231L44.7813 21.0951L39.6518 21.067L39.4581 20.8276C39.2743 20.6007 39.2643 20.3731 39.2643 16.4536C39.2643 12.5341 39.2743 12.3065 39.4581 12.0795L39.6518 11.8401L44.7813 11.8121L49.9107 11.7841V11.1276V10.4713L44.7142 10.4736C39.8789 10.4756 39.4896 10.4888 39.1122 10.663ZM57.6166 16.4536V22.4358H63.0412H68.4658V21.7768V21.1177H63.7003H58.9348V19.1405V17.1633H62.7877H66.6407V16.4536V15.7438H62.7877H58.9348V13.7666V11.7894H63.7003H68.4658V11.1304V10.4713H63.0412H57.6166V16.4536ZM76.2394 10.5389C76.2022 10.5761 76.1718 13.2681 76.1718 16.5212V22.4358H76.8815H77.5913V20.2052V17.9745L80.1008 17.9801L82.6103 17.9856L84.4652 20.2107L86.3201 22.4358H87.1775C87.6491 22.4358 88.0349 22.4156 88.0349 22.3907C88.0349 22.366 87.2144 21.3735 86.2115 20.1854L84.3882 18.0252L85.6447 17.9745C86.8614 17.9254 86.9136 17.914 87.2842 17.6137C88.0996 16.9532 88.082 17.0215 88.1161 14.3739C88.1445 12.1675 88.1326 11.9769 87.9431 11.6055C87.6882 11.1058 87.2283 10.713 86.739 10.5772C86.3208 10.4611 76.3536 10.4248 76.2394 10.5389ZM95.3353 11.1304V11.7894H97.9715H100.608V17.1126V22.4358H101.266H101.924L101.95 17.138L101.977 11.8401L104.587 11.8131L107.198 11.786V11.1287V10.4713H101.267H95.3353V11.1304ZM114.499 16.4536V22.4358H115.158H115.817V16.4536V10.4713H115.158H114.499V16.4536ZM124.131 16.4536V22.4358H124.79H125.449V19.7996V17.1633L127.401 17.1692L129.353 17.1752L131.533 19.7989L133.713 22.4227L134.61 22.4292L135.506 22.4358L135.1 21.9542C131.87 18.1211 130.527 16.4905 130.547 16.4253C130.561 16.3819 131.655 15.0517 132.979 13.4693C134.303 11.887 135.386 10.5651 135.386 10.5319C135.386 10.4986 135.009 10.4743 134.549 10.4779L133.713 10.4845L131.533 13.1083L129.353 15.732L127.401 15.7379L125.449 15.7438V13.1076V10.4713H124.79H124.131V16.4536ZM86.6603 12.1162C86.7896 12.3008 86.8182 12.6868 86.8182 14.2501C86.8182 16.1412 86.8159 16.1609 86.5692 16.4074L86.3204 16.6564H82.2534C78.2135 16.6564 77.8824 16.6314 77.6689 16.3116C77.6279 16.2503 77.5937 15.3139 77.5928 14.2309C77.5915 12.5394 77.6149 12.2356 77.7591 12.0763C77.9167 11.9022 78.1895 11.8908 82.2147 11.8908H86.5025L86.6603 12.1162ZM21.9809 17.5436C21.7377 18.1786 15.0889 30.4426 15.0238 30.3763C14.9485 30.2996 10.2693 21.2168 8.93517 18.5575L8.33755 17.3661H15.1932C21.6808 17.3661 22.0453 17.3757 21.9809 17.5436Z" stroke="white" stroke-width="0.6" mask="url(#path-1-outside-1_290_2684)"/>
</svg>
