<svg width="144" height="92" viewBox="0 0 144 92" fill="none" xmlns="http://www.w3.org/2000/svg">
<g filter="url(#filter0_d_290_3813)">
<g clip-path="url(#clip0_290_3813)">
<rect x="3" y="1" width="138" height="86" rx="10" fill="white"/>
<rect x="11.2677" y="37.7145" width="13.7503" height="13.7503" rx="6.87517" fill="#1B2022"/>
<rect x="11.2677" y="37.7145" width="13.7503" height="13.7503" rx="6.87517" stroke="#CBD5E1" stroke-width="0.392867"/>
<path fill-rule="evenodd" clip-rule="evenodd" d="M20.0057 45.1687C18.655 45.1687 17.5604 44.0744 17.5604 42.7256C17.5604 42.0194 16.9907 41.4468 16.2802 41.4468C15.5761 41.4468 15 42.0194 15 42.7256C15 43.4318 15.5697 44.0044 16.2802 44.0044H16.2866C17.6308 44.0044 18.719 45.0987 18.7254 46.4475V46.4538C18.7254 47.16 19.2951 47.7326 20.0057 47.7326C20.7162 47.7326 21.2859 47.16 21.2859 46.4538C21.2795 45.7413 20.7098 45.1687 20.0057 45.1687Z" fill="#46D5CF"/>
<path fill-rule="evenodd" clip-rule="evenodd" d="M16.2871 45.1685C15.5829 45.1685 15.0068 45.7411 15.0068 46.4473C15.0068 47.1535 15.5765 47.7261 16.2871 47.7261C16.9976 47.7261 17.5673 47.1535 17.5673 46.4473C17.5609 45.7411 16.9912 45.1685 16.2871 45.1685Z" fill="#46D5CF"/>
<path fill-rule="evenodd" clip-rule="evenodd" d="M20.0058 41.4468C20.7129 41.4468 21.286 42.0193 21.286 42.7256C21.286 43.4318 20.7129 44.0044 20.0058 44.0044C19.2988 44.0044 18.7256 43.4318 18.7256 42.7256C18.7256 42.0193 19.2988 41.4468 20.0058 41.4468Z" fill="#46D5CF"/>
<path d="M30.8476 42.7074C30.4475 42.7074 30.1092 42.6435 29.8328 42.5156C29.5606 42.3877 29.3523 42.2124 29.2079 41.9896C29.0635 41.7628 28.9913 41.507 28.9913 41.2224H29.8514C29.8514 41.342 29.8844 41.4596 29.9504 41.5751C30.0164 41.6864 30.1216 41.7772 30.266 41.8473C30.4145 41.9175 30.6084 41.9525 30.8476 41.9525C31.0621 41.9525 31.2416 41.9216 31.3859 41.8597C31.5303 41.7978 31.6376 41.7174 31.7077 41.6184C31.7778 41.5153 31.8129 41.3998 31.8129 41.2719C31.8129 41.111 31.7448 40.9831 31.6087 40.8882C31.4726 40.7892 31.2622 40.7274 30.9776 40.7026L30.5815 40.6717C30.1484 40.6345 29.8019 40.5005 29.542 40.2695C29.2863 40.0343 29.1584 39.725 29.1584 39.3413C29.1584 39.0526 29.2264 38.8051 29.3626 38.5988C29.4987 38.3884 29.6885 38.2275 29.9318 38.1162C30.1793 38.0007 30.4681 37.9429 30.7981 37.9429C31.1405 37.9429 31.4354 38.0027 31.6829 38.1224C31.9305 38.242 32.1223 38.4111 32.2584 38.6297C32.3945 38.8443 32.4626 39.0979 32.4626 39.3908H31.6025C31.6025 39.2671 31.5716 39.1536 31.5097 39.0505C31.4519 38.9433 31.3633 38.8587 31.2436 38.7968C31.1281 38.7308 30.9796 38.6978 30.7981 38.6978C30.6249 38.6978 30.4805 38.7267 30.365 38.7844C30.2495 38.8422 30.1628 38.9206 30.1051 39.0196C30.0473 39.1186 30.0185 39.2258 30.0185 39.3413C30.0185 39.4816 30.07 39.6053 30.1732 39.7126C30.2763 39.8157 30.4392 39.8755 30.662 39.892L31.058 39.9292C31.3798 39.9539 31.6623 40.022 31.9057 40.1333C32.1491 40.2447 32.3368 40.3953 32.4688 40.585C32.6049 40.7748 32.673 41.0037 32.673 41.2719C32.673 41.5565 32.5987 41.8081 32.4502 42.0268C32.3017 42.2413 32.0893 42.4083 31.8129 42.528C31.5406 42.6476 31.2189 42.7074 30.8476 42.7074ZM34.2312 41.2038V40.4427H35.1098C35.2872 40.4427 35.4357 40.4077 35.5554 40.3375C35.6791 40.2674 35.7719 40.1705 35.8338 40.0467C35.8998 39.923 35.9328 39.7806 35.9328 39.6198C35.9328 39.4589 35.8998 39.3166 35.8338 39.1928C35.7719 39.0691 35.6791 38.9742 35.5554 38.9082C35.4357 38.8381 35.2872 38.803 35.1098 38.803H34.2312V38.0419H35.0356C35.4151 38.0419 35.7369 38.1038 36.0009 38.2275C36.269 38.3513 36.4732 38.5287 36.6134 38.7597C36.7537 38.9866 36.8238 39.2568 36.8238 39.5703V39.6693C36.8238 39.9828 36.7537 40.255 36.6134 40.486C36.4732 40.7129 36.269 40.8903 36.0009 41.0182C35.7369 41.1419 35.4151 41.2038 35.0356 41.2038H34.2312ZM33.4763 42.5898V38.0419H34.355V42.5898H33.4763ZM36.7772 42.5898L38.318 38.0729H39.7535L41.3375 42.5898H40.4341L39.0914 38.6731L39.407 38.8092H38.6335L38.9553 38.6731L37.6559 42.5898H36.7772ZM37.8539 41.3894L38.1323 40.6469H39.9639L40.2361 41.3894H37.8539Z" fill="#020617"/>
<path d="M29.8885 49.0182V48.486H30.8971C31.1116 48.486 31.289 48.4448 31.4293 48.3623C31.5695 48.2757 31.6747 48.1602 31.7448 48.0158C31.8191 47.8714 31.8562 47.7105 31.8562 47.5331C31.8562 47.3516 31.8191 47.1887 31.7448 47.0443C31.6747 46.8999 31.5695 46.7865 31.4293 46.704C31.289 46.6215 31.1116 46.5802 30.8971 46.5802H29.8885V46.0481H30.7857C31.157 46.0481 31.4664 46.1079 31.7139 46.2275C31.9655 46.343 32.1553 46.5081 32.2832 46.7226C32.411 46.9371 32.475 47.1908 32.475 47.4836V47.5826C32.475 47.8714 32.411 48.1251 32.2832 48.3437C32.1553 48.5582 31.9655 48.7253 31.7139 48.8449C31.4664 48.9604 31.157 49.0182 30.7857 49.0182H29.8885ZM29.4059 50.5898V46.0481H30.0123V50.5898H29.4059ZM33.2893 50.5898V47.2856H33.7595V48.6469H33.7348C33.7348 48.1643 33.84 47.8116 34.0504 47.5888C34.2649 47.362 34.5846 47.2485 35.0094 47.2485H35.1208V47.7806H34.9104C34.5804 47.7806 34.3267 47.8693 34.1494 48.0467C33.972 48.22 33.8833 48.4716 33.8833 48.8016V50.5898H33.2893ZM35.9881 50.5898V47.2856H36.5821V50.5898H35.9881ZM35.4807 47.7559V47.2856H36.5821V47.7559H35.4807ZM36.1551 46.7535C36.0231 46.7535 35.9241 46.7184 35.8581 46.6483C35.7962 46.5782 35.7653 46.4895 35.7653 46.3822C35.7653 46.275 35.7962 46.1863 35.8581 46.1162C35.9241 46.046 36.0231 46.011 36.1551 46.011C36.2871 46.011 36.3841 46.046 36.4459 46.1162C36.5119 46.1863 36.5449 46.275 36.5449 46.3822C36.5449 46.4895 36.5119 46.5782 36.4459 46.6483C36.3841 46.7184 36.2871 46.7535 36.1551 46.7535ZM39.1476 50.7012C38.8629 50.7012 38.6154 50.6517 38.4051 50.5527C38.1988 50.4537 38.0276 50.3217 37.8915 50.1567C37.7554 49.9876 37.6522 49.8019 37.5821 49.5998C37.5161 49.3977 37.4831 49.1956 37.4831 48.9934V48.8821C37.4831 48.6717 37.5161 48.4654 37.5821 48.2633C37.6522 48.0612 37.7554 47.8797 37.8915 47.7188C38.0317 47.5538 38.205 47.4218 38.4112 47.3228C38.6175 47.2238 38.8588 47.1743 39.1352 47.1743C39.4116 47.1743 39.6591 47.2258 39.8777 47.3289C40.1005 47.4321 40.2779 47.5785 40.4099 47.7683C40.546 47.9539 40.6223 48.1746 40.6388 48.4304H40.0695C40.0407 48.2241 39.9458 48.0529 39.7849 47.9168C39.624 47.7765 39.4075 47.7064 39.1352 47.7064C38.9001 47.7064 38.7041 47.76 38.5474 47.8673C38.3906 47.9745 38.2731 48.121 38.1947 48.3066C38.1163 48.4922 38.0771 48.7026 38.0771 48.9377C38.0771 49.1646 38.1163 49.3729 38.1947 49.5627C38.2731 49.7483 38.3906 49.8968 38.5474 50.0082C38.7083 50.1155 38.9083 50.1691 39.1476 50.1691C39.3332 50.1691 39.4941 50.1361 39.6302 50.0701C39.7663 50.0041 39.8757 49.9154 39.9582 49.804C40.0407 49.6926 40.0902 49.5668 40.1067 49.4266H40.6759C40.6636 49.6864 40.5872 49.9113 40.447 50.101C40.3109 50.2908 40.1294 50.4393 39.9025 50.5465C39.6797 50.6497 39.4281 50.7012 39.1476 50.7012ZM42.8877 50.7012C42.5989 50.7012 42.3494 50.6517 42.139 50.5527C41.9286 50.4537 41.7574 50.3238 41.6254 50.1629C41.4934 49.9979 41.3944 49.8143 41.3284 49.6122C41.2665 49.4101 41.2356 49.2038 41.2356 48.9934V48.8821C41.2356 48.6675 41.2665 48.4592 41.3284 48.2571C41.3944 48.055 41.4934 47.8735 41.6254 47.7126C41.7574 47.5476 41.9245 47.4176 42.1266 47.3228C42.3329 47.2238 42.5742 47.1743 42.8506 47.1743C43.2094 47.1743 43.5044 47.2526 43.7354 47.4094C43.9705 47.562 44.1438 47.76 44.2552 48.0034C44.3707 48.2468 44.4284 48.5067 44.4284 48.783V49.0491H41.4955V48.6036H43.9953L43.8591 48.8449C43.8591 48.6098 43.822 48.4077 43.7478 48.2385C43.6735 48.0653 43.5621 47.9312 43.4136 47.8363C43.2651 47.7415 43.0774 47.694 42.8506 47.694C42.6154 47.694 42.4195 47.7476 42.2627 47.8549C42.1101 47.9622 41.9946 48.1086 41.9162 48.2942C41.842 48.4799 41.8048 48.6944 41.8048 48.9377C41.8048 49.1729 41.842 49.3853 41.9162 49.5751C41.9946 49.7607 42.1142 49.9092 42.2751 50.0206C42.436 50.1278 42.6402 50.1815 42.8877 50.1815C43.1476 50.1815 43.3579 50.1237 43.5188 50.0082C43.6838 49.8927 43.7828 49.7586 43.8158 49.606H44.3727C44.3273 49.8329 44.2366 50.0288 44.1005 50.1938C43.9643 50.3588 43.7931 50.4847 43.5869 50.5713C43.3806 50.6579 43.1476 50.7012 42.8877 50.7012ZM45.1542 50.5898V49.8349H45.872V50.5898H45.1542ZM45.1542 48.3004V47.5455H45.872V48.3004H45.1542ZM49.7409 50.5898C49.3861 50.5898 49.085 50.5321 48.8375 50.4166C48.59 50.297 48.4002 50.1299 48.2682 49.9154C48.1404 49.6968 48.0764 49.441 48.0764 49.1481H48.6333C48.6333 49.2884 48.6663 49.4307 48.7323 49.5751C48.8024 49.7194 48.9179 49.8411 49.0788 49.9401C49.2397 50.035 49.4604 50.0825 49.7409 50.0825C50.1122 50.0825 50.3865 50.0041 50.5639 49.8473C50.7454 49.6906 50.8361 49.5111 50.8361 49.309C50.8361 49.111 50.7557 48.946 50.5948 48.814C50.4339 48.682 50.2008 48.6015 49.8956 48.5727L49.4872 48.5355C49.0912 48.4984 48.7756 48.3788 48.5405 48.1767C48.3054 47.9745 48.1878 47.6858 48.1878 47.3104C48.1878 47.0505 48.2497 46.8298 48.3734 46.6483C48.5013 46.4627 48.6787 46.3204 48.9056 46.2214C49.1366 46.1224 49.4068 46.0729 49.7161 46.0729C50.0255 46.0729 50.2916 46.1285 50.5144 46.2399C50.7412 46.3472 50.9165 46.506 51.0403 46.7164C51.1641 46.9226 51.2259 47.1722 51.2259 47.4651H50.669C50.669 47.3166 50.636 47.1763 50.57 47.0443C50.504 46.9082 50.4009 46.7968 50.2607 46.7102C50.1245 46.6236 49.943 46.5802 49.7161 46.5802C49.514 46.5802 49.3408 46.6132 49.1964 46.6792C49.0561 46.7411 48.9468 46.8277 48.8684 46.9391C48.7942 47.0505 48.7571 47.1743 48.7571 47.3104C48.7571 47.4878 48.821 47.6425 48.9489 47.7745C49.0768 47.9023 49.2727 47.9787 49.5367 48.0034L49.9451 48.0405C50.3865 48.0818 50.7392 48.2117 51.0032 48.4304C51.2713 48.6449 51.4054 48.9377 51.4054 49.309C51.4054 49.5648 51.3373 49.7896 51.2012 49.9835C51.0651 50.1732 50.8732 50.3217 50.6257 50.429C50.3782 50.5362 50.0833 50.5898 49.7409 50.5898ZM49.4748 51.3881V50.4847H50.007V51.3881H49.4748ZM49.4501 46.3761V45.4727H49.9822V46.3761H49.4501ZM54.0682 50.7012C53.7299 50.7012 53.4412 50.6435 53.2019 50.528C52.9668 50.4083 52.775 50.2475 52.6265 50.0453C52.4821 49.8432 52.3769 49.6101 52.3109 49.3461C52.2449 49.078 52.2119 48.7954 52.2119 48.4984V48.1643C52.2119 47.7476 52.2758 47.3723 52.4037 47.0381C52.5357 46.704 52.7378 46.44 53.0101 46.2461C53.2865 46.0481 53.6392 45.9491 54.0682 45.9491C54.4972 45.9491 54.8478 46.0481 55.1201 46.2461C55.3923 46.44 55.5924 46.704 55.7203 47.0381C55.8523 47.3723 55.9183 47.7476 55.9183 48.1643V48.4984C55.9183 48.7954 55.8853 49.078 55.8193 49.3461C55.7533 49.6101 55.646 49.8432 55.4975 50.0453C55.3532 50.2475 55.1634 50.4083 54.9283 50.528C54.6931 50.6435 54.4064 50.7012 54.0682 50.7012ZM54.0682 50.1567C54.4972 50.1567 54.8107 50.0123 55.0087 49.7236C55.2108 49.4307 55.3119 48.9687 55.3119 48.3375C55.3119 47.6775 55.2088 47.2052 55.0025 46.9206C54.8004 46.6359 54.489 46.4936 54.0682 46.4936C53.6433 46.4936 53.3277 46.6359 53.1215 46.9206C52.9193 47.2052 52.8183 47.6734 52.8183 48.3252C52.8183 48.9604 52.9193 49.4245 53.1215 49.7174C53.3236 50.0103 53.6392 50.1567 54.0682 50.1567ZM56.8165 50.5898V49.8349H57.5343V50.5898H56.8165ZM60.2861 50.7012C59.9478 50.7012 59.659 50.6435 59.4198 50.528C59.1847 50.4083 58.9928 50.2475 58.8443 50.0453C58.7 49.8432 58.5948 49.6101 58.5288 49.3461C58.4628 49.078 58.4298 48.7954 58.4298 48.4984V48.1643C58.4298 47.7476 58.4937 47.3723 58.6216 47.0381C58.7536 46.704 58.9557 46.44 59.228 46.2461C59.5044 46.0481 59.857 45.9491 60.2861 45.9491C60.7151 45.9491 61.0657 46.0481 61.338 46.2461C61.6102 46.44 61.8103 46.704 61.9382 47.0381C62.0702 47.3723 62.1362 47.7476 62.1362 48.1643V48.4984C62.1362 48.7954 62.1032 49.078 62.0372 49.3461C61.9712 49.6101 61.8639 49.8432 61.7154 50.0453C61.571 50.2475 61.3813 50.4083 61.1461 50.528C60.911 50.6435 60.6243 50.7012 60.2861 50.7012ZM60.2861 50.1567C60.7151 50.1567 61.0286 50.0123 61.2266 49.7236C61.4287 49.4307 61.5298 48.9687 61.5298 48.3375C61.5298 47.6775 61.4266 47.2052 61.2204 46.9206C61.0183 46.6359 60.7068 46.4936 60.2861 46.4936C59.8612 46.4936 59.5456 46.6359 59.3393 46.9206C59.1372 47.2052 59.0362 47.6734 59.0362 48.3252C59.0362 48.9604 59.1372 49.4245 59.3393 49.7174C59.5415 50.0103 59.857 50.1567 60.2861 50.1567ZM64.8845 50.7012C64.5462 50.7012 64.2575 50.6435 64.0182 50.528C63.7831 50.4083 63.5913 50.2475 63.4428 50.0453C63.2984 49.8432 63.1932 49.6101 63.1272 49.3461C63.0612 49.078 63.0282 48.7954 63.0282 48.4984V48.1643C63.0282 47.7476 63.0921 47.3723 63.22 47.0381C63.352 46.704 63.5542 46.44 63.8264 46.2461C64.1028 46.0481 64.4555 45.9491 64.8845 45.9491C65.3135 45.9491 65.6641 46.0481 65.9364 46.2461C66.2087 46.44 66.4087 46.704 66.5366 47.0381C66.6686 47.3723 66.7346 47.7476 66.7346 48.1643V48.4984C66.7346 48.7954 66.7016 49.078 66.6356 49.3461C66.5696 49.6101 66.4624 49.8432 66.3139 50.0453C66.1695 50.2475 65.9797 50.4083 65.7446 50.528C65.5095 50.6435 65.2228 50.7012 64.8845 50.7012ZM64.8845 50.1567C65.3135 50.1567 65.627 50.0123 65.825 49.7236C66.0272 49.4307 66.1282 48.9687 66.1282 48.3375C66.1282 47.6775 66.0251 47.2052 65.8188 46.9206C65.6167 46.6359 65.3053 46.4936 64.8845 46.4936C64.4596 46.4936 64.144 46.6359 63.9378 46.9206C63.7357 47.2052 63.6346 47.6734 63.6346 48.3252C63.6346 48.9604 63.7357 49.4245 63.9378 49.7174C64.1399 50.0103 64.4555 50.1567 64.8845 50.1567ZM67.4781 49.5194V48.7892L69.353 45.9615L69.7676 46.2894L68.0165 48.9377L68.0722 49.0491H70.9927V49.5194H67.4781ZM69.8356 50.5898V47.3908H70.3925V50.5898H69.8356ZM72.0422 50.5898L73.9542 46.6359L73.917 46.5802H71.4482V46.0729H74.4801V46.7906L72.6609 50.5898H72.0422ZM71.4482 47.298V46.0729H71.9432V47.298H71.4482Z" fill="#64748B"/>
<rect x="91.1409" y="36.3909" width="41.1037" height="16.3975" rx="4.19877" fill="#F8FAFA"/>
<rect x="91.1409" y="36.3909" width="41.1037" height="16.3975" rx="4.19877" stroke="#CBD5E1" stroke-width="0.441975"/>
<path d="M106.986 46.6208V45.9154H108.118C108.324 45.9154 108.481 45.8597 108.588 45.7483C108.695 45.6328 108.749 45.4761 108.749 45.2781C108.749 45.0801 108.695 44.9274 108.588 44.8202C108.481 44.7088 108.324 44.6531 108.118 44.6531H106.986V44.1148H108.056C108.357 44.1148 108.625 44.1519 108.86 44.2262C109.1 44.2963 109.285 44.4159 109.417 44.585C109.553 44.7542 109.622 44.9811 109.622 45.2657V45.3523C109.622 45.6204 109.562 45.8494 109.442 46.0391C109.327 46.2248 109.151 46.3692 108.916 46.4723C108.685 46.5713 108.398 46.6208 108.056 46.6208H106.986ZM106.249 46.6208V42.0419H107.109V46.6208H106.249ZM106.986 44.5108V43.9725H107.951C108.161 43.9725 108.316 43.9168 108.415 43.8054C108.514 43.694 108.563 43.5455 108.563 43.3599C108.563 43.1743 108.514 43.0258 108.415 42.9144C108.316 42.803 108.161 42.7473 107.951 42.7473H106.986V42.0419H107.87C108.382 42.0419 108.77 42.1492 109.034 42.3637C109.302 42.5782 109.436 42.8855 109.436 43.2856V43.3723C109.436 43.6528 109.368 43.8776 109.232 44.0467C109.1 44.2117 108.916 44.3313 108.681 44.4056C108.446 44.4757 108.176 44.5108 107.87 44.5108H106.986ZM111.586 46.695C111.198 46.695 110.897 46.5672 110.683 46.3114C110.472 46.0556 110.367 45.6761 110.367 45.1729V43.2238H111.227V45.2471C111.227 45.4534 111.285 45.6184 111.4 45.7421C111.516 45.8618 111.673 45.9216 111.871 45.9216C112.069 45.9216 112.229 45.8576 112.353 45.7298C112.481 45.6019 112.545 45.4286 112.545 45.21V43.2238H113.405V46.5898H112.725V45.1605H112.793C112.793 45.4988 112.749 45.7813 112.663 46.0082C112.576 46.2351 112.446 46.4063 112.273 46.5218C112.1 46.6373 111.883 46.695 111.623 46.695H111.586ZM114.294 47.914V47.1777H114.925C115.045 47.1777 115.144 47.1612 115.222 47.1282C115.305 47.0993 115.373 47.0498 115.426 46.9797C115.48 46.9137 115.521 46.8208 115.55 46.7012L116.454 43.2299H117.277L116.28 46.8869C116.214 47.1385 116.122 47.3385 116.002 47.4871C115.882 47.6397 115.728 47.749 115.538 47.815C115.352 47.881 115.121 47.914 114.845 47.914H114.294ZM115.34 46.5156V45.8349H116.058V46.5156H115.34ZM115.049 46.5156L113.96 43.2299H114.826L115.86 46.5156H115.049Z" fill="#020617"/>
<g clip-path="url(#clip1_290_3813)">
<path d="M18.1429 77.112C22.0618 77.112 25.2145 73.9592 25.2145 70.0404C25.2145 66.1215 22.0618 62.9688 18.1429 62.9688C14.224 62.9688 11.0713 66.1215 11.0713 70.0404C11.0713 73.9592 14.224 77.112 18.1429 77.112Z" fill="#2775CA"/>
<path d="M20.0879 71.1605C20.0879 70.1293 19.4691 69.7757 18.2316 69.6284C17.3477 69.5105 17.1709 69.2748 17.1709 68.8622C17.1709 68.4497 17.4656 68.1846 18.0548 68.1846C18.5852 68.1846 18.8799 68.3614 19.0272 68.8033C19.0567 68.8917 19.1451 68.9506 19.2335 68.9506H19.7048C19.8227 68.9506 19.9111 68.8622 19.9111 68.7444V68.7149C19.7932 68.0667 19.2629 67.5658 18.5852 67.5069V66.7997C18.5852 66.6818 18.4968 66.5935 18.3495 66.564H17.9075C17.7897 66.564 17.7013 66.6524 17.6718 66.7997V67.4774C16.7878 67.5953 16.228 68.1846 16.228 68.9212C16.228 69.8936 16.8173 70.2766 18.0548 70.4239C18.8799 70.5712 19.1451 70.748 19.1451 71.2195C19.1451 71.6909 18.7325 72.015 18.1727 72.015C17.4066 72.015 17.1414 71.6909 17.053 71.2489C17.0236 71.1311 16.9352 71.0721 16.8468 71.0721H16.3459C16.228 71.0721 16.1396 71.1605 16.1396 71.2784V71.3079C16.2575 72.0445 16.7289 72.5748 17.7013 72.7222V73.4294C17.7013 73.5472 17.7897 73.6356 17.937 73.665H18.3789C18.4968 73.665 18.5852 73.5767 18.6147 73.4294V72.7222C19.4986 72.5748 20.0879 71.9561 20.0879 71.1605Z" fill="white"/>
<path d="M16.6406 74.2533C14.3423 73.4283 13.1637 70.8648 14.0182 68.596C14.4602 67.3585 15.4325 66.4156 16.6406 65.9736C16.7585 65.9147 16.8174 65.8263 16.8174 65.6789V65.2665C16.8174 65.1486 16.7585 65.0602 16.6406 65.0308C16.6111 65.0308 16.5522 65.0308 16.5227 65.0602C13.7235 65.9441 12.1913 68.9201 13.0753 71.7193C13.6056 73.3693 14.8727 74.6363 16.5227 75.1667C16.6406 75.2256 16.7585 75.1667 16.7879 75.0488C16.8174 75.0194 16.8174 74.9899 16.8174 74.931V74.5185C16.8174 74.4301 16.729 74.3122 16.6406 74.2533ZM19.7639 65.0602C19.646 65.0013 19.5281 65.0602 19.4987 65.1781C19.4692 65.2076 19.4692 65.237 19.4692 65.2959V65.7084C19.4692 65.8263 19.5576 65.9441 19.646 66.0031C21.9443 66.8281 23.1229 69.3915 22.2684 71.6604C21.8264 72.8979 20.854 73.8408 19.646 74.2828C19.5281 74.3417 19.4692 74.4301 19.4692 74.5774V74.9899C19.4692 75.1078 19.5281 75.1962 19.646 75.2256C19.6755 75.2256 19.7344 75.2256 19.7639 75.1962C22.563 74.3122 24.0952 71.3362 23.2113 68.5371C22.6809 66.8576 21.3844 65.5905 19.7639 65.0602Z" fill="white"/>
</g>
<path d="M31.1694 68.1571C30.7486 68.1571 30.3939 68.0767 30.1051 67.9158C29.8163 67.7549 29.5956 67.5301 29.443 67.2413C29.2945 66.9485 29.2203 66.6061 29.2203 66.2142V63.5226H30.0989V66.2637C30.0989 66.4782 30.1402 66.668 30.2227 66.833C30.3052 66.9938 30.4248 67.1197 30.5815 67.2104C30.7424 67.297 30.9384 67.3403 31.1694 67.3403C31.3963 67.3403 31.5881 67.297 31.7448 67.2104C31.9057 67.1197 32.0253 66.9938 32.1037 66.833C32.1862 66.6721 32.2275 66.4823 32.2275 66.2637V63.5226H33.1061V66.2142C33.1061 66.6061 33.0319 66.9485 32.8834 67.2413C32.739 67.5301 32.5224 67.7549 32.2336 67.9158C31.9449 68.0767 31.5901 68.1571 31.1694 68.1571ZM35.6757 68.1571C35.2755 68.1571 34.9373 68.0932 34.6609 67.9653C34.3886 67.8374 34.1803 67.6621 34.0359 67.4393C33.8916 67.2125 33.8194 66.9567 33.8194 66.6721H34.6795C34.6795 66.7917 34.7125 66.9093 34.7785 67.0248C34.8445 67.1362 34.9497 67.2269 35.094 67.297C35.2425 67.3672 35.4364 67.4022 35.6757 67.4022C35.8902 67.4022 36.0696 67.3713 36.214 67.3094C36.3584 67.2475 36.4656 67.1671 36.5358 67.0681C36.6059 66.965 36.641 66.8495 36.641 66.7216C36.641 66.5607 36.5729 66.4328 36.4368 66.3379C36.3006 66.2389 36.0903 66.1771 35.8056 66.1523L35.4096 66.1214C34.9765 66.0843 34.63 65.9502 34.3701 65.7192C34.1143 65.484 33.9864 65.1747 33.9864 64.791C33.9864 64.5023 34.0545 64.2548 34.1906 64.0485C34.3268 63.8381 34.5165 63.6773 34.7599 63.5659C35.0074 63.4504 35.2962 63.3926 35.6262 63.3926C35.9686 63.3926 36.2635 63.4524 36.511 63.5721C36.7585 63.6917 36.9503 63.8608 37.0865 64.0795C37.2226 64.294 37.2907 64.5477 37.2907 64.8405H36.4306C36.4306 64.7168 36.3996 64.6033 36.3378 64.5002C36.28 64.393 36.1913 64.3084 36.0717 64.2465C35.9562 64.1805 35.8077 64.1475 35.6262 64.1475C35.4529 64.1475 35.3085 64.1764 35.193 64.2341C35.0775 64.2919 34.9909 64.3703 34.9332 64.4693C34.8754 64.5683 34.8465 64.6755 34.8465 64.791C34.8465 64.9313 34.8981 65.055 35.0012 65.1623C35.1044 65.2654 35.2673 65.3252 35.49 65.3417L35.8861 65.3789C36.2078 65.4036 36.4904 65.4717 36.7338 65.5831C36.9771 65.6944 37.1648 65.845 37.2968 66.0348C37.433 66.2245 37.501 66.4534 37.501 66.7216C37.501 67.0062 37.4268 67.2578 37.2783 67.4765C37.1298 67.691 36.9173 67.858 36.641 67.9777C36.3687 68.0973 36.0469 68.1571 35.6757 68.1571ZM39.0593 68.0643V67.2475H39.9936C40.2287 67.2475 40.437 67.2125 40.6186 67.1423C40.8042 67.0681 40.9609 66.965 41.0888 66.833C41.2167 66.701 41.3136 66.5463 41.3796 66.3689C41.4498 66.1874 41.4848 65.9873 41.4848 65.7687C41.4848 65.5418 41.4498 65.3397 41.3796 65.1623C41.3136 64.9808 41.2167 64.8261 41.0888 64.6982C40.9609 64.5703 40.8042 64.4734 40.6186 64.4074C40.437 64.3414 40.2287 64.3084 39.9936 64.3084H39.0593V63.4916H39.9379C40.3463 63.4916 40.7031 63.5514 41.0084 63.6711C41.3136 63.7907 41.5673 63.9557 41.7695 64.1661C41.9716 64.3723 42.1222 64.6095 42.2212 64.8777C42.3243 65.1417 42.3758 65.416 42.3758 65.7006V65.8367C42.3758 66.109 42.3243 66.3771 42.2212 66.6411C42.1222 66.9051 41.9716 67.1444 41.7695 67.3589C41.5673 67.5734 41.3136 67.7446 41.0084 67.8725C40.7031 68.0004 40.3463 68.0643 39.9379 68.0643H39.0593ZM38.3044 68.0643V63.4916H39.183V68.0643H38.3044ZM45.1984 68.1571C44.79 68.1571 44.4394 68.0849 44.1465 67.9405C43.8536 67.7962 43.6143 67.6085 43.4287 67.3775C43.2472 67.1465 43.1131 66.8948 43.0265 66.6226C42.9399 66.3503 42.8966 66.0884 42.8966 65.8367V65.7006C42.8966 65.4201 42.9399 65.1437 43.0265 64.8715C43.1173 64.5992 43.2555 64.3517 43.4411 64.129C43.6267 63.9062 43.8618 63.7288 44.1465 63.5968C44.4352 63.4607 44.7756 63.3926 45.1674 63.3926C45.5758 63.3926 45.9306 63.4669 46.2317 63.6154C46.537 63.7598 46.7804 63.966 46.9619 64.2341C47.1434 64.4981 47.2527 64.8075 47.2898 65.1623H46.405C46.372 64.956 46.2977 64.7828 46.1822 64.6425C46.0708 64.4981 45.9285 64.3909 45.7553 64.3208C45.582 64.2465 45.3861 64.2094 45.1674 64.2094C44.9447 64.2094 44.7467 64.2486 44.5734 64.327C44.4002 64.4012 44.2558 64.5085 44.1403 64.6487C44.0248 64.789 43.9361 64.954 43.8742 65.1437C43.8165 65.3335 43.7876 65.5439 43.7876 65.7749C43.7876 65.9976 43.8165 66.2039 43.8742 66.3936C43.9361 66.5834 44.0269 66.7505 44.1465 66.8948C44.2661 67.0351 44.4125 67.1444 44.5858 67.2228C44.7632 67.3012 44.9674 67.3403 45.1984 67.3403C45.5366 67.3403 45.8213 67.2578 46.0523 67.0928C46.2874 66.9237 46.4297 66.6886 46.4792 66.3874H47.3641C47.3228 66.7092 47.2135 67.0041 47.0361 67.2723C46.8587 67.5404 46.6154 67.7549 46.306 67.9158C45.9966 68.0767 45.6274 68.1571 45.1984 68.1571Z" fill="#020617"/>
<path d="M29.8885 74.4679V73.9357H30.8971C31.1116 73.9357 31.289 73.8945 31.4293 73.812C31.5695 73.7254 31.6747 73.6099 31.7448 73.4655C31.8191 73.3211 31.8562 73.1602 31.8562 72.9828C31.8562 72.8013 31.8191 72.6384 31.7448 72.494C31.6747 72.3496 31.5695 72.2362 31.4293 72.1537C31.289 72.0712 31.1116 72.03 30.8971 72.03H29.8885V71.4978H30.7857C31.157 71.4978 31.4664 71.5576 31.7139 71.6773C31.9655 71.7928 32.1553 71.9578 32.2832 72.1723C32.411 72.3868 32.475 72.6405 32.475 72.9333V73.0324C32.475 73.3211 32.411 73.5748 32.2832 73.7934C32.1553 74.0079 31.9655 74.175 31.7139 74.2946C31.4664 74.4101 31.157 74.4679 30.7857 74.4679H29.8885ZM29.4059 76.0396V71.4978H30.0123V76.0396H29.4059ZM33.2893 76.0396V72.7353H33.7595V74.0966H33.7348C33.7348 73.614 33.84 73.2613 34.0504 73.0385C34.2649 72.8117 34.5846 72.6982 35.0094 72.6982H35.1208V73.2304H34.9104C34.5804 73.2304 34.3267 73.319 34.1494 73.4964C33.972 73.6697 33.8833 73.9213 33.8833 74.2513V76.0396H33.2893ZM35.9881 76.0396V72.7353H36.5821V76.0396H35.9881ZM35.4807 73.2056V72.7353H36.5821V73.2056H35.4807ZM36.1551 72.2032C36.0231 72.2032 35.9241 72.1681 35.8581 72.098C35.7962 72.0279 35.7653 71.9392 35.7653 71.8319C35.7653 71.7247 35.7962 71.636 35.8581 71.5659C35.9241 71.4957 36.0231 71.4607 36.1551 71.4607C36.2871 71.4607 36.3841 71.4957 36.4459 71.5659C36.5119 71.636 36.5449 71.7247 36.5449 71.8319C36.5449 71.9392 36.5119 72.0279 36.4459 72.098C36.3841 72.1681 36.2871 72.2032 36.1551 72.2032ZM39.1476 76.1509C38.8629 76.1509 38.6154 76.1014 38.4051 76.0024C38.1988 75.9034 38.0276 75.7714 37.8915 75.6064C37.7554 75.4373 37.6522 75.2517 37.5821 75.0495C37.5161 74.8474 37.4831 74.6453 37.4831 74.4431V74.3318C37.4831 74.1214 37.5161 73.9151 37.5821 73.713C37.6522 73.5109 37.7554 73.3294 37.8915 73.1685C38.0317 73.0035 38.205 72.8715 38.4112 72.7725C38.6175 72.6735 38.8588 72.624 39.1352 72.624C39.4116 72.624 39.6591 72.6755 39.8777 72.7787C40.1005 72.8818 40.2779 73.0282 40.4099 73.218C40.546 73.4036 40.6223 73.6243 40.6388 73.8801H40.0695C40.0407 73.6738 39.9458 73.5026 39.7849 73.3665C39.624 73.2262 39.4075 73.1561 39.1352 73.1561C38.9001 73.1561 38.7041 73.2097 38.5474 73.317C38.3906 73.4242 38.2731 73.5707 38.1947 73.7563C38.1163 73.9419 38.0771 74.1523 38.0771 74.3874C38.0771 74.6143 38.1163 74.8226 38.1947 75.0124C38.2731 75.198 38.3906 75.3465 38.5474 75.4579C38.7083 75.5652 38.9083 75.6188 39.1476 75.6188C39.3332 75.6188 39.4941 75.5858 39.6302 75.5198C39.7663 75.4538 39.8757 75.3651 39.9582 75.2537C40.0407 75.1423 40.0902 75.0165 40.1067 74.8763H40.6759C40.6636 75.1362 40.5872 75.361 40.447 75.5507C40.3109 75.7405 40.1294 75.889 39.9025 75.9962C39.6797 76.0994 39.4281 76.1509 39.1476 76.1509ZM42.8877 76.1509C42.5989 76.1509 42.3494 76.1014 42.139 76.0024C41.9286 75.9034 41.7574 75.7735 41.6254 75.6126C41.4934 75.4476 41.3944 75.264 41.3284 75.0619C41.2665 74.8598 41.2356 74.6535 41.2356 74.4431V74.3318C41.2356 74.1173 41.2665 73.9089 41.3284 73.7068C41.3944 73.5047 41.4934 73.3232 41.6254 73.1623C41.7574 72.9973 41.9245 72.8673 42.1266 72.7725C42.3329 72.6735 42.5742 72.624 42.8506 72.624C43.2094 72.624 43.5044 72.7023 43.7354 72.8591C43.9705 73.0117 44.1438 73.2097 44.2552 73.4531C44.3707 73.6965 44.4284 73.9564 44.4284 74.2328V74.4988H41.4955V74.0533H43.9953L43.8591 74.2946C43.8591 74.0595 43.822 73.8574 43.7478 73.6882C43.6735 73.515 43.5621 73.3809 43.4136 73.286C43.2651 73.1912 43.0774 73.1437 42.8506 73.1437C42.6154 73.1437 42.4195 73.1974 42.2627 73.3046C42.1101 73.4119 41.9946 73.5583 41.9162 73.7439C41.842 73.9296 41.8048 74.1441 41.8048 74.3874C41.8048 74.6226 41.842 74.835 41.9162 75.0248C41.9946 75.2104 42.1142 75.3589 42.2751 75.4703C42.436 75.5775 42.6402 75.6312 42.8877 75.6312C43.1476 75.6312 43.3579 75.5734 43.5188 75.4579C43.6838 75.3424 43.7828 75.2083 43.8158 75.0557H44.3727C44.3273 75.2826 44.2366 75.4785 44.1005 75.6435C43.9643 75.8085 43.7931 75.9344 43.5869 76.021C43.3806 76.1076 43.1476 76.1509 42.8877 76.1509ZM45.1542 76.0396V75.2847H45.872V76.0396H45.1542ZM45.1542 73.7501V72.9952H45.872V73.7501H45.1542ZM49.7409 76.0396C49.3861 76.0396 49.085 75.9818 48.8375 75.8663C48.59 75.7467 48.4002 75.5796 48.2682 75.3651C48.1404 75.1465 48.0764 74.8907 48.0764 74.5978H48.6333C48.6333 74.7381 48.6663 74.8804 48.7323 75.0248C48.8024 75.1692 48.9179 75.2908 49.0788 75.3898C49.2397 75.4847 49.4604 75.5322 49.7409 75.5322C50.1122 75.5322 50.3865 75.4538 50.5639 75.297C50.7454 75.1403 50.8361 74.9608 50.8361 74.7587C50.8361 74.5607 50.7557 74.3957 50.5948 74.2637C50.4339 74.1317 50.2008 74.0513 49.8956 74.0224L49.4872 73.9852C49.0912 73.9481 48.7756 73.8285 48.5405 73.6264C48.3054 73.4242 48.1878 73.1355 48.1878 72.7601C48.1878 72.5002 48.2497 72.2795 48.3734 72.098C48.5013 71.9124 48.6787 71.7701 48.9056 71.6711C49.1366 71.5721 49.4068 71.5226 49.7161 71.5226C50.0255 71.5226 50.2916 71.5783 50.5144 71.6896C50.7412 71.7969 50.9165 71.9557 51.0403 72.1661C51.1641 72.3723 51.2259 72.6219 51.2259 72.9148H50.669C50.669 72.7663 50.636 72.626 50.57 72.494C50.504 72.3579 50.4009 72.2465 50.2607 72.1599C50.1245 72.0733 49.943 72.03 49.7161 72.03C49.514 72.03 49.3408 72.063 49.1964 72.129C49.0561 72.1908 48.9468 72.2775 48.8684 72.3888C48.7942 72.5002 48.7571 72.624 48.7571 72.7601C48.7571 72.9375 48.821 73.0922 48.9489 73.2242C49.0768 73.352 49.2727 73.4284 49.5367 73.4531L49.9451 73.4902C50.3865 73.5315 50.7392 73.6614 51.0032 73.8801C51.2713 74.0946 51.4054 74.3874 51.4054 74.7587C51.4054 75.0145 51.3373 75.2393 51.2012 75.4332C51.0651 75.6229 50.8732 75.7714 50.6257 75.8787C50.3782 75.9859 50.0833 76.0396 49.7409 76.0396ZM49.4748 76.8378V75.9344H50.007V76.8378H49.4748ZM49.4501 71.8258V70.9224H49.9822V71.8258H49.4501ZM54.0682 76.1509C53.7299 76.1509 53.4412 76.0932 53.2019 75.9777C52.9668 75.858 52.775 75.6972 52.6265 75.495C52.4821 75.2929 52.3769 75.0598 52.3109 74.7958C52.2449 74.5277 52.2119 74.2451 52.2119 73.9481V73.614C52.2119 73.1974 52.2758 72.822 52.4037 72.4878C52.5357 72.1537 52.7378 71.8897 53.0101 71.6958C53.2865 71.4978 53.6392 71.3988 54.0682 71.3988C54.4972 71.3988 54.8478 71.4978 55.1201 71.6958C55.3923 71.8897 55.5924 72.1537 55.7203 72.4878C55.8523 72.822 55.9183 73.1974 55.9183 73.614V73.9481C55.9183 74.2451 55.8853 74.5277 55.8193 74.7958C55.7533 75.0598 55.646 75.2929 55.4975 75.495C55.3532 75.6972 55.1634 75.858 54.9283 75.9777C54.6931 76.0932 54.4064 76.1509 54.0682 76.1509ZM54.0682 75.6064C54.4972 75.6064 54.8107 75.462 55.0087 75.1733C55.2108 74.8804 55.3119 74.4184 55.3119 73.7872C55.3119 73.1272 55.2088 72.6549 55.0025 72.3703C54.8004 72.0856 54.489 71.9433 54.0682 71.9433C53.6433 71.9433 53.3277 72.0856 53.1215 72.3703C52.9193 72.6549 52.8183 73.1231 52.8183 73.7749C52.8183 74.4101 52.9193 74.8742 53.1215 75.1671C53.3236 75.46 53.6392 75.6064 54.0682 75.6064ZM56.8165 76.0396V75.2847H57.5343V76.0396H56.8165ZM59.9024 71.3988C60.2324 71.3988 60.5068 71.4566 60.7254 71.5721C60.9481 71.6876 61.1235 71.8464 61.2513 72.0485C61.3833 72.2465 61.4762 72.4755 61.5298 72.7353C61.5875 72.9952 61.6164 73.2675 61.6164 73.5521V73.8491C61.6164 74.5628 61.439 75.1135 61.0843 75.5012C60.7295 75.8849 60.2159 76.0767 59.5435 76.0767C59.3827 76.0767 59.2465 76.0726 59.1352 76.0643C59.0238 76.0561 58.9021 76.0437 58.7701 76.0272V75.5198C58.9062 75.5363 59.032 75.5487 59.1475 75.5569C59.263 75.5652 59.4033 75.5693 59.5683 75.5693C59.9437 75.5693 60.2407 75.4992 60.4593 75.3589C60.6779 75.2187 60.8347 75.0186 60.9296 74.7587C61.0245 74.4947 61.0719 74.1771 61.0719 73.8058V73.5274L61.2204 72.9767C61.2163 73.3025 61.1523 73.5727 61.0286 73.7872C60.9089 74.0017 60.7419 74.1626 60.5274 74.2699C60.317 74.3771 60.0736 74.4308 59.7972 74.4308C59.4755 74.4308 59.2032 74.3668 58.9805 74.2389C58.7577 74.1069 58.5886 73.9275 58.4731 73.7006C58.3617 73.4737 58.306 73.2159 58.306 72.9272C58.306 72.6343 58.3658 72.3723 58.4855 72.1413C58.6051 71.9103 58.7825 71.7288 59.0176 71.5968C59.2568 71.4648 59.5518 71.3988 59.9024 71.3988ZM59.9024 71.9186C59.6755 71.9186 59.4858 71.9619 59.3332 72.0485C59.1805 72.1351 59.065 72.2548 58.9867 72.4074C58.9124 72.5559 58.8753 72.7292 58.8753 72.9272C58.8753 73.1252 58.9124 73.3005 58.9867 73.4531C59.0609 73.6057 59.1702 73.7254 59.3146 73.812C59.4631 73.8945 59.6446 73.9357 59.8591 73.9357C60.0695 73.9357 60.2572 73.8966 60.4222 73.8182C60.5913 73.7398 60.7233 73.6264 60.8182 73.4779C60.9131 73.3252 60.9605 73.1396 60.9605 72.921C60.9605 72.7395 60.9234 72.5724 60.8491 72.4198C60.7749 72.2671 60.6594 72.1455 60.5026 72.0547C60.3459 71.9639 60.1458 71.9186 59.9024 71.9186ZM63.9812 71.3988C64.3112 71.3988 64.5855 71.4566 64.8042 71.5721C65.0269 71.6876 65.2022 71.8464 65.3301 72.0485C65.4621 72.2465 65.5549 72.4755 65.6086 72.7353C65.6663 72.9952 65.6952 73.2675 65.6952 73.5521V73.8491C65.6952 74.5628 65.5178 75.1135 65.163 75.5012C64.8083 75.8849 64.2947 76.0767 63.6223 76.0767C63.4614 76.0767 63.3253 76.0726 63.2139 76.0643C63.1026 76.0561 62.9809 76.0437 62.8489 76.0272V75.5198C62.985 75.5363 63.1108 75.5487 63.2263 75.5569C63.3418 75.5652 63.4821 75.5693 63.6471 75.5693C64.0225 75.5693 64.3195 75.4992 64.5381 75.3589C64.7567 75.2187 64.9135 75.0186 65.0084 74.7587C65.1032 74.4947 65.1507 74.1771 65.1507 73.8058V73.5274L65.2992 72.9767C65.295 73.3025 65.2311 73.5727 65.1074 73.7872C64.9877 74.0017 64.8207 74.1626 64.6062 74.2699C64.3958 74.3771 64.1524 74.4308 63.876 74.4308C63.5543 74.4308 63.282 74.3668 63.0592 74.2389C62.8365 74.1069 62.6674 73.9275 62.5519 73.7006C62.4405 73.4737 62.3848 73.2159 62.3848 72.9272C62.3848 72.6343 62.4446 72.3723 62.5642 72.1413C62.6839 71.9103 62.8612 71.7288 63.0964 71.5968C63.3356 71.4648 63.6306 71.3988 63.9812 71.3988ZM63.9812 71.9186C63.7543 71.9186 63.5646 71.9619 63.4119 72.0485C63.2593 72.1351 63.1438 72.2548 63.0654 72.4074C62.9912 72.5559 62.954 72.7292 62.954 72.9272C62.954 73.1252 62.9912 73.3005 63.0654 73.4531C63.1397 73.6057 63.249 73.7254 63.3934 73.812C63.5419 73.8945 63.7234 73.9357 63.9379 73.9357C64.1483 73.9357 64.336 73.8966 64.501 73.8182C64.6701 73.7398 64.8021 73.6264 64.897 73.4779C64.9918 73.3252 65.0393 73.1396 65.0393 72.921C65.0393 72.7395 65.0022 72.5724 64.9279 72.4198C64.8537 72.2671 64.7382 72.1455 64.5814 72.0547C64.4246 71.9639 64.2246 71.9186 63.9812 71.9186Z" fill="#64748B"/>
<rect x="91.5315" y="61.8406" width="41.1037" height="16.3975" rx="4.19877" fill="#F8FAFA"/>
<rect x="91.5315" y="61.8406" width="41.1037" height="16.3975" rx="4.19877" stroke="#CBD5E1" stroke-width="0.441975"/>
<path d="M107.376 72.0705V71.3651H108.509C108.715 71.3651 108.872 71.3094 108.979 71.198C109.086 71.0825 109.14 70.9258 109.14 70.7278C109.14 70.5298 109.086 70.3771 108.979 70.2699C108.872 70.1585 108.715 70.1028 108.509 70.1028H107.376V69.5645H108.447C108.748 69.5645 109.016 69.6016 109.251 69.6759C109.49 69.746 109.676 69.8656 109.808 70.0348C109.944 70.2039 110.012 70.4308 110.012 70.7154V70.802C110.012 71.0702 109.952 71.2991 109.833 71.4888C109.717 71.6745 109.542 71.8189 109.307 71.922C109.076 72.021 108.789 72.0705 108.447 72.0705H107.376ZM106.64 72.0705V67.4916H107.5V72.0705H106.64ZM107.376 69.9605V69.4222H108.342C108.552 69.4222 108.707 69.3665 108.806 69.2551C108.905 69.1437 108.954 68.9952 108.954 68.8096C108.954 68.624 108.905 68.4755 108.806 68.3641C108.707 68.2527 108.552 68.197 108.342 68.197H107.376V67.4916H108.261C108.773 67.4916 109.16 67.5989 109.424 67.8134C109.692 68.0279 109.827 68.3352 109.827 68.7353V68.822C109.827 69.1025 109.758 69.3273 109.622 69.4964C109.49 69.6614 109.307 69.7811 109.072 69.8553C108.837 69.9254 108.566 69.9605 108.261 69.9605H107.376ZM111.977 72.1447C111.589 72.1447 111.288 72.0169 111.073 71.7611C110.863 71.5053 110.758 71.1258 110.758 70.6226V68.6735H111.618V70.6968C111.618 70.9031 111.675 71.0681 111.791 71.1918C111.906 71.3115 112.063 71.3713 112.261 71.3713C112.459 71.3713 112.62 71.3073 112.744 71.1795C112.872 71.0516 112.936 70.8783 112.936 70.6597V68.6735H113.796V72.0396H113.115V70.6102H113.183C113.183 70.9485 113.14 71.231 113.053 71.4579C112.967 71.6848 112.837 71.856 112.663 71.9715C112.49 72.087 112.274 72.1447 112.014 72.1447H111.977ZM114.685 73.3637V72.6274H115.316C115.436 72.6274 115.535 72.6109 115.613 72.5779C115.695 72.549 115.763 72.4995 115.817 72.4294C115.871 72.3634 115.912 72.2706 115.941 72.1509L116.844 68.6797H117.667L116.671 72.3366C116.605 72.5882 116.512 72.7883 116.393 72.9368C116.273 73.0894 116.118 73.1987 115.928 73.2647C115.743 73.3307 115.512 73.3637 115.235 73.3637H114.685ZM115.73 71.9653V71.2847H116.448V71.9653H115.73ZM115.44 71.9653L114.351 68.6797H115.217L116.25 71.9653H115.44Z" fill="#020617"/>
<path d="M11.7873 17.0703V11.2628H12.917V17.0703H11.7873ZM12.7579 14.6518V13.6972L15.0809 13.6892V14.6439L12.7579 14.6518ZM12.7579 12.2174V11.2628H15.1923V12.2174H12.7579ZM18.6135 17.0703V15.7895H18.4305V14.3654C18.4305 14.1161 18.3695 13.9305 18.2475 13.8085C18.1255 13.6865 17.9372 13.6256 17.6827 13.6256C17.5501 13.6256 17.391 13.6282 17.2053 13.6335C17.0197 13.6388 16.8314 13.6468 16.6405 13.6574C16.4549 13.6627 16.2878 13.6706 16.1393 13.6812V12.7425C16.2613 12.7319 16.3992 12.7213 16.553 12.7107C16.7068 12.7001 16.8632 12.6948 17.0224 12.6948C17.1868 12.6895 17.3406 12.6868 17.4838 12.6868C17.9293 12.6868 18.2979 12.7451 18.5896 12.8618C18.8866 12.9785 19.1094 13.1615 19.2579 13.4108C19.4117 13.66 19.4886 13.9862 19.4886 14.3893V17.0703H18.6135ZM17.2212 17.1817C16.9083 17.1817 16.6325 17.126 16.3939 17.0146C16.1605 16.9032 15.9775 16.7441 15.8449 16.5373C15.7176 16.3304 15.654 16.0812 15.654 15.7895C15.654 15.4712 15.7309 15.2114 15.8847 15.0098C16.0438 14.8083 16.2639 14.6571 16.545 14.5564C16.8314 14.4556 17.1656 14.4052 17.5474 14.4052H18.5498V15.0655H17.5315C17.2769 15.0655 17.0807 15.1292 16.9428 15.2564C16.8102 15.3784 16.7439 15.5375 16.7439 15.7338C16.7439 15.93 16.8102 16.0891 16.9428 16.2111C17.0807 16.3331 17.2769 16.3941 17.5315 16.3941C17.6853 16.3941 17.8259 16.3676 17.9532 16.3145C18.0857 16.2562 18.1945 16.1607 18.2793 16.0281C18.3695 15.8902 18.4199 15.7046 18.4305 15.4712L18.701 15.7815C18.6745 16.0838 18.6002 16.3384 18.4782 16.5452C18.3615 16.7521 18.1971 16.9112 17.985 17.0226C17.7781 17.1287 17.5236 17.1817 17.2212 17.1817ZM20.6731 17.0703V12.7504H21.5482V14.5802H21.5243C21.5243 13.9597 21.6569 13.4903 21.9221 13.1721C22.1873 12.8539 22.5771 12.6948 23.0916 12.6948H23.2507V13.6574H22.9484C22.5771 13.6574 22.2881 13.7581 22.0812 13.9597C21.8797 14.1559 21.7789 14.4423 21.7789 14.8189V17.0703H20.6731ZM23.9905 17.0703V12.7504H24.8656V14.6041H24.786C24.786 14.1692 24.8417 13.8059 24.9531 13.5142C25.0645 13.2172 25.2289 12.9944 25.4464 12.8459C25.6691 12.6921 25.9449 12.6152 26.2737 12.6152H26.3215C26.6556 12.6152 26.9314 12.6921 27.1488 12.8459C27.3716 12.9944 27.536 13.2172 27.6421 13.5142C27.7535 13.8059 27.8092 14.1692 27.8092 14.6041H27.5307C27.5307 14.1692 27.5864 13.8059 27.6978 13.5142C27.8145 13.2172 27.9815 12.9944 28.199 12.8459C28.4217 12.6921 28.6975 12.6152 29.0264 12.6152H29.0741C29.4082 12.6152 29.6867 12.6921 29.9094 12.8459C30.1322 12.9944 30.2992 13.2172 30.4106 13.5142C30.5273 13.8059 30.5856 14.1692 30.5856 14.6041V17.0703H29.4798V14.5007C29.4798 14.2302 29.4109 14.0154 29.273 13.8563C29.1351 13.6919 28.9388 13.6096 28.6843 13.6096C28.4297 13.6096 28.2255 13.6945 28.0717 13.8642C27.9179 14.0286 27.841 14.2514 27.841 14.5325V17.0703H26.7352V14.5007C26.7352 14.2302 26.6662 14.0154 26.5283 13.8563C26.3904 13.6919 26.1942 13.6096 25.9396 13.6096C25.685 13.6096 25.4808 13.6945 25.327 13.8642C25.1732 14.0286 25.0963 14.2514 25.0963 14.5325V17.0703H23.9905ZM34.7174 17.0703V12.0981H35.8471V17.0703H34.7174ZM33.0388 12.2572V11.2628H37.5257V12.2572H33.0388ZM39.8803 17.2215C39.4985 17.2215 39.1617 17.1605 38.87 17.0385C38.5783 16.9165 38.3317 16.7521 38.1301 16.5452C37.9286 16.3331 37.7748 16.0944 37.6687 15.8292C37.5679 15.5641 37.5175 15.2883 37.5175 15.0019V14.8348C37.5175 14.5378 37.5706 14.2567 37.6767 13.9915C37.788 13.721 37.9445 13.4824 38.146 13.2755C38.3529 13.0634 38.6021 12.8989 38.8939 12.7823C39.1856 12.6603 39.5144 12.5993 39.8803 12.5993C40.2463 12.5993 40.5751 12.6603 40.8668 12.7823C41.1585 12.8989 41.4052 13.0634 41.6067 13.2755C41.8135 13.4824 41.97 13.721 42.0761 13.9915C42.1821 14.2567 42.2352 14.5378 42.2352 14.8348V15.0019C42.2352 15.2883 42.1821 15.5641 42.0761 15.8292C41.9753 16.0944 41.8241 16.3331 41.6226 16.5452C41.4211 16.7521 41.1744 16.9165 40.8827 17.0385C40.591 17.1605 40.2569 17.2215 39.8803 17.2215ZM39.8803 16.2748C40.1508 16.2748 40.3789 16.2164 40.5645 16.0997C40.7501 15.9777 40.8907 15.816 40.9862 15.6144C41.0816 15.4076 41.1294 15.1742 41.1294 14.9144C41.1294 14.6492 41.079 14.4158 40.9782 14.2143C40.8827 14.0074 40.7395 13.8457 40.5486 13.729C40.363 13.607 40.1402 13.546 39.8803 13.546C39.6205 13.546 39.3951 13.607 39.2041 13.729C39.0185 13.8457 38.8753 14.0074 38.7745 14.2143C38.6737 14.4158 38.6234 14.6492 38.6234 14.9144C38.6234 15.1742 38.6711 15.4076 38.7666 15.6144C38.8673 15.816 39.0105 15.9777 39.1962 16.0997C39.3818 16.2164 39.6099 16.2748 39.8803 16.2748ZM46.2266 17.0703L44.7787 15.0496H44.1343L45.972 12.7504H47.1256L45.431 14.8746L45.4549 14.3177L47.4756 17.0703H46.2266ZM43.2035 17.0703V11.2628H44.3093V17.0703H43.2035ZM49.9069 17.2215C49.5356 17.2215 49.2095 17.1578 48.9284 17.0305C48.6526 16.9032 48.4219 16.7335 48.2362 16.5214C48.0559 16.3039 47.918 16.0626 47.8225 15.7974C47.7324 15.5322 47.6873 15.2617 47.6873 14.986V14.8348C47.6873 14.5484 47.7324 14.2726 47.8225 14.0074C47.918 13.7369 48.0559 13.4983 48.2362 13.2914C48.4219 13.0793 48.6499 12.9122 48.9204 12.7902C49.1909 12.6629 49.5038 12.5993 49.8592 12.5993C50.3259 12.5993 50.7157 12.7027 51.0286 12.9096C51.3468 13.1111 51.5855 13.3789 51.7446 13.7131C51.9037 14.0419 51.9833 14.3972 51.9833 14.7791V15.1769H48.1567V14.5007H51.2912L50.9491 14.8348C50.9491 14.559 50.9093 14.323 50.8297 14.1268C50.7502 13.9305 50.6282 13.7794 50.4638 13.6733C50.3047 13.5672 50.1031 13.5142 49.8592 13.5142C49.6152 13.5142 49.4083 13.5699 49.2386 13.6812C49.0689 13.7926 48.939 13.9544 48.8488 14.1665C48.7639 14.3734 48.7215 14.6227 48.7215 14.9144C48.7215 15.1848 48.7639 15.4262 48.8488 15.6383C48.9337 15.8452 49.0636 16.0096 49.2386 16.1316C49.4136 16.2482 49.6364 16.3066 49.9069 16.3066C50.1774 16.3066 50.3975 16.2535 50.5672 16.1475C50.7369 16.0361 50.8456 15.9008 50.8934 15.7417H51.9117C51.848 16.0387 51.7261 16.2986 51.5457 16.5214C51.3654 16.7441 51.1347 16.9165 50.8536 17.0385C50.5778 17.1605 50.2622 17.2215 49.9069 17.2215ZM52.9071 17.0703V12.7504H53.7822V14.6041H53.7026C53.7026 14.1639 53.761 13.7979 53.8776 13.5062C53.9943 13.2092 54.1667 12.9865 54.3948 12.838C54.6281 12.6895 54.9172 12.6152 55.2619 12.6152H55.3096C55.8241 12.6152 56.2139 12.7823 56.4791 13.1164C56.7443 13.4452 56.8769 13.9385 56.8769 14.5961V17.0703H55.7711V14.5007C55.7711 14.2355 55.6942 14.0207 55.5404 13.8563C55.3919 13.6919 55.185 13.6096 54.9198 13.6096C54.6493 13.6096 54.4292 13.6945 54.2595 13.8642C54.0951 14.0286 54.0129 14.2514 54.0129 14.5325V17.0703H52.9071ZM59.633 17.2056C59.039 17.2056 58.5723 17.0809 58.2328 16.8316C57.8987 16.5771 57.7237 16.227 57.7077 15.7815H58.7022C58.7181 15.93 58.8003 16.0653 58.9488 16.1872C59.0973 16.3092 59.3307 16.3702 59.6489 16.3702C59.9141 16.3702 60.1236 16.3225 60.2774 16.227C60.4365 16.1316 60.5161 16.0016 60.5161 15.8372C60.5161 15.694 60.4551 15.58 60.3331 15.4951C60.2164 15.4103 60.0149 15.3546 59.7285 15.328L59.3466 15.2883C58.864 15.2352 58.4927 15.0973 58.2328 14.8746C57.9729 14.6518 57.843 14.3548 57.843 13.9836C57.843 13.6865 57.9172 13.4373 58.0657 13.2357C58.2143 13.0342 58.4184 12.883 58.6783 12.7823C58.9435 12.6762 59.2458 12.6232 59.5853 12.6232C60.1156 12.6232 60.5452 12.7398 60.8741 12.9732C61.2029 13.2066 61.3753 13.5487 61.3912 13.9995H60.3967C60.3861 13.851 60.3119 13.7237 60.174 13.6176C60.0361 13.5115 59.8372 13.4585 59.5773 13.4585C59.3439 13.4585 59.1636 13.5036 59.0363 13.5937C58.909 13.6839 58.8454 13.8006 58.8454 13.9438C58.8454 14.0817 58.8958 14.1877 58.9965 14.262C59.1026 14.3363 59.2723 14.3866 59.5057 14.4132L59.8876 14.4529C60.3967 14.506 60.7945 14.6465 61.0809 14.8746C61.3726 15.1026 61.5185 15.4103 61.5185 15.7974C61.5185 16.0838 61.4389 16.3331 61.2798 16.5452C61.126 16.7521 60.9085 16.9139 60.6274 17.0305C60.3463 17.1472 60.0149 17.2056 59.633 17.2056Z" fill="#1E293B"/>
<path d="M3 27.8672L181.495 27.8672" stroke="#E2E8F0" stroke-width="0.441975"/>
</g>
<rect x="3.22099" y="1.22099" width="137.558" height="85.558" rx="9.77901" stroke="#E7ECEF" stroke-width="0.441975"/>
</g>
<defs>
<filter id="filter0_d_290_3813" x="0.348148" y="0.11605" width="143.304" height="91.3037" filterUnits="userSpaceOnUse" color-interpolation-filters="sRGB">
<feFlood flood-opacity="0" result="BackgroundImageFix"/>
<feColorMatrix in="SourceAlpha" type="matrix" values="0 0 0 0 0 0 0 0 0 0 0 0 0 0 0 0 0 0 127 0" result="hardAlpha"/>
<feOffset dy="1.7679"/>
<feGaussianBlur stdDeviation="1.32593"/>
<feComposite in2="hardAlpha" operator="out"/>
<feColorMatrix type="matrix" values="0 0 0 0 0 0 0 0 0 0 0 0 0 0 0 0 0 0 0.05 0"/>
<feBlend mode="normal" in2="BackgroundImageFix" result="effect1_dropShadow_290_3813"/>
<feBlend mode="normal" in="SourceGraphic" in2="effect1_dropShadow_290_3813" result="shape"/>
</filter>
<clipPath id="clip0_290_3813">
<rect x="3" y="1" width="138" height="86" rx="10" fill="white"/>
</clipPath>
<clipPath id="clip1_290_3813">
<rect width="14.1432" height="14.1432" fill="white" transform="translate(11.0713 62.9678)"/>
</clipPath>
</defs>
</svg>
