<svg width="25" height="25" viewBox="0 0 25 25" fill="none" xmlns="http://www.w3.org/2000/svg">
<path fill-rule="evenodd" clip-rule="evenodd" d="M12.4843 0.15248C19.1353 0.15248 24.5 5.51719 24.5 12.1995C24.5 18.7878 19.0725 24.2152 12.3902 24.1839C5.92745 24.1211 0.5 18.7878 0.5 12.1682C0.5 5.51719 5.83333 0.121107 12.4843 0.15248ZM3.3549 18.4427C3.3549 18.5682 3.41765 18.6309 3.48039 18.725C3.95098 19.3839 4.48431 20.0113 5.11176 20.5446C5.39412 20.7956 5.67647 21.0466 5.9902 21.2662C6.86863 21.8309 7.77843 22.3642 8.78235 22.7093C9.59804 22.9917 10.4451 23.2113 11.2922 23.3054C11.951 23.3682 12.6412 23.3995 13.3 23.3054C13.6765 23.2427 14.0843 23.2427 14.4608 23.0858C14.5235 23.1172 14.5549 23.0544 14.5863 23.0544C15.3706 22.929 16.1235 22.678 16.8765 22.3642C19.3235 21.2976 21.1745 19.5721 22.3667 17.1878C23.4333 15.0858 23.7784 12.8584 23.4333 10.5368C23.1196 8.30934 22.1784 6.36424 20.6726 4.73287C18.6647 2.44268 16.0922 1.25052 13.049 1.06228C11.7 0.968167 10.351 1.1564 9.06471 1.59562C6.96275 2.28581 5.23726 3.47797 3.82549 5.20346C2.22549 7.17993 1.44118 9.43875 1.34706 11.9486C1.31569 12.576 1.37843 13.1721 1.47255 13.7995C1.66078 15.2113 2.13137 16.5603 2.85294 17.7839C3.04118 17.9721 3.16667 18.2231 3.3549 18.4427Z" fill="#E7ECEF"/>
<path fill-rule="evenodd" clip-rule="evenodd" d="M14.4604 23.0546C14.0839 23.2429 13.6761 23.2428 13.2996 23.2742C12.6408 23.3683 11.9506 23.337 11.2917 23.2742C10.4447 23.1801 9.59763 22.9605 8.78194 22.6781C7.77802 22.333 6.86822 21.7997 5.98979 21.235C5.67606 21.0154 5.39371 20.7644 5.11135 20.5134C4.4839 19.9801 3.95057 19.3527 3.47998 18.6938C3.41724 18.5997 3.35449 18.5056 3.35449 18.4115C4.10743 16.7174 4.38979 14.9291 4.54665 13.1095C4.60939 12.2625 4.64077 11.4154 4.79763 10.5683C4.95449 9.59579 5.33096 8.71736 6.02116 7.96442C6.64861 7.30559 7.43292 6.86638 8.27998 6.55265C8.97018 6.2703 9.69175 6.01932 10.4761 5.98794C11.1976 5.95657 11.8878 6.05069 12.578 6.20755C13.6133 6.45853 14.6486 6.77226 15.6212 7.24285C16.4055 7.55657 17.2212 7.8703 18.0368 8.12128C18.8839 8.37226 19.731 8.65461 20.4525 9.18795C21.3623 9.87814 21.6133 10.7566 21.2055 11.8232C20.9545 12.4821 20.4839 12.984 20.0133 13.486C19.1663 14.3644 18.2565 15.1801 17.4408 16.0899C16.4996 17.1879 15.6525 18.3174 15.0565 19.635C14.5545 20.733 14.2721 21.8625 14.4604 23.0546ZM20.5153 12.733C20.4839 12.733 20.4525 12.733 20.4212 12.7644C20.3898 12.7644 20.3584 12.7958 20.3584 12.8272C20.3584 12.8272 20.3584 12.8272 20.3584 12.8585C20.3898 12.8585 20.4212 12.8272 20.4212 12.7958L20.5153 12.733C20.578 12.733 20.5466 12.733 20.5153 12.733ZM10.9153 7.27422C9.72312 7.27422 8.75057 8.24677 8.75057 9.40755C8.75057 10.5997 9.72312 11.5409 10.8839 11.5723C12.0761 11.5723 13.0172 10.5997 13.0486 9.40755C13.0486 8.2154 12.1074 7.27422 10.9153 7.27422ZM12.6721 13.8625C12.8604 14.1448 13.2055 14.3958 13.6133 14.5213C14.429 14.8036 15.2447 14.8036 16.0604 14.6468C17.5035 14.3644 18.8525 13.8625 20.0761 13.0468C20.1388 12.984 20.2643 12.984 20.2957 12.8585C20.2329 12.8272 20.2016 12.8585 20.1702 12.8899C19.7623 13.1409 19.3231 13.3291 18.8839 13.5174C17.7545 13.9879 16.5623 14.3017 15.3074 14.3644C14.3976 14.4272 13.4878 14.3644 12.6721 13.8625ZM18.6016 12.0115C18.8525 12.0115 19.0721 11.7919 19.0721 11.5095C19.0721 11.2585 18.8525 11.0389 18.5702 11.0703C18.3192 11.0703 18.131 11.2899 18.131 11.5409C18.131 11.8232 18.3192 12.0115 18.6016 12.0115Z" fill="#E7ECEF"/>
<path fill-rule="evenodd" clip-rule="evenodd" d="M10.9157 7.27417C12.1078 7.27417 13.049 8.24672 13.049 9.4075C13.049 10.5997 12.0765 11.5408 10.8843 11.5722C9.69215 11.5722 8.75098 10.5997 8.75098 9.4075C8.75098 8.21535 9.72353 7.27417 10.9157 7.27417ZM12.4216 9.43887C12.4216 8.59182 11.7627 7.93299 10.9157 7.93299C10.0686 7.93299 9.4098 8.59182 9.4098 9.43887C9.4098 10.2546 10.0686 10.9448 10.8843 10.9448H10.9157C11.7314 10.9448 12.3902 10.2859 12.4216 9.43887Z" fill="#1B2022"/>
<path fill-rule="evenodd" clip-rule="evenodd" d="M12.6724 13.8624C13.4881 14.3644 14.3979 14.4271 15.3077 14.3958C16.5626 14.333 17.7547 14.0507 18.8841 13.5487C19.3233 13.3605 19.7626 13.1722 20.1704 12.9213C20.2018 12.8899 20.2331 12.8585 20.2959 12.8899C20.2645 12.984 20.1704 13.0154 20.0763 13.0781C18.8528 13.8938 17.5037 14.3958 16.0606 14.6781C15.2449 14.835 14.3979 14.835 13.6135 14.5526C13.2057 14.3958 12.8292 14.1448 12.6724 13.8624ZM12.5469 6.20753C13.2057 6.01929 13.8959 5.95655 14.5547 6.20753C15.0567 6.39577 15.4331 6.74086 15.59 7.2742C14.6488 6.77224 13.6135 6.45851 12.5469 6.20753Z" fill="#E7ECEF"/>
<path fill-rule="evenodd" clip-rule="evenodd" d="M18.6024 12.0115C18.3514 12.0115 18.1318 11.7919 18.1318 11.5409C18.1318 11.2899 18.3201 11.0703 18.571 11.0703C18.822 11.0703 19.0416 11.2585 19.073 11.5095C19.0416 11.7919 18.8534 12.0115 18.6024 12.0115Z" fill="#1B2022"/>
<path fill-rule="evenodd" clip-rule="evenodd" d="M20.4221 12.7957C20.4221 12.827 20.3907 12.8584 20.3594 12.8584C20.3594 12.7957 20.3907 12.7643 20.4221 12.7957ZM20.5162 12.7329L20.4221 12.7957L20.3907 12.7643C20.4535 12.7329 20.4849 12.7329 20.5162 12.7329Z" fill="#E7ECEF"/>
<path fill-rule="evenodd" clip-rule="evenodd" d="M22.8061 12.8898C22.7119 12.4506 22.6178 12.0428 22.5551 11.6036C22.3041 10.3173 21.8649 9.09377 21.3629 7.93298C20.9865 7.05455 20.4845 6.23886 19.9198 5.45455C19.1355 4.32514 18.1002 3.60357 16.8139 3.10161C15.4963 2.59965 14.21 2.12906 12.8296 1.90945C12.7668 1.90945 12.7041 1.90945 12.7041 1.84671C12.7041 1.78396 12.7668 1.78396 12.8296 1.78396C13.7394 1.6271 14.6492 1.72122 15.559 1.9722C16.5002 2.22318 17.3159 2.72514 18.0688 3.32122C18.9159 4.01141 19.7629 4.67024 20.5159 5.45455C21.7394 6.74083 22.5237 8.24671 22.8688 9.9722C22.9629 10.5055 23.0257 11.0389 23.0257 11.5722C23.0257 12.0114 23.0257 12.482 22.9002 12.9526L22.8061 12.8898Z" fill="#FFFEFC"/>
<path fill-rule="evenodd" clip-rule="evenodd" d="M12.4219 9.43862C12.4219 10.2543 11.7631 10.9445 10.9474 10.9445H10.916C10.1004 10.9445 9.41016 10.2857 9.41016 9.43862V9.40725C9.41016 8.56019 10.1004 7.90137 10.916 7.90137C11.7317 7.90137 12.4219 8.59156 12.4219 9.43862Z" fill="#E7ECEF"/>
</svg>
