<svg width="382" height="280" viewBox="0 0 382 280" fill="none" xmlns="http://www.w3.org/2000/svg">
<g style="mix-blend-mode:soft-light" clip-path="url(#clip0_290_2933)">
<path fill-rule="evenodd" clip-rule="evenodd" d="M235.356 493.891L234.501 228.079L191.812 200L235.078 226.918L278.345 200L235.687 228.049L235.356 493.891Z" fill="url(#paint0_linear_290_2933)"/>
<path fill-rule="evenodd" clip-rule="evenodd" d="M297.012 270.345L296.157 159.024L253.468 131L296.735 157.865L340.002 131L297.343 158.994L297.012 270.345Z" fill="url(#paint1_linear_290_2933)"/>
<path fill-rule="evenodd" clip-rule="evenodd" d="M177.469 219.345L176.614 108.024L133.925 80L177.192 106.865L220.459 80L177.8 107.994L177.469 219.345Z" fill="url(#paint2_linear_290_2933)"/>
<path fill-rule="evenodd" clip-rule="evenodd" d="M86.6881 169.345L85.8325 58.0237L43.1436 30L86.4105 56.865L129.677 30L87.0189 57.9943L86.6881 169.345Z" fill="url(#paint3_linear_290_2933)"/>
<path fill-rule="evenodd" clip-rule="evenodd" d="M113.653 358.345L112.797 247.024L70.1084 219L113.375 245.865L156.642 219L113.984 246.994L113.653 358.345Z" fill="url(#paint4_linear_290_2933)"/>
</g>
<defs>
<linearGradient id="paint0_linear_290_2933" x1="235.078" y1="493.891" x2="235.078" y2="787.782" gradientUnits="userSpaceOnUse">
<stop stop-color="white"/>
<stop offset="0.1" stop-color="white"/>
<stop offset="0.6" stop-color="white"/>
<stop offset="0.9" stop-color="white"/>
<stop offset="1" stop-color="white"/>
</linearGradient>
<linearGradient id="paint1_linear_290_2933" x1="296.735" y1="270.345" x2="296.735" y2="409.689" gradientUnits="userSpaceOnUse">
<stop stop-color="white"/>
<stop offset="0.1" stop-color="white"/>
<stop offset="0.6" stop-color="white"/>
<stop offset="0.9" stop-color="white"/>
<stop offset="1" stop-color="white"/>
</linearGradient>
<linearGradient id="paint2_linear_290_2933" x1="177.192" y1="219.345" x2="177.192" y2="358.689" gradientUnits="userSpaceOnUse">
<stop stop-color="white"/>
<stop offset="0.1" stop-color="white"/>
<stop offset="0.6" stop-color="white"/>
<stop offset="0.9" stop-color="white"/>
<stop offset="1" stop-color="white"/>
</linearGradient>
<linearGradient id="paint3_linear_290_2933" x1="86.4105" y1="169.345" x2="86.4105" y2="308.689" gradientUnits="userSpaceOnUse">
<stop stop-color="white"/>
<stop offset="0.1" stop-color="white"/>
<stop offset="0.6" stop-color="white"/>
<stop offset="0.9" stop-color="white"/>
<stop offset="1" stop-color="white"/>
</linearGradient>
<linearGradient id="paint4_linear_290_2933" x1="113.375" y1="358.345" x2="113.375" y2="497.689" gradientUnits="userSpaceOnUse">
<stop stop-color="white"/>
<stop offset="0.1" stop-color="white"/>
<stop offset="0.6" stop-color="white"/>
<stop offset="0.9" stop-color="white"/>
<stop offset="1" stop-color="white"/>
</linearGradient>
<clipPath id="clip0_290_2933">
<rect width="382" height="280" fill="white"/>
</clipPath>
</defs>
</svg>
