<svg width="25" height="25" viewBox="0 0 25 25" fill="none" xmlns="http://www.w3.org/2000/svg">
<path fill-rule="evenodd" clip-rule="evenodd" d="M9.97599 11.9116L9.70214 20.036H6.68963C5.66723 20.036 5.47249 19.0015 5.50292 18.4842V5.7042C5.50292 4.53574 6.35492 4.18277 6.78092 4.15234C8.18063 4.15234 11.3087 4.1706 12.6232 4.24363C14.2663 4.33491 19.0132 6.16062 19.4696 11.4552C19.8347 15.6908 16.8223 18.332 15.2705 19.1232L14.9966 11.9116C15.946 11.0353 15.453 10.2076 15.0879 9.90333C15.027 9.90333 14.9053 9.86682 14.9053 9.72076C14.9053 9.5747 14.7836 9.29476 14.7228 9.17305C14.6619 9.11219 14.5767 8.97222 14.7228 8.89919C14.9053 8.8079 15.8182 7.43862 16.092 6.89091C16.3111 6.45274 15.8182 6.46491 15.5443 6.52577C15.24 6.73877 14.595 7.20128 14.4489 7.34734C14.3028 7.49339 14.2055 7.46905 14.175 7.43862C13.8692 7.13273 13.6914 7.14716 13.5344 7.15989C13.504 7.16236 13.4744 7.16477 13.4448 7.16477C13.2987 7.16477 13.2013 7.04305 13.1709 6.98219C12.897 6.43448 12.1668 6.61705 11.9842 6.79962C11.8993 6.88449 11.8736 6.94962 11.8521 7.00421C11.8273 7.06706 11.808 7.11591 11.7103 7.16477C11.4365 7.07348 11.1626 7.16477 10.98 7.34734C10.831 7.49641 10.8036 7.4629 10.7489 7.3959C10.7366 7.38084 10.7229 7.36409 10.7062 7.34734C10.6149 7.25605 9.4282 6.52577 9.24565 6.43449C8.80748 6.36146 8.81965 6.70835 8.88051 6.89092C9.21522 7.43863 9.92117 8.57057 10.0672 8.71663C10.2133 8.86269 10.3715 8.96006 10.4324 8.99049C10.1403 9.20957 10.0673 9.62948 10.0673 9.81205C8.97185 10.4693 9.54999 11.4856 9.97599 11.9116ZM7.69264 8.5341C7.3275 8.46107 7.35792 8.7471 7.41878 8.89924L8.42292 9.62953C8.51421 9.65995 8.73337 9.70256 8.87942 9.62953C9.09851 9.41044 8.97071 9.1731 8.87942 9.08181C8.63597 8.92967 8.05778 8.60713 7.69264 8.5341ZM7.14494 12.5506C6.04951 12.2585 6.68851 11.8812 7.14494 11.729C7.32749 11.729 7.69258 11.8021 7.69258 12.0942C7.69258 12.4593 7.41872 12.5506 7.14494 12.5506ZM7.51037 15.3805L8.42323 14.6502C8.66666 14.6198 9.09874 14.6867 8.87966 15.1979C8.69709 15.3805 8.24066 15.8369 7.69295 15.8369C7.51037 15.8369 7.23652 15.7456 7.51037 15.3805ZM17.4037 15.3805L16.4909 14.6502C16.2474 14.6198 15.8154 14.6867 16.0344 15.1979C16.217 15.3805 16.6734 15.8369 17.2212 15.8369C17.4037 15.8369 17.6776 15.7456 17.4037 15.3805ZM17.8596 11.729C18.3161 11.8812 18.9551 12.2585 17.8596 12.5506C17.5859 12.5506 17.312 12.4593 17.312 12.0942C17.312 11.8021 17.6771 11.729 17.8596 11.729ZM17.5444 8.89924C17.6053 8.7471 17.6357 8.46107 17.2706 8.5341C16.9054 8.60713 16.3273 8.92967 16.0838 9.08181C15.9925 9.1731 15.8647 9.41044 16.0838 9.62953C16.2299 9.70256 16.449 9.65995 16.5403 9.62953L17.5444 8.89924ZM11.9843 9.90335C11.4001 10.0494 11.0714 9.84249 10.9802 9.72078C10.9072 9.93986 11.0106 10.2989 11.0714 10.4511C11.1018 10.4815 11.1626 10.6336 11.1626 10.9988C11.1626 11.3639 11.041 11.5161 10.9802 11.5465C10.8889 11.6073 10.7611 11.8021 10.9802 12.0942C11.254 12.4593 11.7104 12.7332 12.0756 12.9158C12.3677 13.0618 12.8059 12.9766 12.9884 12.9158C13.2319 12.7636 13.7552 12.4228 13.9013 12.2768C14.0839 12.0942 14.1752 11.7291 13.9926 11.5465C13.8465 11.4004 13.81 11.1205 13.81 10.9988C13.81 10.9075 13.8283 10.6701 13.9013 10.4511C14.1204 10.0859 14.1143 9.81206 14.0839 9.72078C13.8648 10.0129 13.384 9.9642 13.171 9.90335C13.171 10.0251 13.0615 10.2867 12.6233 10.3598C12.1851 10.4328 12.0147 10.0859 11.9843 9.90335ZM12.9884 10.8161C12.6962 10.9622 12.1364 10.877 11.8929 10.8161C11.5278 10.7248 11.8929 11.1812 12.0755 11.2725C12.1987 11.3341 12.2803 11.6036 12.3484 11.8284C12.3813 11.9368 12.411 12.0347 12.4406 12.0941C12.5137 12.2402 12.5928 12.155 12.6232 12.0941C12.6536 11.9115 12.7693 11.4916 12.9884 11.2725C13.5361 10.8161 13.1709 10.8161 12.9884 10.8161Z" fill="#E7ECEF"/>
</svg>
