<svg width="80" height="80" viewBox="0 0 80 80" fill="none" xmlns="http://www.w3.org/2000/svg">
<circle opacity="0.05" cx="40" cy="40" r="40" fill="white"/>
<path d="M23.8016 29.4887C25.9452 29.8541 27.3867 31.8881 27.0215 34.0316C26.6564 36.1752 24.6225 37.617 22.4789 37.2515C20.335 36.8864 18.8936 34.8524 19.2587 32.7089C19.6238 30.5653 21.6578 29.1235 23.8016 29.4887Z" fill="white"/>
<path d="M57.3697 36.6477C59.2121 36.9616 60.4509 38.7094 60.137 40.5519C59.8231 42.394 58.0753 43.633 56.2329 43.3192C54.3908 43.0053 53.1517 41.2574 53.4656 39.415C53.7795 37.5726 55.5273 36.3339 57.3697 36.6477Z" fill="white"/>
<path d="M57.2964 30.0182C58.909 30.2928 59.9933 31.8229 59.7187 33.4352C59.444 35.0478 57.914 36.1321 56.3017 35.8574C54.6891 35.5825 53.6048 34.0527 53.8794 32.4401C54.1544 30.8279 55.6841 29.7432 57.2964 30.0182Z" fill="white"/>
<path d="M57.248 24.038C58.6873 24.283 59.6552 25.6484 59.4098 27.0876C59.1646 28.5269 57.7991 29.4948 56.3599 29.2495C54.921 29.0042 53.9531 27.6388 54.1981 26.1995C54.4434 24.7606 55.8088 23.7927 57.248 24.038Z" fill="white"/>
<path d="M19.2953 37.4082L19.2329 37.7749C19.1383 38.3279 19.257 38.8963 19.5653 39.3652C19.8736 39.8341 20.3484 40.1684 20.8936 40.3006L38.8092 44.9437L33.3426 54.4171C33.1823 54.7127 33.186 55.0704 33.3518 55.363C33.518 55.6555 33.8229 55.8421 34.159 55.8563H45.1612C45.5084 55.8554 45.829 55.6698 46.003 55.3692C46.1769 55.0683 46.1778 54.6979 46.0055 54.3964L40.684 45.1721L57.721 46.9919V46.9922C58.2789 47.0472 58.8371 46.8888 59.2829 46.5483C59.7287 46.2079 60.0286 45.7111 60.1222 45.1585L60.1846 44.7918L19.2953 37.4082Z" fill="white"/>
</svg>
