<svg width="408" height="246" viewBox="0 0 408 246" fill="none" xmlns="http://www.w3.org/2000/svg">
<g filter="url(#filter0_d_290_3632)">
<rect x="3.5" y="2" width="401" height="336.004" rx="12.2183" fill="white"/>
<path d="M19.6422 33.594V32.2152H21.2195C21.6165 32.2152 21.9681 32.156 22.2746 32.0376C22.5879 31.9123 22.8526 31.7382 23.0684 31.5153C23.2843 31.2925 23.448 31.0313 23.5594 30.7319C23.6778 30.4255 23.737 30.0877 23.737 29.7187C23.737 29.3357 23.6778 28.9944 23.5594 28.695C23.448 28.3886 23.2843 28.1274 23.0684 27.9116C22.8526 27.6957 22.5879 27.532 22.2746 27.4206C21.9681 27.3092 21.6165 27.2535 21.2195 27.2535H19.6422V25.8746H21.1255C21.8149 25.8746 22.4173 25.9756 22.9326 26.1776C23.448 26.3795 23.8762 26.6581 24.2175 27.0132C24.5587 27.3614 24.8129 27.7618 24.98 28.2145C25.1541 28.6602 25.2411 29.1233 25.2411 29.6038V29.8336C25.2411 30.2932 25.1541 30.7458 24.98 31.1915C24.8129 31.6372 24.5587 32.0411 24.2175 32.4032C23.8762 32.7653 23.448 33.0543 22.9326 33.2702C22.4173 33.4861 21.8149 33.594 21.1255 33.594H19.6422ZM18.3679 33.594V25.8746H19.8511V33.594H18.3679ZM28.9928 33.7507C28.5053 33.7507 28.077 33.6671 27.708 33.5C27.3458 33.3329 27.0429 33.11 26.7992 32.8315C26.5624 32.546 26.3814 32.2291 26.256 31.8809C26.1376 31.5327 26.0784 31.1776 26.0784 30.8155V30.617C26.0784 30.2409 26.1376 29.8788 26.256 29.5306C26.3814 29.1755 26.5624 28.8621 26.7992 28.5905C27.0429 28.312 27.3424 28.0926 27.6975 27.9324C28.0527 27.7653 28.4635 27.6817 28.9301 27.6817C29.5429 27.6817 30.0548 27.8175 30.4656 28.0891C30.8835 28.3538 31.1968 28.7054 31.4058 29.1441C31.6147 29.5759 31.7191 30.0425 31.7191 30.5439V31.0662H26.6947V30.1783H30.8103L30.3612 30.617C30.3612 30.2549 30.309 29.945 30.2045 29.6873C30.1 29.4297 29.9399 29.2312 29.724 29.0919C29.5151 28.9526 29.2505 28.883 28.9301 28.883C28.6098 28.883 28.3382 28.9561 28.1153 29.1024C27.8925 29.2486 27.7219 29.461 27.6035 29.7396C27.4921 30.0111 27.4364 30.3384 27.4364 30.7215C27.4364 31.0766 27.4921 31.3935 27.6035 31.672C27.7149 31.9436 27.8855 32.1595 28.1153 32.3196C28.3452 32.4729 28.6376 32.5495 28.9928 32.5495C29.3479 32.5495 29.6369 32.4798 29.8598 32.3405C30.0826 32.1943 30.2254 32.0167 30.2881 31.8078H31.6251C31.5415 32.1978 31.3814 32.539 31.1446 32.8315C30.9078 33.124 30.6049 33.3503 30.2358 33.5105C29.8737 33.6706 29.4594 33.7507 28.9928 33.7507ZM32.9321 35.6414V27.8802H34.0811V30.3245L33.9035 30.3141C33.9314 29.7361 34.0497 29.2521 34.2587 28.8621C34.4745 28.4721 34.7601 28.1831 35.1152 27.9951C35.4704 27.8001 35.8673 27.7026 36.306 27.7026C36.7099 27.7026 37.072 27.7758 37.3924 27.922C37.7197 28.0682 37.9982 28.2737 38.228 28.5383C38.4648 28.8029 38.6459 29.1128 38.7712 29.468C38.8966 29.8162 38.9592 30.1922 38.9592 30.5961V30.8155C38.9592 31.2263 38.8966 31.6093 38.7712 31.9645C38.6528 32.3127 38.4753 32.6226 38.2385 32.8942C38.0087 33.1588 37.7301 33.3677 37.4028 33.5209C37.0755 33.6671 36.7099 33.7403 36.306 33.7403C35.8812 33.7403 35.4913 33.6532 35.1361 33.4791C34.7879 33.2981 34.5059 33.023 34.29 32.6539C34.0741 32.2779 33.9523 31.7939 33.9244 31.202L34.384 31.9018V35.6414H32.9321ZM35.9404 32.5181C36.2538 32.5181 36.5254 32.4415 36.7552 32.2883C36.992 32.1351 37.1765 31.9227 37.3088 31.6511C37.4411 31.3726 37.5073 31.0592 37.5073 30.711C37.5073 30.3489 37.4411 30.0355 37.3088 29.7709C37.1765 29.5063 36.992 29.3008 36.7552 29.1546C36.5254 29.0014 36.2538 28.9248 35.9404 28.9248C35.6549 28.9248 35.3903 28.9875 35.1465 29.1128C34.9098 29.2382 34.7148 29.4227 34.5616 29.6664C34.4153 29.9102 34.3422 30.2026 34.3422 30.5439V30.9617C34.3422 31.289 34.4188 31.5676 34.572 31.7974C34.7252 32.0272 34.9237 32.2047 35.1674 32.3301C35.4112 32.4554 35.6688 32.5181 35.9404 32.5181ZM42.9622 33.7507C42.4608 33.7507 42.0186 33.6706 41.6356 33.5105C41.2526 33.3503 40.9288 33.1344 40.6642 32.8628C40.3996 32.5843 40.1976 32.2709 40.0583 31.9227C39.926 31.5745 39.8599 31.2124 39.8599 30.8364V30.617C39.8599 30.227 39.9295 29.8579 40.0688 29.5097C40.215 29.1546 40.4204 28.8412 40.6851 28.5696C40.9567 28.2911 41.284 28.0752 41.667 27.922C42.05 27.7618 42.4817 27.6817 42.9622 27.6817C43.4427 27.6817 43.8745 27.7618 44.2575 27.922C44.6405 28.0752 44.9643 28.2911 45.229 28.5696C45.5006 28.8412 45.706 29.1546 45.8453 29.5097C45.9845 29.8579 46.0542 30.227 46.0542 30.617V30.8364C46.0542 31.2124 45.9845 31.5745 45.8453 31.9227C45.7129 32.2709 45.5145 32.5843 45.2499 32.8628C44.9852 33.1344 44.6614 33.3503 44.2784 33.5105C43.8954 33.6706 43.4567 33.7507 42.9622 33.7507ZM42.9622 32.5077C43.3174 32.5077 43.6168 32.4311 43.8606 32.2779C44.1043 32.1177 44.2888 31.9053 44.4142 31.6407C44.5395 31.3691 44.6022 31.0627 44.6022 30.7215C44.6022 30.3733 44.5361 30.0669 44.4038 29.8022C44.2784 29.5306 44.0904 29.3182 43.8397 29.165C43.5959 29.0049 43.3035 28.9248 42.9622 28.9248C42.621 28.9248 42.3251 29.0049 42.0744 29.165C41.8306 29.3182 41.6426 29.5306 41.5103 29.8022C41.378 30.0669 41.3118 30.3733 41.3118 30.7215C41.3118 31.0627 41.3745 31.3691 41.4998 31.6407C41.6322 31.9053 41.8202 32.1177 42.0639 32.2779C42.3076 32.4311 42.6071 32.5077 42.9622 32.5077ZM49.3833 33.7298C48.6034 33.7298 47.9906 33.5662 47.5449 33.2389C47.1062 32.9046 46.8764 32.445 46.8555 31.86H48.1612C48.1821 32.055 48.29 32.2326 48.485 32.3928C48.68 32.5529 48.9864 32.633 49.4042 32.633C49.7524 32.633 50.0275 32.5703 50.2295 32.445C50.4384 32.3196 50.5428 32.149 50.5428 31.9332C50.5428 31.7451 50.4627 31.5954 50.3026 31.484C50.1494 31.3726 49.8847 31.2995 49.5087 31.2646L49.0073 31.2124C48.3736 31.1428 47.8861 30.9617 47.5449 30.6692C47.2037 30.3767 47.0331 29.9868 47.0331 29.4993C47.0331 29.1093 47.1306 28.782 47.3255 28.5174C47.5205 28.2528 47.7886 28.0543 48.1299 27.922C48.478 27.7827 48.875 27.7131 49.3207 27.7131C50.0171 27.7131 50.5811 27.8663 51.0129 28.1727C51.4446 28.4791 51.671 28.9283 51.6919 29.5202H50.3861C50.3722 29.3252 50.2747 29.1581 50.0937 29.0188C49.9126 28.8795 49.6515 28.8099 49.3102 28.8099C49.0038 28.8099 48.767 28.8691 48.5999 28.9875C48.4328 29.1058 48.3492 29.2591 48.3492 29.4471C48.3492 29.6281 48.4154 29.7674 48.5477 29.8649C48.687 29.9624 48.9098 30.0286 49.2162 30.0634L49.7176 30.1156C50.3861 30.1852 50.9084 30.3698 51.2845 30.6692C51.6675 30.9687 51.859 31.3726 51.859 31.8809C51.859 32.257 51.7545 32.5843 51.5456 32.8628C51.3437 33.1344 51.0581 33.3468 50.6891 33.5C50.32 33.6532 49.8847 33.7298 49.3833 33.7298ZM53.33 33.5522V27.8802H54.782V33.5522H53.33ZM52.5362 28.9666V27.8802H54.782V28.9666H52.5362ZM53.8628 27.2012C53.5773 27.2012 53.3649 27.1281 53.2256 26.9819C53.0933 26.8287 53.0271 26.6407 53.0271 26.4178C53.0271 26.181 53.0933 25.9895 53.2256 25.8433C53.3649 25.6971 53.5773 25.6239 53.8628 25.6239C54.1483 25.6239 54.3572 25.6971 54.4895 25.8433C54.6218 25.9895 54.688 26.181 54.688 26.4178C54.688 26.6407 54.6218 26.8287 54.4895 26.9819C54.3572 27.1281 54.1483 27.2012 53.8628 27.2012ZM58.9205 33.6254C58.3983 33.6254 57.9665 33.5592 57.6253 33.4269C57.291 33.2876 57.0403 33.0578 56.8732 32.7375C56.706 32.4102 56.6225 31.9715 56.6225 31.4213L56.6329 26.282H57.9909L57.9804 31.5153C57.9804 31.7939 58.0535 32.0098 58.1998 32.163C58.353 32.3092 58.5689 32.3823 58.8474 32.3823H59.7353V33.6254H58.9205ZM55.7241 28.9457V27.8802H59.7353V28.9457H55.7241ZM64.8274 33.5522V27.0237H66.3107V33.5522H64.8274ZM62.6234 27.2326V25.9269H68.5148V27.2326H62.6234ZM71.6064 33.7507C71.105 33.7507 70.6628 33.6706 70.2798 33.5105C69.8968 33.3503 69.573 33.1344 69.3083 32.8628C69.0437 32.5843 68.8418 32.2709 68.7025 31.9227C68.5702 31.5745 68.504 31.2124 68.504 30.8364V30.617C68.504 30.227 68.5736 29.8579 68.7129 29.5097C68.8592 29.1546 69.0646 28.8412 69.3292 28.5696C69.6008 28.2911 69.9281 28.0752 70.3111 27.922C70.6941 27.7618 71.1259 27.6817 71.6064 27.6817C72.0869 27.6817 72.5187 27.7618 72.9017 27.922C73.2847 28.0752 73.6085 28.2911 73.8731 28.5696C74.1447 28.8412 74.3501 29.1546 74.4894 29.5097C74.6287 29.8579 74.6983 30.227 74.6983 30.617V30.8364C74.6983 31.2124 74.6287 31.5745 74.4894 31.9227C74.3571 32.2709 74.1586 32.5843 73.894 32.8628C73.6294 33.1344 73.3056 33.3503 72.9226 33.5105C72.5395 33.6706 72.1008 33.7507 71.6064 33.7507ZM71.6064 32.5077C71.9615 32.5077 72.261 32.4311 72.5047 32.2779C72.7485 32.1177 72.933 31.9053 73.0583 31.6407C73.1837 31.3691 73.2464 31.0627 73.2464 30.7215C73.2464 30.3733 73.1802 30.0669 73.0479 29.8022C72.9226 29.5306 72.7345 29.3182 72.4838 29.165C72.2401 29.0049 71.9476 28.9248 71.6064 28.9248C71.2652 28.9248 70.9692 29.0049 70.7185 29.165C70.4748 29.3182 70.2867 29.5306 70.1544 29.8022C70.0221 30.0669 69.956 30.3733 69.956 30.7215C69.956 31.0627 70.0186 31.3691 70.144 31.6407C70.2763 31.9053 70.4643 32.1177 70.7081 32.2779C70.9518 32.4311 71.2512 32.5077 71.6064 32.5077ZM79.9391 33.5522L78.0379 30.899H77.1918L79.6048 27.8802H81.1194L78.8945 30.6692L78.9258 29.938L81.579 33.5522H79.9391ZM75.9697 33.5522V25.9269H77.4216V33.5522H75.9697ZM84.7714 33.7507C84.2839 33.7507 83.8556 33.6671 83.4865 33.5C83.1244 33.3329 82.8215 33.11 82.5778 32.8315C82.341 32.546 82.1599 32.2291 82.0346 31.8809C81.9162 31.5327 81.857 31.1776 81.857 30.8155V30.617C81.857 30.2409 81.9162 29.8788 82.0346 29.5306C82.1599 29.1755 82.341 28.8621 82.5778 28.5905C82.8215 28.312 83.1209 28.0926 83.4761 27.9324C83.8312 27.7653 84.2421 27.6817 84.7087 27.6817C85.3215 27.6817 85.8333 27.8175 86.2442 28.0891C86.662 28.3538 86.9754 28.7054 87.1843 29.1441C87.3932 29.5759 87.4977 30.0425 87.4977 30.5439V31.0662H82.4733V30.1783H86.5889L86.1397 30.617C86.1397 30.2549 86.0875 29.945 85.9831 29.6873C85.8786 29.4297 85.7184 29.2312 85.5026 29.0919C85.2936 28.9526 85.029 28.883 84.7087 28.883C84.3883 28.883 84.1168 28.9561 83.8939 29.1024C83.6711 29.2486 83.5005 29.461 83.3821 29.7396C83.2707 30.0111 83.2149 30.3384 83.2149 30.7215C83.2149 31.0766 83.2707 31.3935 83.3821 31.672C83.4935 31.9436 83.6641 32.1595 83.8939 32.3196C84.1237 32.4729 84.4162 32.5495 84.7714 32.5495C85.1265 32.5495 85.4155 32.4798 85.6384 32.3405C85.8612 32.1943 86.004 32.0167 86.0666 31.8078H87.4037C87.3201 32.1978 87.1599 32.539 86.9232 32.8315C86.6864 33.124 86.3835 33.3503 86.0144 33.5105C85.6523 33.6706 85.2379 33.7507 84.7714 33.7507ZM88.7106 33.5522V27.8802H89.8596V30.3141H89.7552C89.7552 29.7361 89.8318 29.2556 89.985 28.8726C90.1382 28.4826 90.3645 28.1901 90.664 27.9951C90.9704 27.8001 91.3499 27.7026 91.8026 27.7026H91.8652C92.5407 27.7026 93.0526 27.922 93.4008 28.3607C93.7489 28.7925 93.923 29.4401 93.923 30.3036V33.5522H92.4711V30.1783C92.4711 29.8301 92.3701 29.548 92.1682 29.3322C91.9732 29.1163 91.7016 29.0084 91.3534 29.0084C90.9982 29.0084 90.7092 29.1198 90.4864 29.3426C90.2705 29.5585 90.1626 29.851 90.1626 30.2201V33.5522H88.7106ZM97.5418 33.7298C96.7619 33.7298 96.1491 33.5662 95.7034 33.2389C95.2647 32.9046 95.0349 32.445 95.014 31.86H96.3197C96.3406 32.055 96.4485 32.2326 96.6435 32.3928C96.8385 32.5529 97.1449 32.633 97.5627 32.633C97.9109 32.633 98.186 32.5703 98.3879 32.445C98.5969 32.3196 98.7013 32.149 98.7013 31.9332C98.7013 31.7451 98.6212 31.5954 98.4611 31.484C98.3079 31.3726 98.0432 31.2995 97.6672 31.2646L97.1658 31.2124C96.5321 31.1428 96.0446 30.9617 95.7034 30.6692C95.3622 30.3767 95.1915 29.9868 95.1915 29.4993C95.1915 29.1093 95.289 28.782 95.484 28.5174C95.679 28.2528 95.9471 28.0543 96.2883 27.922C96.6365 27.7827 97.0335 27.7131 97.4792 27.7131C98.1755 27.7131 98.7396 27.8663 99.1714 28.1727C99.6031 28.4791 99.8295 28.9283 99.8503 29.5202H98.5446C98.5307 29.3252 98.4332 29.1581 98.2521 29.0188C98.0711 28.8795 97.8099 28.8099 97.4687 28.8099C97.1623 28.8099 96.9255 28.8691 96.7584 28.9875C96.5913 29.1058 96.5077 29.2591 96.5077 29.4471C96.5077 29.6281 96.5739 29.7674 96.7062 29.8649C96.8455 29.9624 97.0683 30.0286 97.3747 30.0634L97.8761 30.1156C98.5446 30.1852 99.0669 30.3698 99.443 30.6692C99.826 30.9687 100.017 31.3726 100.017 31.8809C100.017 32.257 99.913 32.5843 99.7041 32.8628C99.5022 33.1344 99.2166 33.3468 98.8476 33.5C98.4785 33.6532 98.0432 33.7298 97.5418 33.7298Z" fill="#1E293B"/>
<path d="M18.6859 67.1045L21.1279 60.3264H22.6692L25.1855 67.1045H24.2477L21.9729 60.9206L22.4185 61.1435H21.3229L21.7964 60.9206L19.5959 67.1045H18.6859ZM20.1437 65.0803L20.4501 64.2633H23.3749L23.6813 65.0803H20.1437ZM26.2984 67.1045V62.1463H27.0041V64.2725H26.8926C26.8926 63.7897 26.9545 63.3812 27.0784 63.0469C27.2083 62.7065 27.4002 62.4465 27.654 62.267C27.9078 62.0874 28.2297 61.9977 28.6197 61.9977H28.6568C29.0468 61.9977 29.3687 62.0874 29.6225 62.267C29.8824 62.4465 30.0743 62.7065 30.1981 63.0469C30.3219 63.3812 30.3838 63.7897 30.3838 64.2725H30.1239C30.1239 63.7897 30.1889 63.3812 30.3188 63.0469C30.4488 62.7065 30.6407 62.4465 30.8945 62.267C31.1545 62.0874 31.4795 61.9977 31.8695 61.9977H31.9066C32.2966 61.9977 32.6216 62.0874 32.8815 62.267C33.1415 62.4465 33.3334 62.7065 33.4572 63.0469C33.5872 63.3812 33.6522 63.7897 33.6522 64.2725V67.1045H32.7608V64.0776C32.7608 63.6752 32.6618 63.3657 32.4637 63.149C32.2656 62.9262 31.9902 62.8148 31.6373 62.8148C31.2721 62.8148 30.9781 62.9324 30.7552 63.1676C30.5324 63.3966 30.421 63.7185 30.421 64.1333V67.1045H29.5296V64.0776C29.5296 63.6752 29.4306 63.3657 29.2325 63.149C29.0344 62.9262 28.759 62.8148 28.4061 62.8148C28.0409 62.8148 27.7469 62.9324 27.524 63.1676C27.3012 63.3966 27.1898 63.7185 27.1898 64.1333V67.1045H26.2984ZM37.5684 67.2716C37.1351 67.2716 36.7544 67.1973 36.4263 67.0488C36.0983 66.9002 35.8197 66.7052 35.5907 66.4638C35.3678 66.2162 35.1976 65.9408 35.08 65.6374C34.9686 65.3341 34.9129 65.0246 34.9129 64.7089V64.5418C34.9129 64.2261 34.9717 63.9166 35.0893 63.6133C35.2069 63.3038 35.3802 63.0283 35.6092 62.7869C35.8383 62.5393 36.1168 62.3443 36.4449 62.202C36.773 62.0534 37.1475 61.9791 37.5684 61.9791C37.9893 61.9791 38.3638 62.0534 38.6919 62.202C39.02 62.3443 39.2985 62.5393 39.5276 62.7869C39.7566 63.0283 39.9299 63.3038 40.0475 63.6133C40.1651 63.9166 40.2239 64.2261 40.2239 64.5418V64.7089C40.2239 65.0246 40.1651 65.3341 40.0475 65.6374C39.9361 65.9408 39.7659 66.2162 39.5368 66.4638C39.314 66.7052 39.0385 66.9002 38.7105 67.0488C38.3824 67.1973 38.0017 67.2716 37.5684 67.2716ZM37.5684 66.4731C37.9398 66.4731 38.2555 66.3926 38.5155 66.2317C38.7817 66.0646 38.9828 65.8417 39.119 65.5632C39.2614 65.2846 39.3326 64.972 39.3326 64.6254C39.3326 64.2725 39.2614 63.9568 39.119 63.6783C38.9766 63.3997 38.7724 63.18 38.5062 63.0191C38.2462 62.8581 37.9336 62.7776 37.5684 62.7776C37.2094 62.7776 36.8968 62.8581 36.6306 63.0191C36.3644 63.18 36.1602 63.3997 36.0178 63.6783C35.8754 63.9568 35.8042 64.2725 35.8042 64.6254C35.8042 64.972 35.8723 65.2846 36.0085 65.5632C36.1509 65.8417 36.3521 66.0646 36.612 66.2317C36.8782 66.3926 37.197 66.4731 37.5684 66.4731ZM43.2767 67.2531C42.6886 67.2531 42.2368 67.0612 41.9211 66.6774C41.6054 66.2936 41.4475 65.7396 41.4475 65.0153V62.137H42.3389V65.1918C42.3389 65.5817 42.4441 65.8881 42.6546 66.111C42.8651 66.3276 43.1498 66.436 43.5088 66.436C43.8802 66.436 44.1835 66.3184 44.4188 66.0831C44.654 65.8417 44.7716 65.5136 44.7716 65.0989V62.137H45.663V67.1045H44.9573V64.9782H45.0687C45.0687 65.4672 45.0037 65.882 44.8737 66.2224C44.7437 66.5567 44.5488 66.8136 44.2888 66.9931C44.035 67.1664 43.71 67.2531 43.3138 67.2531H43.2767ZM47.3893 67.1045V62.1463H48.095V64.2725H47.9836C47.9836 63.7835 48.0486 63.3719 48.1786 63.0376C48.3148 62.6972 48.519 62.4403 48.7914 62.267C49.0638 62.0874 49.4073 61.9977 49.822 61.9977H49.8592C50.4844 61.9977 50.9455 62.1927 51.2427 62.5827C51.546 62.9726 51.6976 63.5359 51.6976 64.2725V67.1045H50.8063V64.0868C50.8063 63.7031 50.6979 63.3966 50.4813 63.1676C50.2646 62.9324 49.9675 62.8148 49.5899 62.8148C49.1999 62.8148 48.8842 62.9355 48.6428 63.1769C48.4014 63.4183 48.2807 63.7402 48.2807 64.1425V67.1045H47.3893ZM55.2598 67.1602C54.8884 67.1602 54.5666 67.1076 54.2942 67.0024C54.028 66.8971 53.8207 66.7176 53.6721 66.4638C53.5297 66.2038 53.4585 65.8541 53.4585 65.4146V60.6421H54.3128V65.526C54.3128 65.7922 54.3839 65.9996 54.5263 66.1481C54.6749 66.2905 54.8822 66.3617 55.1484 66.3617H56.0212V67.1602H55.2598ZM52.6043 62.8148V62.1463H56.0212V62.8148H52.6043Z" fill="#707E85"/>
<path d="M309.322 67.1416V66.3431H311.217C311.582 66.3431 311.863 66.241 312.062 66.0367C312.266 65.8262 312.368 65.5477 312.368 65.201C312.368 64.8482 312.269 64.5728 312.071 64.3747C311.873 64.1704 311.588 64.0683 311.217 64.0683H309.322V63.474H311.087C311.52 63.474 311.901 63.5266 312.229 63.6319C312.563 63.7371 312.823 63.9135 313.009 64.1611C313.2 64.4025 313.296 64.7337 313.296 65.1546V65.2846C313.296 65.6808 313.216 66.0181 313.055 66.2967C312.894 66.5691 312.65 66.7795 312.321 66.9281C311.993 67.0704 311.582 67.1416 311.087 67.1416H309.322ZM308.598 67.1416V60.2892H309.508V67.1416H308.598ZM309.322 63.9011V63.3069H310.966C311.35 63.3069 311.631 63.2048 311.811 63.0005C311.997 62.79 312.089 62.5238 312.089 62.202C312.089 61.8739 311.997 61.6077 311.811 61.4034C311.631 61.193 311.35 61.0878 310.966 61.0878H309.322V60.2892H310.808C311.551 60.2892 312.105 60.4471 312.47 60.7628C312.835 61.0723 313.018 61.5211 313.018 62.1091V62.2391C313.018 62.6538 312.925 62.985 312.739 63.2326C312.554 63.474 312.294 63.6473 311.959 63.7526C311.631 63.8516 311.248 63.9011 310.808 63.9011H309.322ZM317.778 67.1045V65.6189H317.63V63.9011C317.63 63.5607 317.54 63.3038 317.36 63.1305C317.187 62.9572 316.93 62.8705 316.59 62.8705C316.398 62.8705 316.2 62.8736 315.995 62.8798C315.791 62.886 315.596 62.8922 315.411 62.8983C315.225 62.9045 315.064 62.9138 314.928 62.9262V62.1463C315.064 62.1339 315.206 62.1246 315.355 62.1184C315.51 62.106 315.667 62.0998 315.828 62.0998C315.989 62.0936 316.144 62.0905 316.293 62.0905C316.8 62.0905 317.215 62.1524 317.537 62.2762C317.859 62.3939 318.097 62.5888 318.252 62.8612C318.407 63.1336 318.484 63.5019 318.484 63.9661V67.1045H317.778ZM316.153 67.2345C315.782 67.2345 315.46 67.1726 315.188 67.0488C314.922 66.9188 314.714 66.7331 314.566 66.4917C314.423 66.2503 314.352 65.9593 314.352 65.6189C314.352 65.266 314.429 64.972 314.584 64.7368C314.745 64.5016 314.977 64.3252 315.281 64.2075C315.584 64.0837 315.949 64.0218 316.376 64.0218H317.723V64.6904H316.339C315.98 64.6904 315.705 64.777 315.513 64.9504C315.321 65.1237 315.225 65.3465 315.225 65.6189C315.225 65.8912 315.321 66.111 315.513 66.2781C315.705 66.4453 315.98 66.5288 316.339 66.5288C316.549 66.5288 316.751 66.4917 316.943 66.4174C317.134 66.3369 317.292 66.2069 317.416 66.0274C317.546 65.8417 317.617 65.5879 317.63 65.266L317.871 65.6189C317.84 65.9717 317.753 66.2688 317.611 66.5102C317.475 66.7455 317.283 66.925 317.035 67.0488C316.794 67.1726 316.5 67.2345 316.153 67.2345ZM320.176 67.1045V60.3264H321.067V67.1045H320.176ZM319.488 61.032V60.3264H321.067V61.032H319.488ZM325.776 67.1045V65.6189H325.627V63.9011C325.627 63.5607 325.537 63.3038 325.358 63.1305C325.185 62.9572 324.928 62.8705 324.587 62.8705C324.395 62.8705 324.197 62.8736 323.993 62.8798C323.789 62.886 323.594 62.8922 323.408 62.8983C323.222 62.9045 323.061 62.9138 322.925 62.9262V62.1463C323.061 62.1339 323.204 62.1246 323.352 62.1184C323.507 62.106 323.665 62.0998 323.826 62.0998C323.987 62.0936 324.142 62.0905 324.29 62.0905C324.798 62.0905 325.212 62.1524 325.534 62.2762C325.856 62.3939 326.095 62.5888 326.249 62.8612C326.404 63.1336 326.481 63.5019 326.481 63.9661V67.1045H325.776ZM324.151 67.2345C323.779 67.2345 323.458 67.1726 323.185 67.0488C322.919 66.9188 322.712 66.7331 322.563 66.4917C322.421 66.2503 322.35 65.9593 322.35 65.6189C322.35 65.266 322.427 64.972 322.582 64.7368C322.743 64.5016 322.975 64.3252 323.278 64.2075C323.581 64.0837 323.947 64.0218 324.374 64.0218H325.72V64.6904H324.337C323.978 64.6904 323.702 64.777 323.51 64.9504C323.318 65.1237 323.222 65.3465 323.222 65.6189C323.222 65.8912 323.318 66.111 323.51 66.2781C323.702 66.4453 323.978 66.5288 324.337 66.5288C324.547 66.5288 324.748 66.4917 324.94 66.4174C325.132 66.3369 325.29 66.2069 325.414 66.0274C325.544 65.8417 325.615 65.5879 325.627 65.266L325.869 65.6189C325.838 65.9717 325.751 66.2688 325.609 66.5102C325.472 66.7455 325.281 66.925 325.033 67.0488C324.792 67.1726 324.497 67.2345 324.151 67.2345ZM328.117 67.1045V62.1463H328.823V64.2725H328.712C328.712 63.7835 328.777 63.3719 328.907 63.0376C329.043 62.6972 329.247 62.4403 329.519 62.267C329.792 62.0874 330.135 61.9977 330.55 61.9977H330.587C331.212 61.9977 331.674 62.1927 331.971 62.5827C332.274 62.9726 332.426 63.5359 332.426 64.2725V67.1045H331.534V64.0868C331.534 63.7031 331.426 63.3966 331.209 63.1676C330.993 62.9324 330.696 62.8148 330.318 62.8148C329.928 62.8148 329.612 62.9355 329.371 63.1769C329.129 63.4183 329.009 63.7402 329.009 64.1425V67.1045H328.117ZM336.183 67.2716C335.756 67.2716 335.384 67.1973 335.069 67.0488C334.759 66.9002 334.502 66.7021 334.298 66.4545C334.094 66.2007 333.939 65.9222 333.834 65.6189C333.735 65.3156 333.685 65.0123 333.685 64.7089V64.5418C333.685 64.2261 333.735 63.9166 333.834 63.6133C333.939 63.31 334.094 63.0376 334.298 62.7962C334.508 62.5486 334.768 62.3505 335.078 62.202C335.387 62.0534 335.75 61.9791 336.164 61.9791C336.579 61.9791 336.95 62.0565 337.279 62.2112C337.613 62.366 337.879 62.5857 338.077 62.8705C338.281 63.149 338.396 63.4802 338.421 63.864H337.566C337.523 63.5545 337.381 63.2976 337.139 63.0933C336.898 62.8829 336.573 62.7776 336.164 62.7776C335.811 62.7776 335.517 62.8581 335.282 63.0191C335.047 63.18 334.871 63.3997 334.753 63.6783C334.635 63.9568 334.577 64.2725 334.577 64.6254C334.577 64.9658 334.635 65.2784 334.753 65.5632C334.871 65.8417 335.047 66.0646 335.282 66.2317C335.524 66.3926 335.824 66.4731 336.183 66.4731C336.461 66.4731 336.703 66.4236 336.907 66.3245C337.111 66.2255 337.275 66.0924 337.399 65.9253C337.523 65.7582 337.597 65.5694 337.622 65.3589H338.476C338.458 65.7489 338.343 66.0862 338.133 66.371C337.928 66.6557 337.656 66.8786 337.316 67.0395C336.981 67.1942 336.604 67.2716 336.183 67.2716ZM341.795 67.2716C341.362 67.2716 340.987 67.1973 340.672 67.0488C340.356 66.9002 340.099 66.7052 339.901 66.4638C339.703 66.2162 339.554 65.9408 339.455 65.6374C339.363 65.3341 339.316 65.0246 339.316 64.7089V64.5418C339.316 64.2199 339.363 63.9073 339.455 63.604C339.554 63.3007 339.703 63.0283 339.901 62.7869C340.099 62.5393 340.35 62.3443 340.653 62.202C340.963 62.0534 341.325 61.9791 341.739 61.9791C342.278 61.9791 342.721 62.0967 343.067 62.332C343.42 62.561 343.68 62.8581 343.847 63.2233C344.021 63.5885 344.107 63.9785 344.107 64.3932V64.7925H339.706V64.124H343.457L343.253 64.4861C343.253 64.1333 343.197 63.8299 343.086 63.5762C342.974 63.3162 342.807 63.115 342.584 62.9726C342.362 62.8303 342.08 62.7591 341.739 62.7591C341.387 62.7591 341.093 62.8395 340.857 63.0005C340.628 63.1614 340.455 63.3812 340.337 63.6597C340.226 63.9383 340.17 64.2602 340.17 64.6254C340.17 64.9782 340.226 65.297 340.337 65.5817C340.455 65.8603 340.635 66.0831 340.876 66.2503C341.117 66.4112 341.424 66.4917 341.795 66.4917C342.185 66.4917 342.501 66.405 342.742 66.2317C342.99 66.0584 343.138 65.8572 343.188 65.6282H344.024C343.956 65.9686 343.819 66.2626 343.615 66.5102C343.411 66.7578 343.154 66.9466 342.844 67.0766C342.535 67.2066 342.185 67.2716 341.795 67.2716ZM345.196 67.1045V65.9717H346.273V67.1045H345.196ZM345.196 63.669V62.5362H346.273V63.669H345.196ZM349.767 67.1045V65.9903C349.767 65.7179 349.804 65.4858 349.878 65.2939C349.959 65.102 350.095 64.9287 350.287 64.7739C350.479 64.613 350.739 64.4582 351.067 64.3097L352.339 63.7247C352.649 63.5823 352.893 63.3997 353.073 63.1769C353.252 62.9479 353.342 62.6538 353.342 62.2948C353.342 61.8615 353.221 61.5242 352.98 61.2827C352.738 61.0413 352.398 60.9206 351.958 60.9206C351.525 60.9206 351.185 61.0413 350.937 61.2827C350.689 61.5242 350.566 61.8615 350.566 62.2948H349.693C349.693 61.9048 349.773 61.5458 349.934 61.2177C350.101 60.8897 350.352 60.6297 350.686 60.4378C351.021 60.2397 351.445 60.1407 351.958 60.1407C352.472 60.1407 352.893 60.2397 353.221 60.4378C353.555 60.6297 353.803 60.8835 353.964 61.1992C354.131 61.5149 354.215 61.8584 354.215 62.2298V62.3598C354.215 62.8488 354.072 63.2605 353.787 63.5947C353.509 63.929 353.131 64.2044 352.655 64.4211L351.383 65.0061C351.098 65.1361 350.906 65.266 350.807 65.396C350.708 65.526 350.658 65.6993 350.658 65.916V66.7702L350.417 66.3431H354.298V67.1045H349.767ZM355.507 67.1045V65.9903C355.507 65.7179 355.544 65.4858 355.618 65.2939C355.699 65.102 355.835 64.9287 356.027 64.7739C356.219 64.613 356.479 64.4582 356.807 64.3097L358.079 63.7247C358.388 63.5823 358.633 63.3997 358.812 63.1769C358.992 62.9479 359.082 62.6538 359.082 62.2948C359.082 61.8615 358.961 61.5242 358.719 61.2827C358.478 61.0413 358.138 60.9206 357.698 60.9206C357.265 60.9206 356.924 61.0413 356.677 61.2827C356.429 61.5242 356.305 61.8615 356.305 62.2948H355.432C355.432 61.9048 355.513 61.5458 355.674 61.2177C355.841 60.8897 356.092 60.6297 356.426 60.4378C356.76 60.2397 357.184 60.1407 357.698 60.1407C358.212 60.1407 358.633 60.2397 358.961 60.4378C359.295 60.6297 359.543 60.8835 359.704 61.1992C359.871 61.5149 359.954 61.8584 359.954 62.2298V62.3598C359.954 62.8488 359.812 63.2605 359.527 63.5947C359.249 63.929 358.871 64.2044 358.394 64.4211L357.122 65.0061C356.838 65.1361 356.646 65.266 356.547 65.396C356.448 65.526 356.398 65.6993 356.398 65.916V66.7702L356.157 66.3431H360.038V67.1045H355.507ZM363.995 67.2716C363.487 67.2716 363.054 67.185 362.695 67.0116C362.342 66.8321 362.054 66.5907 361.831 66.2874C361.615 65.9841 361.457 65.6344 361.358 65.2382C361.259 64.8358 361.209 64.4118 361.209 63.9661V63.4647C361.209 62.8395 361.305 62.2762 361.497 61.7748C361.695 61.2735 361.999 60.8773 362.407 60.5864C362.822 60.2892 363.351 60.1407 363.995 60.1407C364.639 60.1407 365.165 60.2892 365.573 60.5864C365.982 60.8773 366.282 61.2735 366.474 61.7748C366.672 62.2762 366.771 62.8395 366.771 63.4647V63.9661C366.771 64.4118 366.722 64.8358 366.623 65.2382C366.523 65.6344 366.363 65.9841 366.14 66.2874C365.923 66.5907 365.638 66.8321 365.285 67.0116C364.933 67.185 364.502 67.2716 363.995 67.2716ZM363.995 66.4545C364.639 66.4545 365.109 66.2379 365.406 65.8046C365.709 65.3651 365.861 64.6718 365.861 63.7247C365.861 62.7343 365.706 62.0255 365.397 61.5984C365.094 61.1713 364.626 60.9578 363.995 60.9578C363.357 60.9578 362.884 61.1713 362.574 61.5984C362.271 62.0255 362.119 62.7281 362.119 63.7061C362.119 64.6594 362.271 65.3558 362.574 65.7953C362.878 66.2348 363.351 66.4545 363.995 66.4545ZM368.398 68.5623L367.683 68.293L368.546 65.8974L369.28 66.176L368.398 68.5623ZM373.325 67.2716C372.818 67.2716 372.384 67.185 372.025 67.0116C371.673 66.8321 371.385 66.5907 371.162 66.2874C370.945 65.9841 370.787 65.6344 370.688 65.2382C370.589 64.8358 370.54 64.4118 370.54 63.9661V63.4647C370.54 62.8395 370.636 62.2762 370.828 61.7748C371.026 61.2735 371.329 60.8773 371.738 60.5864C372.152 60.2892 372.682 60.1407 373.325 60.1407C373.969 60.1407 374.495 60.2892 374.904 60.5864C375.312 60.8773 375.613 61.2735 375.804 61.7748C376.002 62.2762 376.102 62.8395 376.102 63.4647V63.9661C376.102 64.4118 376.052 64.8358 375.953 65.2382C375.854 65.6344 375.693 65.9841 375.47 66.2874C375.253 66.5907 374.969 66.8321 374.616 67.0116C374.263 67.185 373.833 67.2716 373.325 67.2716ZM373.325 66.4545C373.969 66.4545 374.439 66.2379 374.737 65.8046C375.04 65.3651 375.192 64.6718 375.192 63.7247C375.192 62.7343 375.037 62.0255 374.727 61.5984C374.424 61.1713 373.957 60.9578 373.325 60.9578C372.688 60.9578 372.214 61.1713 371.905 61.5984C371.601 62.0255 371.45 62.7281 371.45 63.7061C371.45 64.6594 371.601 65.3558 371.905 65.7953C372.208 66.2348 372.682 66.4545 373.325 66.4545ZM380.226 67.2716C379.718 67.2716 379.285 67.185 378.926 67.0116C378.573 66.8321 378.285 66.5907 378.062 66.2874C377.846 65.9841 377.688 65.6344 377.589 65.2382C377.49 64.8358 377.44 64.4118 377.44 63.9661V63.4647C377.44 62.8395 377.536 62.2762 377.728 61.7748C377.926 61.2735 378.229 60.8773 378.638 60.5864C379.053 60.2892 379.582 60.1407 380.226 60.1407C380.869 60.1407 381.396 60.2892 381.804 60.5864C382.213 60.8773 382.513 61.2735 382.705 61.7748C382.903 62.2762 383.002 62.8395 383.002 63.4647V63.9661C383.002 64.4118 382.952 64.8358 382.853 65.2382C382.754 65.6344 382.593 65.9841 382.37 66.2874C382.154 66.5907 381.869 66.8321 381.516 67.0116C381.163 67.185 380.733 67.2716 380.226 67.2716ZM380.226 66.4545C380.869 66.4545 381.34 66.2379 381.637 65.8046C381.94 65.3651 382.092 64.6718 382.092 63.7247C382.092 62.7343 381.937 62.0255 381.628 61.5984C381.324 61.1713 380.857 60.9578 380.226 60.9578C379.588 60.9578 379.115 61.1713 378.805 61.5984C378.502 62.0255 378.35 62.7281 378.35 63.7061C378.35 64.6594 378.502 65.3558 378.805 65.7953C379.108 66.2348 379.582 66.4545 380.226 66.4545ZM387.126 67.2716C386.618 67.2716 386.185 67.185 385.826 67.0116C385.473 66.8321 385.185 66.5907 384.963 66.2874C384.746 65.9841 384.588 65.6344 384.489 65.2382C384.39 64.8358 384.34 64.4118 384.34 63.9661V63.4647C384.34 62.8395 384.436 62.2762 384.628 61.7748C384.826 61.2735 385.13 60.8773 385.538 60.5864C385.953 60.2892 386.482 60.1407 387.126 60.1407C387.77 60.1407 388.296 60.2892 388.704 60.5864C389.113 60.8773 389.413 61.2735 389.605 61.7748C389.803 62.2762 389.902 62.8395 389.902 63.4647V63.9661C389.902 64.4118 389.853 64.8358 389.754 65.2382C389.655 65.6344 389.494 65.9841 389.271 66.2874C389.054 66.5907 388.769 66.8321 388.417 67.0116C388.064 67.185 387.634 67.2716 387.126 67.2716ZM387.126 66.4545C387.77 66.4545 388.24 66.2379 388.537 65.8046C388.841 65.3651 388.992 64.6718 388.992 63.7247C388.992 62.7343 388.838 62.0255 388.528 61.5984C388.225 61.1713 387.757 60.9578 387.126 60.9578C386.488 60.9578 386.015 61.1713 385.705 61.5984C385.402 62.0255 385.25 62.7281 385.25 63.7061C385.25 64.6594 385.402 65.3558 385.705 65.7953C386.009 66.2348 386.482 66.4545 387.126 66.4545Z" fill="#707E85"/>
<rect x="17.4277" y="79.3896" width="373.145" height="41.7829" rx="8.12446" fill="#F4F4F4"/>
<path d="M32.065 106.096C31.115 106.096 30.2975 105.908 29.6126 105.533C28.9388 105.157 28.4196 104.66 28.0551 104.041C27.7016 103.412 27.5248 102.727 27.5248 101.987H29.7949C29.7949 102.406 29.8888 102.777 30.0766 103.097C30.2754 103.417 30.5461 103.671 30.8885 103.859C31.231 104.036 31.6287 104.124 32.0816 104.124C32.5566 104.124 32.9653 104.025 33.3078 103.826C33.6502 103.627 33.9098 103.357 34.0865 103.014C34.2743 102.672 34.3682 102.279 34.3682 101.838C34.3682 101.407 34.2743 101.02 34.0865 100.678C33.9098 100.324 33.6502 100.048 33.3078 99.8492C32.9764 99.6393 32.5731 99.5344 32.0981 99.5344C31.7005 99.5344 31.3249 99.6117 30.9714 99.7663C30.6179 99.921 30.3417 100.125 30.1429 100.379H27.9722L28.5853 93.6851H35.5944V95.6901H29.6126L30.4411 95.0439L30.0435 99.2195L29.4801 99.0538C29.8004 98.6893 30.1926 98.3855 30.6566 98.1425C31.1205 97.8995 31.706 97.7779 32.413 97.7779C33.3078 97.7779 34.07 97.9602 34.6996 98.3247C35.3293 98.6893 35.8098 99.1753 36.1412 99.7829C36.4726 100.379 36.6383 101.031 36.6383 101.738V101.954C36.6383 102.672 36.4616 103.345 36.1081 103.975C35.7546 104.605 35.2354 105.118 34.5505 105.516C33.8767 105.903 33.0482 106.096 32.065 106.096ZM42.6154 106.096C41.6654 106.096 40.848 105.908 40.1631 105.533C39.4892 105.157 38.97 104.66 38.6055 104.041C38.252 103.412 38.0752 102.727 38.0752 101.987H40.3453C40.3453 102.406 40.4392 102.777 40.627 103.097C40.8259 103.417 41.0965 103.671 41.439 103.859C41.7814 104.036 42.1791 104.124 42.632 104.124C43.107 104.124 43.5157 104.025 43.8582 103.826C44.2006 103.627 44.4602 103.357 44.637 103.014C44.8248 102.672 44.9187 102.279 44.9187 101.838C44.9187 101.407 44.8248 101.02 44.637 100.678C44.4602 100.324 44.2006 100.048 43.8582 99.8492C43.5268 99.6393 43.1236 99.5344 42.6486 99.5344C42.2509 99.5344 41.8753 99.6117 41.5218 99.7663C41.1683 99.921 40.8922 100.125 40.6933 100.379H38.5226L39.1357 93.6851H46.1448V95.6901H40.1631L40.9916 95.0439L40.5939 99.2195L40.0305 99.0538C40.3509 98.6893 40.743 98.3855 41.207 98.1425C41.6709 97.8995 42.2564 97.7779 42.9634 97.7779C43.8582 97.7779 44.6204 97.9602 45.2501 98.3247C45.8797 98.6893 46.3603 99.1753 46.6916 99.7829C47.0231 100.379 47.1888 101.031 47.1888 101.738V101.954C47.1888 102.672 47.012 103.345 46.6585 103.975C46.305 104.605 45.7858 105.118 45.1009 105.516C44.4271 105.903 43.5986 106.096 42.6154 106.096ZM49.8187 108.532L48.0292 107.852L49.7193 103.047L51.6414 103.76L49.8187 108.532ZM58.5437 106.096C57.5937 106.096 56.7873 105.941 56.1245 105.632C55.4617 105.312 54.9204 104.881 54.5007 104.34C54.0809 103.787 53.7716 103.158 53.5727 102.451C53.3849 101.733 53.291 100.981 53.291 100.197V99.2692C53.291 98.1535 53.4788 97.1483 53.8544 96.2535C54.23 95.3587 54.8044 94.6517 55.5777 94.1325C56.351 93.6023 57.3396 93.3372 58.5437 93.3372C59.7368 93.3372 60.7199 93.6023 61.4932 94.1325C62.2665 94.6517 62.8354 95.3587 63.1999 96.2535C63.5755 97.1483 63.7633 98.1535 63.7633 99.2692V100.197C63.7633 100.981 63.6639 101.733 63.465 102.451C63.2772 103.158 62.9734 103.787 62.5537 104.34C62.1449 104.881 61.6092 105.312 60.9464 105.632C60.2836 105.941 59.4827 106.096 58.5437 106.096ZM58.5437 103.942C59.5269 103.942 60.2504 103.605 60.7144 102.931C61.1784 102.246 61.4103 101.186 61.4103 99.7498C61.4103 98.2253 61.1728 97.1372 60.6978 96.4855C60.2228 95.8227 59.5048 95.4913 58.5437 95.4913C57.5716 95.4913 56.8425 95.8227 56.3565 96.4855C55.8815 97.1372 55.644 98.2143 55.644 99.7166C55.644 101.164 55.8815 102.23 56.3565 102.915C56.8315 103.6 57.5606 103.942 58.5437 103.942ZM71.0683 106.096C70.1183 106.096 69.3119 105.941 68.6491 105.632C67.9863 105.312 67.445 104.881 67.0252 104.34C66.6055 103.787 66.2962 103.158 66.0973 102.451C65.9095 101.733 65.8156 100.981 65.8156 100.197V99.2692C65.8156 98.1535 66.0034 97.1483 66.379 96.2535C66.7546 95.3587 67.329 94.6517 68.1023 94.1325C68.8756 93.6023 69.8642 93.3372 71.0683 93.3372C72.2614 93.3372 73.2445 93.6023 74.0178 94.1325C74.791 94.6517 75.36 95.3587 75.7245 96.2535C76.1001 97.1483 76.2879 98.1535 76.2879 99.2692V100.197C76.2879 100.981 76.1885 101.733 75.9896 102.451C75.8018 103.158 75.498 103.787 75.0783 104.34C74.6695 104.881 74.1338 105.312 73.471 105.632C72.8082 105.941 72.0073 106.096 71.0683 106.096ZM71.0683 103.942C72.0515 103.942 72.775 103.605 73.239 102.931C73.703 102.246 73.9349 101.186 73.9349 99.7498C73.9349 98.2253 73.6974 97.1372 73.2224 96.4855C72.7474 95.8227 72.0294 95.4913 71.0683 95.4913C70.0962 95.4913 69.3671 95.8227 68.8811 96.4855C68.4061 97.1372 68.1686 98.2143 68.1686 99.7166C68.1686 101.164 68.4061 102.23 68.8811 102.915C69.3561 103.6 70.0852 103.942 71.0683 103.942ZM83.5929 106.096C82.6429 106.096 81.8365 105.941 81.1737 105.632C80.5109 105.312 79.9696 104.881 79.5498 104.34C79.1301 103.787 78.8208 103.158 78.6219 102.451C78.4341 101.733 78.3402 100.981 78.3402 100.197V99.2692C78.3402 98.1535 78.528 97.1483 78.9036 96.2535C79.2792 95.3587 79.8536 94.6517 80.6269 94.1325C81.4001 93.6023 82.3888 93.3372 83.5929 93.3372C84.786 93.3372 85.7691 93.6023 86.5424 94.1325C87.3156 94.6517 87.8845 95.3587 88.2491 96.2535C88.6247 97.1483 88.8125 98.1535 88.8125 99.2692V100.197C88.8125 100.981 88.713 101.733 88.5142 102.451C88.3264 103.158 88.0226 103.787 87.6029 104.34C87.1941 104.881 86.6584 105.312 85.9956 105.632C85.3328 105.941 84.5319 106.096 83.5929 106.096ZM83.5929 103.942C84.5761 103.942 85.2996 103.605 85.7636 102.931C86.2275 102.246 86.4595 101.186 86.4595 99.7498C86.4595 98.2253 86.222 97.1372 85.747 96.4855C85.272 95.8227 84.554 95.4913 83.5929 95.4913C82.6208 95.4913 81.8917 95.8227 81.4057 96.4855C80.9307 97.1372 80.6932 98.2143 80.6932 99.7166C80.6932 101.164 80.9307 102.23 81.4057 102.915C81.8807 103.6 82.6098 103.942 83.5929 103.942Z" fill="#020617"/>
<path d="M308.076 100.282C308.076 103.361 306.853 106.313 304.677 108.49C302.5 110.666 299.548 111.889 296.469 111.889C293.391 111.889 290.439 110.666 288.263 108.49C286.086 106.313 284.863 103.361 284.863 100.283C284.863 97.2047 286.086 94.2525 288.263 92.0759C290.439 89.8993 293.391 88.6764 296.469 88.6763C299.548 88.6763 302.5 89.899 304.676 92.0756C306.853 94.2522 308.076 97.2043 308.076 100.282Z" fill="#1B2022"/>
<path d="M298.057 107.636C297.968 107.636 297.882 107.605 297.815 107.548C297.772 107.513 297.738 107.469 297.714 107.418C297.691 107.368 297.679 107.314 297.679 107.258V104.137C297.679 104.048 297.71 103.962 297.767 103.894C297.823 103.826 297.902 103.78 297.989 103.765C298.847 103.607 299.638 103.196 300.258 102.584C300.381 102.462 300.495 102.331 300.599 102.193C299.514 101.112 298.265 101.578 296.819 102.117L296.385 102.276C294.907 102.827 293.23 103.452 291.801 102.022C291.341 101.552 291.052 100.941 290.981 100.287C290.91 99.6328 291.06 98.9738 291.409 98.4154C290.631 97.2052 290.897 95.573 292.146 94.3232C292.876 93.6027 293.806 93.1184 294.815 92.9334C294.869 92.9234 294.925 92.9256 294.979 92.9398C295.032 92.9539 295.082 92.9797 295.125 93.0152C295.167 93.0507 295.201 93.0951 295.225 93.1452C295.248 93.1954 295.26 93.2501 295.26 93.3055V96.4306C295.26 96.5191 295.229 96.6048 295.173 96.6728C295.116 96.7408 295.037 96.7868 294.95 96.8028C294.092 96.9599 293.302 97.3712 292.681 97.9834C292.559 98.1057 292.445 98.2363 292.34 98.3743C293.425 99.4551 294.674 98.9896 296.12 98.4502L296.555 98.2905C298.032 97.7391 299.709 97.1146 301.138 98.5444C301.43 98.8341 301.655 99.1847 301.795 99.5712C301.936 99.9578 301.99 100.371 301.953 100.78C301.909 101.261 301.765 101.726 301.529 102.147C302.309 103.356 302.044 104.99 300.792 106.24C300.062 106.961 299.133 107.445 298.124 107.63C298.102 107.634 298.079 107.636 298.056 107.636H298.057ZM298.435 104.442V106.779C299.122 106.579 299.749 106.21 300.258 105.706C301.136 104.827 301.414 103.724 301.043 102.848C300.963 102.941 300.88 103.031 300.793 103.12C300.141 103.765 299.326 104.221 298.436 104.442L298.435 104.442ZM291.948 99.0423C291.752 99.4405 291.685 99.8893 291.754 100.327C291.824 100.765 292.027 101.171 292.336 101.489C293.422 102.575 294.672 102.109 296.12 101.569L296.554 101.41C297.982 100.877 299.594 100.276 300.991 101.525C301.103 101.269 301.173 100.997 301.198 100.718C301.225 100.418 301.186 100.115 301.084 99.8315C300.981 99.5479 300.816 99.2905 300.602 99.0778C299.516 97.9918 298.266 98.4582 296.818 98.998L296.384 99.1577C294.956 99.6899 293.344 100.291 291.947 99.0427L291.948 99.0423ZM294.503 93.787C293.815 93.9877 293.188 94.3567 292.679 94.8607C291.801 95.7391 291.524 96.8419 291.894 97.7179C291.973 97.6258 292.057 97.5353 292.145 97.4464C292.797 96.801 293.612 96.3441 294.503 96.124V93.787Z" fill="#00FFB9"/>
<path d="M316.802 103.98C316.092 103.98 315.493 103.844 315.005 103.572C314.518 103.301 314.145 102.921 313.888 102.434C313.637 101.939 313.512 101.361 313.512 100.7V96.1559H314.995V100.783C314.995 101.145 315.065 101.466 315.204 101.744C315.343 102.016 315.545 102.228 315.81 102.382C316.081 102.528 316.412 102.601 316.802 102.601C317.185 102.601 317.509 102.528 317.774 102.382C318.045 102.228 318.247 102.016 318.379 101.744C318.519 101.473 318.588 101.152 318.588 100.783V96.1559H320.072V100.7C320.072 101.361 319.946 101.939 319.696 102.434C319.452 102.921 319.086 103.301 318.599 103.572C318.111 103.844 317.512 103.98 316.802 103.98ZM324.409 103.98C323.734 103.98 323.163 103.872 322.696 103.656C322.237 103.44 321.885 103.144 321.641 102.768C321.398 102.385 321.276 101.953 321.276 101.473H322.728C322.728 101.675 322.783 101.873 322.895 102.068C323.006 102.256 323.184 102.409 323.428 102.528C323.678 102.646 324.006 102.705 324.409 102.705C324.772 102.705 325.074 102.653 325.318 102.549C325.562 102.444 325.743 102.308 325.861 102.141C325.98 101.967 326.039 101.772 326.039 101.556C326.039 101.285 325.924 101.069 325.694 100.909C325.464 100.742 325.109 100.637 324.629 100.595L323.96 100.543C323.229 100.48 322.644 100.254 322.205 99.8641C321.774 99.4672 321.558 98.9449 321.558 98.2972C321.558 97.8098 321.673 97.3919 321.902 97.0438C322.132 96.6886 322.453 96.417 322.863 96.229C323.281 96.034 323.769 95.9365 324.326 95.9365C324.904 95.9365 325.402 96.0375 325.82 96.2394C326.237 96.4414 326.561 96.7269 326.791 97.096C327.021 97.4581 327.136 97.8864 327.136 98.3808H325.684C325.684 98.1719 325.632 97.9804 325.527 97.8063C325.43 97.6252 325.28 97.4825 325.078 97.378C324.883 97.2666 324.632 97.2109 324.326 97.2109C324.033 97.2109 323.79 97.2596 323.595 97.3571C323.4 97.4546 323.253 97.5869 323.156 97.7541C323.058 97.9212 323.01 98.1023 323.01 98.2972C323.01 98.534 323.097 98.7429 323.271 98.924C323.445 99.0981 323.72 99.1991 324.096 99.2269L324.765 99.2896C325.308 99.3314 325.785 99.4463 326.196 99.6343C326.606 99.8223 326.923 100.076 327.146 100.397C327.376 100.717 327.491 101.104 327.491 101.556C327.491 102.037 327.366 102.462 327.115 102.831C326.864 103.193 326.506 103.475 326.039 103.677C325.579 103.879 325.036 103.98 324.409 103.98ZM330.121 103.823V102.444H331.699C332.096 102.444 332.447 102.385 332.754 102.267C333.067 102.141 333.332 101.967 333.548 101.744C333.763 101.521 333.927 101.26 334.039 100.961C334.157 100.654 334.216 100.317 334.216 99.9477C334.216 99.5647 334.157 99.2234 334.039 98.924C333.927 98.6176 333.763 98.3564 333.548 98.1406C333.332 97.9247 333.067 97.761 332.754 97.6496C332.447 97.5382 332.096 97.4825 331.699 97.4825H330.121V96.1036H331.605C332.294 96.1036 332.897 96.2046 333.412 96.4066C333.927 96.6085 334.355 96.8871 334.697 97.2422C335.038 97.5904 335.292 97.9908 335.459 98.4435C335.633 98.8892 335.72 99.3523 335.72 99.8328V100.063C335.72 100.522 335.633 100.975 335.459 101.421C335.292 101.866 335.038 102.27 334.697 102.632C334.355 102.994 333.927 103.283 333.412 103.499C332.897 103.715 332.294 103.823 331.605 103.823H330.121ZM328.847 103.823V96.1036H330.33V103.823H328.847ZM338.991 103.959C338.212 103.959 337.599 103.795 337.153 103.468C336.714 103.134 336.485 102.674 336.464 102.089H337.769C337.79 102.284 337.898 102.462 338.093 102.622C338.288 102.782 338.595 102.862 339.012 102.862C339.361 102.862 339.636 102.799 339.838 102.674C340.046 102.549 340.151 102.378 340.151 102.162C340.151 101.974 340.071 101.824 339.911 101.713C339.757 101.602 339.493 101.528 339.117 101.494L338.615 101.441C337.982 101.372 337.494 101.191 337.153 100.898C336.812 100.606 336.641 100.216 336.641 99.7283C336.641 99.3383 336.739 99.011 336.934 98.7464C337.129 98.4818 337.397 98.2833 337.738 98.151C338.086 98.0117 338.483 97.9421 338.929 97.9421C339.625 97.9421 340.189 98.0953 340.621 98.4017C341.053 98.7081 341.279 99.1573 341.3 99.7492H339.994C339.98 99.5542 339.883 99.3871 339.702 99.2478C339.521 99.1085 339.26 99.0389 338.918 99.0389C338.612 99.0389 338.375 99.0981 338.208 99.2165C338.041 99.3349 337.957 99.4881 337.957 99.6761C337.957 99.8571 338.024 99.9964 338.156 100.094C338.295 100.191 338.518 100.258 338.824 100.292L339.326 100.345C339.994 100.414 340.517 100.599 340.893 100.898C341.276 101.198 341.467 101.602 341.467 102.11C341.467 102.486 341.363 102.813 341.154 103.092C340.952 103.363 340.666 103.576 340.297 103.729C339.928 103.882 339.493 103.959 338.991 103.959Z" fill="#020617"/>
<path d="M352.003 91.7217V108.841" stroke="#CBD5E1" stroke-width="0.580318"/>
<path d="M362.124 103.281V96.5031H363.925L365.624 100.551H365.791L367.481 96.5031H369.31V103.281H368.001V97.4966L368.168 97.5152L366.339 101.898H364.993L363.154 97.5152L363.331 97.4966V103.281H362.124ZM373.935 103.281V101.786H373.722V100.124C373.722 99.8334 373.651 99.6167 373.508 99.4744C373.366 99.332 373.146 99.2608 372.849 99.2608C372.694 99.2608 372.509 99.2639 372.292 99.2701C372.075 99.2763 371.855 99.2856 371.633 99.2979C371.416 99.3041 371.221 99.3134 371.048 99.3258V98.2302C371.19 98.2178 371.351 98.2054 371.53 98.193C371.71 98.1806 371.893 98.1744 372.078 98.1744C372.27 98.1683 372.45 98.1652 372.617 98.1652C373.137 98.1652 373.567 98.2333 373.907 98.3694C374.254 98.5056 374.514 98.7192 374.687 99.0101C374.867 99.301 374.957 99.6817 374.957 100.152V103.281H373.935ZM372.31 103.411C371.945 103.411 371.623 103.346 371.345 103.216C371.072 103.086 370.859 102.901 370.704 102.659C370.556 102.418 370.481 102.127 370.481 101.786C370.481 101.415 370.571 101.112 370.751 100.876C370.936 100.641 371.193 100.465 371.521 100.347C371.855 100.23 372.245 100.171 372.691 100.171H373.861V100.941H372.673C372.375 100.941 372.146 101.016 371.985 101.164C371.831 101.307 371.753 101.492 371.753 101.721C371.753 101.95 371.831 102.136 371.985 102.278C372.146 102.421 372.375 102.492 372.673 102.492C372.852 102.492 373.016 102.461 373.165 102.399C373.319 102.331 373.446 102.22 373.545 102.065C373.651 101.904 373.709 101.687 373.722 101.415L374.037 101.777C374.007 102.13 373.92 102.427 373.777 102.668C373.641 102.91 373.449 103.096 373.202 103.226C372.96 103.349 372.663 103.411 372.31 103.411ZM375.763 103.281L377.407 100.589L377.379 100.802L375.828 98.2394H377.231L378.243 100.013H378.382L379.338 98.2394H380.657L379.19 100.793L379.218 100.607L380.954 103.281H379.552L378.354 101.378H378.215L377.082 103.281H375.763Z" fill="#10B981"/>
<path d="M204 156.766C208.274 156.766 211.738 153.301 211.738 149.028C211.738 144.755 208.274 141.291 204 141.291C199.727 141.291 196.263 144.755 196.263 149.028C196.263 153.301 199.727 156.766 204 156.766Z" stroke="#707E85" stroke-width="1.16064" stroke-linecap="round" stroke-linejoin="round"/>
<path d="M204 145.933V152.123" stroke="#707E85" stroke-width="1.16064" stroke-linecap="round" stroke-linejoin="round"/>
<path d="M200.905 149.028H207.095" stroke="#707E85" stroke-width="1.16064" stroke-linecap="round" stroke-linejoin="round"/>
<path d="M18.6859 185.883L21.1279 179.105H22.6692L25.1855 185.883H24.2477L21.9729 179.699L22.4185 179.922H21.3229L21.7964 179.699L19.5959 185.883H18.6859ZM20.1437 183.859L20.4501 183.042H23.3749L23.6813 183.859H20.1437ZM26.2984 185.883V180.925H27.0041V183.051H26.8926C26.8926 182.569 26.9545 182.16 27.0784 181.826C27.2083 181.485 27.4002 181.225 27.654 181.046C27.9078 180.866 28.2297 180.776 28.6197 180.776H28.6568C29.0468 180.776 29.3687 180.866 29.6225 181.046C29.8824 181.225 30.0743 181.485 30.1981 181.826C30.3219 182.16 30.3838 182.569 30.3838 183.051H30.1239C30.1239 182.569 30.1889 182.16 30.3188 181.826C30.4488 181.485 30.6407 181.225 30.8945 181.046C31.1545 180.866 31.4795 180.776 31.8695 180.776H31.9066C32.2966 180.776 32.6216 180.866 32.8815 181.046C33.1415 181.225 33.3334 181.485 33.4572 181.826C33.5872 182.16 33.6522 182.569 33.6522 183.051V185.883H32.7608V182.856C32.7608 182.454 32.6618 182.145 32.4637 181.928C32.2656 181.705 31.9902 181.594 31.6373 181.594C31.2721 181.594 30.9781 181.711 30.7552 181.946C30.5324 182.175 30.421 182.497 30.421 182.912V185.883H29.5296V182.856C29.5296 182.454 29.4306 182.145 29.2325 181.928C29.0344 181.705 28.759 181.594 28.4061 181.594C28.0409 181.594 27.7469 181.711 27.524 181.946C27.3012 182.175 27.1898 182.497 27.1898 182.912V185.883H26.2984ZM37.5684 186.05C37.1351 186.05 36.7544 185.976 36.4263 185.828C36.0983 185.679 35.8197 185.484 35.5907 185.243C35.3678 184.995 35.1976 184.72 35.08 184.416C34.9686 184.113 34.9129 183.803 34.9129 183.488V183.321C34.9129 183.005 34.9717 182.695 35.0893 182.392C35.2069 182.083 35.3802 181.807 35.6092 181.566C35.8383 181.318 36.1168 181.123 36.4449 180.981C36.773 180.832 37.1475 180.758 37.5684 180.758C37.9893 180.758 38.3638 180.832 38.6919 180.981C39.02 181.123 39.2985 181.318 39.5276 181.566C39.7566 181.807 39.9299 182.083 40.0475 182.392C40.1651 182.695 40.2239 183.005 40.2239 183.321V183.488C40.2239 183.803 40.1651 184.113 40.0475 184.416C39.9361 184.72 39.7659 184.995 39.5368 185.243C39.314 185.484 39.0385 185.679 38.7105 185.828C38.3824 185.976 38.0017 186.05 37.5684 186.05ZM37.5684 185.252C37.9398 185.252 38.2555 185.171 38.5155 185.011C38.7817 184.843 38.9828 184.621 39.119 184.342C39.2614 184.063 39.3326 183.751 39.3326 183.404C39.3326 183.051 39.2614 182.736 39.119 182.457C38.9766 182.179 38.7724 181.959 38.5062 181.798C38.2462 181.637 37.9336 181.556 37.5684 181.556C37.2094 181.556 36.8968 181.637 36.6306 181.798C36.3644 181.959 36.1602 182.179 36.0178 182.457C35.8754 182.736 35.8042 183.051 35.8042 183.404C35.8042 183.751 35.8723 184.063 36.0085 184.342C36.1509 184.621 36.3521 184.843 36.612 185.011C36.8782 185.171 37.197 185.252 37.5684 185.252ZM43.2767 186.032C42.6886 186.032 42.2368 185.84 41.9211 185.456C41.6054 185.072 41.4475 184.518 41.4475 183.794V180.916H42.3389V183.971C42.3389 184.361 42.4441 184.667 42.6546 184.89C42.8651 185.106 43.1498 185.215 43.5088 185.215C43.8802 185.215 44.1835 185.097 44.4188 184.862C44.654 184.621 44.7716 184.292 44.7716 183.878V180.916H45.663V185.883H44.9573V183.757H45.0687C45.0687 184.246 45.0037 184.661 44.8737 185.001C44.7437 185.335 44.5488 185.592 44.2888 185.772C44.035 185.945 43.71 186.032 43.3138 186.032H43.2767ZM47.3893 185.883V180.925H48.095V183.051H47.9836C47.9836 182.562 48.0486 182.151 48.1786 181.816C48.3148 181.476 48.519 181.219 48.7914 181.046C49.0638 180.866 49.4073 180.776 49.822 180.776H49.8592C50.4844 180.776 50.9455 180.971 51.2427 181.361C51.546 181.751 51.6976 182.315 51.6976 183.051V185.883H50.8063V182.866C50.8063 182.482 50.6979 182.175 50.4813 181.946C50.2646 181.711 49.9675 181.594 49.5899 181.594C49.1999 181.594 48.8842 181.714 48.6428 181.956C48.4014 182.197 48.2807 182.519 48.2807 182.921V185.883H47.3893ZM55.2598 185.939C54.8884 185.939 54.5666 185.886 54.2942 185.781C54.028 185.676 53.8207 185.496 53.6721 185.243C53.5297 184.983 53.4585 184.633 53.4585 184.193V179.421H54.3128V184.305C54.3128 184.571 54.3839 184.778 54.5263 184.927C54.6749 185.069 54.8822 185.14 55.1484 185.14H56.0212V185.939H55.2598ZM52.6043 181.594V180.925H56.0212V181.594H52.6043Z" fill="#707E85"/>
<path d="M309.322 185.92V185.122H311.217C311.582 185.122 311.863 185.02 312.062 184.816C312.266 184.605 312.368 184.327 312.368 183.98C312.368 183.627 312.269 183.352 312.071 183.153C311.873 182.949 311.588 182.847 311.217 182.847H309.322V182.253H311.087C311.52 182.253 311.901 182.305 312.229 182.411C312.563 182.516 312.823 182.692 313.009 182.94C313.2 183.181 313.296 183.513 313.296 183.933V184.063C313.296 184.46 313.216 184.797 313.055 185.075C312.894 185.348 312.65 185.558 312.321 185.707C311.993 185.849 311.582 185.92 311.087 185.92H309.322ZM308.598 185.92V179.068H309.508V185.92H308.598ZM309.322 182.68V182.086H310.966C311.35 182.086 311.631 181.984 311.811 181.779C311.997 181.569 312.089 181.303 312.089 180.981C312.089 180.653 311.997 180.387 311.811 180.182C311.631 179.972 311.35 179.867 310.966 179.867H309.322V179.068H310.808C311.551 179.068 312.105 179.226 312.47 179.542C312.835 179.851 313.018 180.3 313.018 180.888V181.018C313.018 181.433 312.925 181.764 312.739 182.011C312.554 182.253 312.294 182.426 311.959 182.531C311.631 182.63 311.248 182.68 310.808 182.68H309.322ZM317.778 185.883V184.398H317.63V182.68C317.63 182.339 317.54 182.083 317.36 181.909C317.187 181.736 316.93 181.649 316.59 181.649C316.398 181.649 316.2 181.652 315.995 181.659C315.791 181.665 315.596 181.671 315.411 181.677C315.225 181.683 315.064 181.693 314.928 181.705V180.925C315.064 180.913 315.206 180.903 315.355 180.897C315.51 180.885 315.667 180.879 315.828 180.879C315.989 180.872 316.144 180.869 316.293 180.869C316.8 180.869 317.215 180.931 317.537 181.055C317.859 181.173 318.097 181.368 318.252 181.64C318.407 181.912 318.484 182.281 318.484 182.745V185.883H317.778ZM316.153 186.013C315.782 186.013 315.46 185.951 315.188 185.828C314.922 185.698 314.714 185.512 314.566 185.27C314.423 185.029 314.352 184.738 314.352 184.398C314.352 184.045 314.429 183.751 314.584 183.516C314.745 183.28 314.977 183.104 315.281 182.986C315.584 182.863 315.949 182.801 316.376 182.801H317.723V183.469H316.339C315.98 183.469 315.705 183.556 315.513 183.729C315.321 183.902 315.225 184.125 315.225 184.398C315.225 184.67 315.321 184.89 315.513 185.057C315.705 185.224 315.98 185.308 316.339 185.308C316.549 185.308 316.751 185.27 316.943 185.196C317.134 185.116 317.292 184.986 317.416 184.806C317.546 184.621 317.617 184.367 317.63 184.045L317.871 184.398C317.84 184.751 317.753 185.048 317.611 185.289C317.475 185.524 317.283 185.704 317.035 185.828C316.794 185.951 316.5 186.013 316.153 186.013ZM320.176 185.883V179.105H321.067V185.883H320.176ZM319.488 179.811V179.105H321.067V179.811H319.488ZM325.776 185.883V184.398H325.627V182.68C325.627 182.339 325.537 182.083 325.358 181.909C325.185 181.736 324.928 181.649 324.587 181.649C324.395 181.649 324.197 181.652 323.993 181.659C323.789 181.665 323.594 181.671 323.408 181.677C323.222 181.683 323.061 181.693 322.925 181.705V180.925C323.061 180.913 323.204 180.903 323.352 180.897C323.507 180.885 323.665 180.879 323.826 180.879C323.987 180.872 324.142 180.869 324.29 180.869C324.798 180.869 325.212 180.931 325.534 181.055C325.856 181.173 326.095 181.368 326.249 181.64C326.404 181.912 326.481 182.281 326.481 182.745V185.883H325.776ZM324.151 186.013C323.779 186.013 323.458 185.951 323.185 185.828C322.919 185.698 322.712 185.512 322.563 185.27C322.421 185.029 322.35 184.738 322.35 184.398C322.35 184.045 322.427 183.751 322.582 183.516C322.743 183.28 322.975 183.104 323.278 182.986C323.581 182.863 323.947 182.801 324.374 182.801H325.72V183.469H324.337C323.978 183.469 323.702 183.556 323.51 183.729C323.318 183.902 323.222 184.125 323.222 184.398C323.222 184.67 323.318 184.89 323.51 185.057C323.702 185.224 323.978 185.308 324.337 185.308C324.547 185.308 324.748 185.27 324.94 185.196C325.132 185.116 325.29 184.986 325.414 184.806C325.544 184.621 325.615 184.367 325.627 184.045L325.869 184.398C325.838 184.751 325.751 185.048 325.609 185.289C325.472 185.524 325.281 185.704 325.033 185.828C324.792 185.951 324.497 186.013 324.151 186.013ZM328.117 185.883V180.925H328.823V183.051H328.712C328.712 182.562 328.777 182.151 328.907 181.816C329.043 181.476 329.247 181.219 329.519 181.046C329.792 180.866 330.135 180.776 330.55 180.776H330.587C331.212 180.776 331.674 180.971 331.971 181.361C332.274 181.751 332.426 182.315 332.426 183.051V185.883H331.534V182.866C331.534 182.482 331.426 182.175 331.209 181.946C330.993 181.711 330.696 181.594 330.318 181.594C329.928 181.594 329.612 181.714 329.371 181.956C329.129 182.197 329.009 182.519 329.009 182.921V185.883H328.117ZM336.183 186.05C335.756 186.05 335.384 185.976 335.069 185.828C334.759 185.679 334.502 185.481 334.298 185.233C334.094 184.98 333.939 184.701 333.834 184.398C333.735 184.094 333.685 183.791 333.685 183.488V183.321C333.685 183.005 333.735 182.695 333.834 182.392C333.939 182.089 334.094 181.816 334.298 181.575C334.508 181.327 334.768 181.129 335.078 180.981C335.387 180.832 335.75 180.758 336.164 180.758C336.579 180.758 336.95 180.835 337.279 180.99C337.613 181.145 337.879 181.365 338.077 181.649C338.281 181.928 338.396 182.259 338.421 182.643H337.566C337.523 182.333 337.381 182.076 337.139 181.872C336.898 181.662 336.573 181.556 336.164 181.556C335.811 181.556 335.517 181.637 335.282 181.798C335.047 181.959 334.871 182.179 334.753 182.457C334.635 182.736 334.577 183.051 334.577 183.404C334.577 183.745 334.635 184.057 334.753 184.342C334.871 184.621 335.047 184.843 335.282 185.011C335.524 185.171 335.824 185.252 336.183 185.252C336.461 185.252 336.703 185.202 336.907 185.103C337.111 185.004 337.275 184.871 337.399 184.704C337.523 184.537 337.597 184.348 337.622 184.138H338.476C338.458 184.528 338.343 184.865 338.133 185.15C337.928 185.435 337.656 185.657 337.316 185.818C336.981 185.973 336.604 186.05 336.183 186.05ZM341.795 186.05C341.362 186.05 340.987 185.976 340.672 185.828C340.356 185.679 340.099 185.484 339.901 185.243C339.703 184.995 339.554 184.72 339.455 184.416C339.363 184.113 339.316 183.803 339.316 183.488V183.321C339.316 182.999 339.363 182.686 339.455 182.383C339.554 182.08 339.703 181.807 339.901 181.566C340.099 181.318 340.35 181.123 340.653 180.981C340.963 180.832 341.325 180.758 341.739 180.758C342.278 180.758 342.721 180.876 343.067 181.111C343.42 181.34 343.68 181.637 343.847 182.002C344.021 182.367 344.107 182.757 344.107 183.172V183.571H339.706V182.903H343.457L343.253 183.265C343.253 182.912 343.197 182.609 343.086 182.355C342.974 182.095 342.807 181.894 342.584 181.751C342.362 181.609 342.08 181.538 341.739 181.538C341.387 181.538 341.093 181.618 340.857 181.779C340.628 181.94 340.455 182.16 340.337 182.439C340.226 182.717 340.17 183.039 340.17 183.404C340.17 183.757 340.226 184.076 340.337 184.361C340.455 184.639 340.635 184.862 340.876 185.029C341.117 185.19 341.424 185.27 341.795 185.27C342.185 185.27 342.501 185.184 342.742 185.011C342.99 184.837 343.138 184.636 343.188 184.407H344.024C343.956 184.747 343.819 185.041 343.615 185.289C343.411 185.537 343.154 185.725 342.844 185.855C342.535 185.985 342.185 186.05 341.795 186.05ZM345.196 185.883V184.751H346.273V185.883H345.196ZM345.196 182.448V181.315H346.273V182.448H345.196ZM349.767 185.883V184.769C349.767 184.497 349.804 184.265 349.878 184.073C349.959 183.881 350.095 183.707 350.287 183.553C350.479 183.392 350.739 183.237 351.067 183.088L352.339 182.504C352.649 182.361 352.893 182.179 353.073 181.956C353.252 181.727 353.342 181.433 353.342 181.074C353.342 180.64 353.221 180.303 352.98 180.062C352.738 179.82 352.398 179.699 351.958 179.699C351.525 179.699 351.185 179.82 350.937 180.062C350.689 180.303 350.566 180.64 350.566 181.074H349.693C349.693 180.684 349.773 180.325 349.934 179.997C350.101 179.668 350.352 179.408 350.686 179.217C351.021 179.019 351.445 178.919 351.958 178.919C352.472 178.919 352.893 179.019 353.221 179.217C353.555 179.408 353.803 179.662 353.964 179.978C354.131 180.294 354.215 180.637 354.215 181.009V181.139C354.215 181.628 354.072 182.039 353.787 182.374C353.509 182.708 353.131 182.983 352.655 183.2L351.383 183.785C351.098 183.915 350.906 184.045 350.807 184.175C350.708 184.305 350.658 184.478 350.658 184.695V185.549L350.417 185.122H354.298V185.883H349.767ZM355.507 185.883V184.769C355.507 184.497 355.544 184.265 355.618 184.073C355.699 183.881 355.835 183.707 356.027 183.553C356.219 183.392 356.479 183.237 356.807 183.088L358.079 182.504C358.388 182.361 358.633 182.179 358.812 181.956C358.992 181.727 359.082 181.433 359.082 181.074C359.082 180.64 358.961 180.303 358.719 180.062C358.478 179.82 358.138 179.699 357.698 179.699C357.265 179.699 356.924 179.82 356.677 180.062C356.429 180.303 356.305 180.64 356.305 181.074H355.432C355.432 180.684 355.513 180.325 355.674 179.997C355.841 179.668 356.092 179.408 356.426 179.217C356.76 179.019 357.184 178.919 357.698 178.919C358.212 178.919 358.633 179.019 358.961 179.217C359.295 179.408 359.543 179.662 359.704 179.978C359.871 180.294 359.954 180.637 359.954 181.009V181.139C359.954 181.628 359.812 182.039 359.527 182.374C359.249 182.708 358.871 182.983 358.394 183.2L357.122 183.785C356.838 183.915 356.646 184.045 356.547 184.175C356.448 184.305 356.398 184.478 356.398 184.695V185.549L356.157 185.122H360.038V185.883H355.507ZM363.995 186.05C363.487 186.05 363.054 185.964 362.695 185.79C362.342 185.611 362.054 185.37 361.831 185.066C361.615 184.763 361.457 184.413 361.358 184.017C361.259 183.615 361.209 183.191 361.209 182.745V182.244C361.209 181.618 361.305 181.055 361.497 180.554C361.695 180.052 361.999 179.656 362.407 179.365C362.822 179.068 363.351 178.919 363.995 178.919C364.639 178.919 365.165 179.068 365.573 179.365C365.982 179.656 366.282 180.052 366.474 180.554C366.672 181.055 366.771 181.618 366.771 182.244V182.745C366.771 183.191 366.722 183.615 366.623 184.017C366.523 184.413 366.363 184.763 366.14 185.066C365.923 185.37 365.638 185.611 365.285 185.79C364.933 185.964 364.502 186.05 363.995 186.05ZM363.995 185.233C364.639 185.233 365.109 185.017 365.406 184.583C365.709 184.144 365.861 183.451 365.861 182.504C365.861 181.513 365.706 180.804 365.397 180.377C365.094 179.95 364.626 179.737 363.995 179.737C363.357 179.737 362.884 179.95 362.574 180.377C362.271 180.804 362.119 181.507 362.119 182.485C362.119 183.438 362.271 184.135 362.574 184.574C362.878 185.014 363.351 185.233 363.995 185.233ZM368.398 187.341L367.683 187.072L368.546 184.676L369.28 184.955L368.398 187.341ZM373.325 186.05C372.818 186.05 372.384 185.964 372.025 185.79C371.673 185.611 371.385 185.37 371.162 185.066C370.945 184.763 370.787 184.413 370.688 184.017C370.589 183.615 370.54 183.191 370.54 182.745V182.244C370.54 181.618 370.636 181.055 370.828 180.554C371.026 180.052 371.329 179.656 371.738 179.365C372.152 179.068 372.682 178.919 373.325 178.919C373.969 178.919 374.495 179.068 374.904 179.365C375.312 179.656 375.613 180.052 375.804 180.554C376.002 181.055 376.102 181.618 376.102 182.244V182.745C376.102 183.191 376.052 183.615 375.953 184.017C375.854 184.413 375.693 184.763 375.47 185.066C375.253 185.37 374.969 185.611 374.616 185.79C374.263 185.964 373.833 186.05 373.325 186.05ZM373.325 185.233C373.969 185.233 374.439 185.017 374.737 184.583C375.04 184.144 375.192 183.451 375.192 182.504C375.192 181.513 375.037 180.804 374.727 180.377C374.424 179.95 373.957 179.737 373.325 179.737C372.688 179.737 372.214 179.95 371.905 180.377C371.601 180.804 371.45 181.507 371.45 182.485C371.45 183.438 371.601 184.135 371.905 184.574C372.208 185.014 372.682 185.233 373.325 185.233ZM380.226 186.05C379.718 186.05 379.285 185.964 378.926 185.79C378.573 185.611 378.285 185.37 378.062 185.066C377.846 184.763 377.688 184.413 377.589 184.017C377.49 183.615 377.44 183.191 377.44 182.745V182.244C377.44 181.618 377.536 181.055 377.728 180.554C377.926 180.052 378.229 179.656 378.638 179.365C379.053 179.068 379.582 178.919 380.226 178.919C380.869 178.919 381.396 179.068 381.804 179.365C382.213 179.656 382.513 180.052 382.705 180.554C382.903 181.055 383.002 181.618 383.002 182.244V182.745C383.002 183.191 382.952 183.615 382.853 184.017C382.754 184.413 382.593 184.763 382.37 185.066C382.154 185.37 381.869 185.611 381.516 185.79C381.163 185.964 380.733 186.05 380.226 186.05ZM380.226 185.233C380.869 185.233 381.34 185.017 381.637 184.583C381.94 184.144 382.092 183.451 382.092 182.504C382.092 181.513 381.937 180.804 381.628 180.377C381.324 179.95 380.857 179.737 380.226 179.737C379.588 179.737 379.115 179.95 378.805 180.377C378.502 180.804 378.35 181.507 378.35 182.485C378.35 183.438 378.502 184.135 378.805 184.574C379.108 185.014 379.582 185.233 380.226 185.233ZM387.126 186.05C386.618 186.05 386.185 185.964 385.826 185.79C385.473 185.611 385.185 185.37 384.963 185.066C384.746 184.763 384.588 184.413 384.489 184.017C384.39 183.615 384.34 183.191 384.34 182.745V182.244C384.34 181.618 384.436 181.055 384.628 180.554C384.826 180.052 385.13 179.656 385.538 179.365C385.953 179.068 386.482 178.919 387.126 178.919C387.77 178.919 388.296 179.068 388.704 179.365C389.113 179.656 389.413 180.052 389.605 180.554C389.803 181.055 389.902 181.618 389.902 182.244V182.745C389.902 183.191 389.853 183.615 389.754 184.017C389.655 184.413 389.494 184.763 389.271 185.066C389.054 185.37 388.769 185.611 388.417 185.79C388.064 185.964 387.634 186.05 387.126 186.05ZM387.126 185.233C387.77 185.233 388.24 185.017 388.537 184.583C388.841 184.144 388.992 183.451 388.992 182.504C388.992 181.513 388.838 180.804 388.528 180.377C388.225 179.95 387.757 179.737 387.126 179.737C386.488 179.737 386.015 179.95 385.705 180.377C385.402 180.804 385.25 181.507 385.25 182.485C385.25 183.438 385.402 184.135 385.705 184.574C386.009 185.014 386.482 185.233 387.126 185.233Z" fill="#707E85"/>
<rect x="17.4277" y="198.168" width="373.145" height="41.7829" rx="8.12446" fill="#F4F4F4"/>
<path d="M27.7899 224.56V222.24C27.7899 221.732 27.8673 221.29 28.0219 220.915C28.1876 220.539 28.4527 220.208 28.8173 219.92C29.1929 219.622 29.6844 219.341 30.292 219.075L32.3467 218.164C32.8548 217.932 33.2415 217.65 33.5066 217.319C33.7828 216.977 33.9208 216.54 33.9208 216.01C33.9208 215.424 33.7441 214.961 33.3906 214.618C33.0482 214.265 32.5566 214.088 31.9159 214.088C31.2752 214.088 30.7781 214.265 30.4246 214.618C30.0821 214.972 29.9109 215.463 29.9109 216.093H27.6408C27.6408 215.342 27.801 214.668 28.1213 214.071C28.4417 213.464 28.9167 212.989 29.5464 212.646C30.176 212.293 30.9659 212.116 31.9159 212.116C32.8659 212.116 33.6557 212.287 34.2854 212.63C34.915 212.972 35.39 213.431 35.7104 214.005C36.0308 214.568 36.1909 215.198 36.1909 215.894V216.109C36.1909 217.015 35.9369 217.772 35.4287 218.379C34.9206 218.976 34.1749 219.495 33.1918 219.937L31.1371 220.848C30.7504 221.014 30.4798 221.191 30.3252 221.379C30.1705 221.555 30.0932 221.798 30.0932 222.108V223.168L29.5298 222.555H36.2406V224.56H27.7899ZM42.1719 224.875C41.244 224.875 40.4431 224.698 39.7693 224.345C39.1065 223.991 38.5983 223.522 38.2448 222.936C37.8913 222.34 37.7146 221.677 37.7146 220.948H39.9847C39.9847 221.533 40.178 222.008 40.5646 222.373C40.9623 222.726 41.4981 222.903 42.1719 222.903C42.6248 222.903 43.0115 222.82 43.3318 222.655C43.6632 222.478 43.9173 222.24 44.094 221.942C44.2708 221.633 44.3592 221.279 44.3592 220.882C44.3592 220.285 44.1658 219.799 43.7792 219.423C43.3926 219.037 42.8623 218.843 42.1885 218.843C41.8571 218.843 41.5644 218.888 41.3103 218.976C41.0673 219.064 40.8518 219.18 40.6641 219.324L39.587 217.468L43.5638 214.751L43.4147 214.469H38.2117V212.464H46.1156V214.883L42.0228 217.601L40.7469 217.369C40.9568 217.302 41.1832 217.253 41.4263 217.22C41.6693 217.175 41.9344 217.153 42.2216 217.153C43.1385 217.153 43.9228 217.313 44.5746 217.634C45.2374 217.943 45.7455 218.374 46.099 218.926C46.4525 219.479 46.6293 220.114 46.6293 220.832V221.047C46.6293 221.743 46.4525 222.384 46.099 222.969C45.7455 223.544 45.2374 224.008 44.5746 224.361C43.9118 224.704 43.1109 224.875 42.1719 224.875ZM49.4789 227.311L47.6893 226.631L49.3795 221.826L51.3016 222.539L49.4789 227.311ZM52.5535 222.058V219.506L57.2926 212.133L59.0656 213.342L54.8899 219.871L55.0888 220.202H62.5121V222.058H52.5535ZM58.8833 224.56V215.894H61.054V224.56H58.8833ZM69.1751 224.875C68.2251 224.875 67.4186 224.72 66.7558 224.411C66.093 224.091 65.5518 223.66 65.132 223.118C64.7122 222.566 64.4029 221.936 64.2041 221.229C64.0163 220.511 63.9224 219.76 63.9224 218.976V218.048C63.9224 216.932 64.1102 215.927 64.4858 215.032C64.8613 214.138 65.4358 213.431 66.209 212.911C66.9823 212.381 67.971 212.116 69.1751 212.116C70.3681 212.116 71.3513 212.381 72.1245 212.911C72.8978 213.431 73.4667 214.138 73.8312 215.032C74.2068 215.927 74.3946 216.932 74.3946 218.048V218.976C74.3946 219.76 74.2952 220.511 74.0964 221.229C73.9086 221.936 73.6048 222.566 73.185 223.118C72.7763 223.66 72.2405 224.091 71.5777 224.411C70.9149 224.72 70.114 224.875 69.1751 224.875ZM69.1751 222.721C70.1582 222.721 70.8818 222.384 71.3457 221.71C71.8097 221.025 72.0417 219.965 72.0417 218.529C72.0417 217.004 71.8042 215.916 71.3292 215.264C70.8542 214.601 70.1361 214.27 69.1751 214.27C68.203 214.27 67.4739 214.601 66.9878 215.264C66.5128 215.916 66.2753 216.993 66.2753 218.495C66.2753 219.943 66.5128 221.009 66.9878 221.693C67.4628 222.378 68.1919 222.721 69.1751 222.721ZM81.6997 224.875C80.7496 224.875 79.9432 224.72 79.2804 224.411C78.6176 224.091 78.0764 223.66 77.6566 223.118C77.2368 222.566 76.9275 221.936 76.7287 221.229C76.5409 220.511 76.447 219.76 76.447 218.976V218.048C76.447 216.932 76.6348 215.927 77.0103 215.032C77.3859 214.138 77.9604 213.431 78.7336 212.911C79.5069 212.381 80.4956 212.116 81.6997 212.116C82.8927 212.116 83.8759 212.381 84.6491 212.911C85.4224 213.431 85.9913 214.138 86.3558 215.032C86.7314 215.927 86.9192 216.932 86.9192 218.048V218.976C86.9192 219.76 86.8198 220.511 86.6209 221.229C86.4332 221.936 86.1294 222.566 85.7096 223.118C85.3009 223.66 84.7651 224.091 84.1023 224.411C83.4395 224.72 82.6386 224.875 81.6997 224.875ZM81.6997 222.721C82.6828 222.721 83.4064 222.384 83.8703 221.71C84.3343 221.025 84.5663 219.965 84.5663 218.529C84.5663 217.004 84.3288 215.916 83.8538 215.264C83.3788 214.601 82.6607 214.27 81.6997 214.27C80.7276 214.27 79.9985 214.601 79.5124 215.264C79.0374 215.916 78.7999 216.993 78.7999 218.495C78.7999 219.943 79.0374 221.009 79.5124 221.693C79.9874 222.378 80.7165 222.721 81.6997 222.721Z" fill="#020617"/>
<g clip-path="url(#clip0_290_3632)">
<path d="M294.469 230.667C300.901 230.667 306.075 225.492 306.075 219.06C306.075 212.629 300.901 207.454 294.469 207.454C288.037 207.454 282.862 212.629 282.862 219.06C282.862 225.492 288.037 230.667 294.469 230.667Z" fill="#2775CA"/>
<path d="M297.661 220.898C297.661 219.205 296.645 218.625 294.614 218.383C293.163 218.19 292.873 217.803 292.873 217.126C292.873 216.448 293.357 216.013 294.324 216.013C295.194 216.013 295.678 216.304 295.92 217.029C295.968 217.174 296.113 217.271 296.258 217.271H297.032C297.226 217.271 297.371 217.126 297.371 216.932V216.884C297.177 215.82 296.307 214.998 295.194 214.901V213.74C295.194 213.547 295.049 213.402 294.808 213.354H294.082C293.889 213.354 293.744 213.499 293.695 213.74V214.853C292.244 215.046 291.326 216.013 291.326 217.222C291.326 218.818 292.293 219.447 294.324 219.689C295.678 219.93 296.113 220.221 296.113 220.994C296.113 221.768 295.436 222.3 294.517 222.3C293.26 222.3 292.825 221.768 292.68 221.043C292.631 220.849 292.486 220.753 292.341 220.753H291.519C291.326 220.753 291.181 220.898 291.181 221.091V221.14C291.374 222.348 292.148 223.219 293.744 223.461V224.621C293.744 224.815 293.889 224.96 294.131 225.008H294.856C295.049 225.008 295.194 224.863 295.243 224.621V223.461C296.694 223.219 297.661 222.203 297.661 220.898Z" fill="white"/>
<path d="M292.002 225.975C288.23 224.621 286.296 220.414 287.698 216.69C288.424 214.659 290.02 213.111 292.002 212.386C292.196 212.289 292.292 212.144 292.292 211.902V211.225C292.292 211.032 292.196 210.887 292.002 210.838C291.954 210.838 291.857 210.838 291.809 210.887C287.215 212.337 284.7 217.222 286.151 221.816C287.021 224.524 289.101 226.604 291.809 227.474C292.002 227.571 292.196 227.474 292.244 227.281C292.292 227.232 292.292 227.184 292.292 227.087V226.41C292.292 226.265 292.147 226.072 292.002 225.975ZM297.128 210.887C296.935 210.79 296.741 210.887 296.693 211.08C296.645 211.129 296.645 211.177 296.645 211.274V211.951C296.645 212.144 296.79 212.337 296.935 212.434C300.707 213.788 302.641 217.996 301.239 221.719C300.514 223.75 298.918 225.298 296.935 226.023C296.741 226.12 296.645 226.265 296.645 226.507V227.184C296.645 227.377 296.741 227.523 296.935 227.571C296.983 227.571 297.08 227.571 297.128 227.523C301.723 226.072 304.237 221.187 302.787 216.593C301.916 213.837 299.788 211.757 297.128 210.887Z" fill="white"/>
</g>
<path d="M314.802 222.759C314.092 222.759 313.493 222.623 313.005 222.351C312.518 222.08 312.145 221.7 311.888 221.213C311.637 220.718 311.512 220.14 311.512 219.479V214.935H312.995V219.562C312.995 219.924 313.065 220.245 313.204 220.523C313.343 220.795 313.545 221.007 313.81 221.16C314.081 221.307 314.412 221.38 314.802 221.38C315.185 221.38 315.509 221.307 315.774 221.16C316.045 221.007 316.247 220.795 316.379 220.523C316.519 220.252 316.588 219.931 316.588 219.562V214.935H318.072V219.479C318.072 220.14 317.946 220.718 317.696 221.213C317.452 221.7 317.086 222.08 316.599 222.351C316.111 222.623 315.512 222.759 314.802 222.759ZM322.409 222.759C321.734 222.759 321.163 222.651 320.696 222.435C320.237 222.219 319.885 221.923 319.641 221.547C319.398 221.164 319.276 220.732 319.276 220.252H320.728C320.728 220.454 320.783 220.652 320.895 220.847C321.006 221.035 321.184 221.188 321.428 221.307C321.678 221.425 322.006 221.484 322.409 221.484C322.772 221.484 323.074 221.432 323.318 221.327C323.562 221.223 323.743 221.087 323.861 220.92C323.98 220.746 324.039 220.551 324.039 220.335C324.039 220.064 323.924 219.848 323.694 219.687C323.464 219.52 323.109 219.416 322.629 219.374L321.96 219.322C321.229 219.259 320.644 219.033 320.205 218.643C319.774 218.246 319.558 217.724 319.558 217.076C319.558 216.589 319.673 216.171 319.902 215.823C320.132 215.467 320.453 215.196 320.863 215.008C321.281 214.813 321.769 214.715 322.326 214.715C322.904 214.715 323.402 214.816 323.82 215.018C324.237 215.22 324.561 215.506 324.791 215.875C325.021 216.237 325.136 216.665 325.136 217.16H323.684C323.684 216.951 323.632 216.759 323.527 216.585C323.43 216.404 323.28 216.261 323.078 216.157C322.883 216.045 322.632 215.99 322.326 215.99C322.033 215.99 321.79 216.038 321.595 216.136C321.4 216.233 321.253 216.366 321.156 216.533C321.058 216.7 321.01 216.881 321.01 217.076C321.01 217.313 321.097 217.522 321.271 217.703C321.445 217.877 321.72 217.978 322.096 218.006L322.765 218.068C323.308 218.11 323.785 218.225 324.196 218.413C324.606 218.601 324.923 218.855 325.146 219.176C325.376 219.496 325.491 219.882 325.491 220.335C325.491 220.816 325.366 221.24 325.115 221.609C324.864 221.972 324.506 222.254 324.039 222.456C323.579 222.658 323.036 222.759 322.409 222.759ZM328.121 222.602V221.223H329.699C330.096 221.223 330.447 221.164 330.754 221.045C331.067 220.92 331.332 220.746 331.548 220.523C331.763 220.3 331.927 220.039 332.039 219.74C332.157 219.433 332.216 219.096 332.216 218.726C332.216 218.343 332.157 218.002 332.039 217.703C331.927 217.396 331.763 217.135 331.548 216.919C331.332 216.703 331.067 216.54 330.754 216.428C330.447 216.317 330.096 216.261 329.699 216.261H328.121V214.882H329.605C330.294 214.882 330.897 214.983 331.412 215.185C331.927 215.387 332.355 215.666 332.697 216.021C333.038 216.369 333.292 216.77 333.459 217.222C333.633 217.668 333.72 218.131 333.72 218.612V218.841C333.72 219.301 333.633 219.754 333.459 220.199C333.292 220.645 333.038 221.049 332.697 221.411C332.355 221.773 331.927 222.062 331.412 222.278C330.897 222.494 330.294 222.602 329.605 222.602H328.121ZM326.847 222.602V214.882H328.33V222.602H326.847ZM338.485 222.759C337.796 222.759 337.204 222.637 336.709 222.393C336.215 222.149 335.811 221.832 335.498 221.442C335.191 221.052 334.965 220.628 334.819 220.168C334.673 219.708 334.599 219.266 334.599 218.841V218.612C334.599 218.138 334.673 217.671 334.819 217.212C334.972 216.752 335.205 216.334 335.519 215.958C335.832 215.582 336.229 215.283 336.709 215.06C337.197 214.83 337.771 214.715 338.433 214.715C339.122 214.715 339.721 214.841 340.23 215.091C340.745 215.335 341.156 215.683 341.462 216.136C341.769 216.582 341.953 217.104 342.016 217.703H340.522C340.466 217.355 340.341 217.062 340.146 216.825C339.958 216.582 339.718 216.401 339.425 216.282C339.133 216.157 338.802 216.094 338.433 216.094C338.057 216.094 337.723 216.16 337.43 216.293C337.138 216.418 336.894 216.599 336.699 216.836C336.504 217.073 336.354 217.351 336.25 217.671C336.152 217.992 336.104 218.347 336.104 218.737C336.104 219.113 336.152 219.461 336.25 219.781C336.354 220.102 336.507 220.384 336.709 220.628C336.911 220.864 337.159 221.049 337.451 221.181C337.751 221.314 338.095 221.38 338.485 221.38C339.056 221.38 339.537 221.24 339.927 220.962C340.324 220.676 340.564 220.279 340.647 219.771H342.141C342.072 220.314 341.887 220.812 341.588 221.265C341.288 221.717 340.877 222.08 340.355 222.351C339.833 222.623 339.209 222.759 338.485 222.759Z" fill="#020617"/>
<path d="M352.003 210.5V227.62" stroke="#CBD5E1" stroke-width="0.580318"/>
<path d="M362.124 222.06V215.282H363.925L365.624 219.33H365.791L367.481 215.282H369.31V222.06H368.001V216.275L368.168 216.294L366.339 220.677H364.993L363.154 216.294L363.331 216.275V222.06H362.124ZM373.935 222.06V220.565H373.722V218.903C373.722 218.612 373.651 218.396 373.508 218.253C373.366 218.111 373.146 218.04 372.849 218.04C372.694 218.04 372.509 218.043 372.292 218.049C372.075 218.055 371.855 218.064 371.633 218.077C371.416 218.083 371.221 218.092 371.048 218.105V217.009C371.19 216.997 371.351 216.984 371.53 216.972C371.71 216.959 371.893 216.953 372.078 216.953C372.27 216.947 372.45 216.944 372.617 216.944C373.137 216.944 373.567 217.012 373.907 217.148C374.254 217.284 374.514 217.498 374.687 217.789C374.867 218.08 374.957 218.461 374.957 218.931V222.06H373.935ZM372.31 222.19C371.945 222.19 371.623 222.125 371.345 221.995C371.072 221.865 370.859 221.679 370.704 221.438C370.556 221.197 370.481 220.906 370.481 220.565C370.481 220.194 370.571 219.89 370.751 219.655C370.936 219.42 371.193 219.244 371.521 219.126C371.855 219.008 372.245 218.95 372.691 218.95H373.861V219.72H372.673C372.375 219.72 372.146 219.794 371.985 219.943C371.831 220.085 371.753 220.271 371.753 220.5C371.753 220.729 371.831 220.915 371.985 221.057C372.146 221.2 372.375 221.271 372.673 221.271C372.852 221.271 373.016 221.24 373.165 221.178C373.319 221.11 373.446 220.998 373.545 220.844C373.651 220.683 373.709 220.466 373.722 220.194L374.037 220.556C374.007 220.909 373.92 221.206 373.777 221.447C373.641 221.689 373.449 221.874 373.202 222.004C372.96 222.128 372.663 222.19 372.31 222.19ZM375.763 222.06L377.407 219.367L377.379 219.581L375.828 217.018H377.231L378.243 218.792H378.382L379.338 217.018H380.657L379.19 219.572L379.218 219.386L380.954 222.06H379.552L378.354 220.157H378.215L377.082 222.06H375.763Z" fill="#10B981"/>
</g>
<defs>
<filter id="filter0_d_290_3632" x="0.01809" y="0.839363" width="407.964" height="342.968" filterUnits="userSpaceOnUse" color-interpolation-filters="sRGB">
<feFlood flood-opacity="0" result="BackgroundImageFix"/>
<feColorMatrix in="SourceAlpha" type="matrix" values="0 0 0 0 0 0 0 0 0 0 0 0 0 0 0 0 0 0 127 0" result="hardAlpha"/>
<feOffset dy="2.32127"/>
<feGaussianBlur stdDeviation="1.74095"/>
<feComposite in2="hardAlpha" operator="out"/>
<feColorMatrix type="matrix" values="0 0 0 0 0 0 0 0 0 0 0 0 0 0 0 0 0 0 0.05 0"/>
<feBlend mode="normal" in2="BackgroundImageFix" result="effect1_dropShadow_290_3632"/>
<feBlend mode="normal" in="SourceGraphic" in2="effect1_dropShadow_290_3632" result="shape"/>
</filter>
<clipPath id="clip0_290_3632">
<rect width="23.2127" height="23.2127" fill="white" transform="translate(282.862 207.454)"/>
</clipPath>
</defs>
</svg>
