<svg width="96" height="97" viewBox="0 0 96 97" fill="none" xmlns="http://www.w3.org/2000/svg">
<circle cx="48" cy="48.522" r="48" fill="#F8FAFA"/>
<rect width="52" height="52" transform="translate(22 22.522)" fill="#F8FAFA"/>
<path d="M42.234 68.7932C45.8848 69.6982 49.5737 69.6943 53.2246 68.761C57.6803 67.6199 60.5629 64.8232 61.7702 60.3618C62.6824 56.9864 62.7106 53.5691 62.0794 50.1507C61.4546 46.7864 59.9415 43.9499 56.9754 42.0466C56.7102 41.8753 56.6759 41.6509 56.6709 41.3687C56.6468 39.4331 56.602 37.4985 56.5803 35.5631C56.5383 31.3345 53.0732 27.7279 48.902 27.583C44.358 27.4272 40.6808 30.6832 40.3406 35.0946C40.2016 36.8848 40.262 38.6718 40.233 40.4605C40.2242 40.9544 40.0746 41.2188 39.6044 41.4443C37.0049 42.6889 35.1894 44.6783 34.0973 47.3482C33.144 49.6755 32.9097 52.1172 32.834 54.6686C32.8935 56.0933 32.9695 57.5896 33.2578 59.0674C34.2555 64.1511 37.1371 67.5264 42.234 68.7932ZM45.3477 35.693C45.4038 33.8796 46.7411 32.559 48.4711 32.5478C50.1948 32.5364 51.5655 33.8546 51.6629 35.6445C51.6972 36.2937 51.6685 36.9481 51.6685 37.6002H51.6353C51.6353 38.2772 51.6174 38.9536 51.6418 39.6294C51.657 40.0416 51.4813 40.1208 51.1179 40.0624C49.3455 39.7773 47.5651 39.672 45.7763 39.9116C45.3906 39.9638 45.3351 39.7825 45.3386 39.4634C45.3477 38.2065 45.3099 36.9475 45.3477 35.693ZM44.8945 49.4605C46.1764 47.8839 48.4741 47.6152 50.095 48.8542C51.7148 50.0888 52.0601 52.3885 50.8685 54.028C50.7979 54.1254 50.7395 54.2503 50.6406 54.3049C49.6873 54.8376 49.7847 55.643 49.9783 56.5369C50.2435 57.7368 50.4118 58.9589 50.6521 60.1654C50.7506 60.6576 50.6673 60.8776 50.1068 60.8447C49.3846 60.8036 48.6577 60.8353 47.9317 60.8353C47.1834 60.8344 46.4331 60.8122 45.6848 60.8427C45.2278 60.8611 45.0914 60.7156 45.1579 60.2589C45.3774 58.7538 45.5378 57.2391 45.7883 55.7404C45.8734 55.2262 45.7079 54.9798 45.3392 54.6668C43.7769 53.3381 43.601 51.0542 44.8945 49.4605Z" fill="#1B2022"/>
</svg>
