<svg width="345" height="621" viewBox="0 0 345 621" fill="none" xmlns="http://www.w3.org/2000/svg">
<path d="M233.282 331.116C233.282 331.116 218.618 320.221 213.945 322.719C209.272 325.218 179.05 342.085 179.05 342.085L230.168 334.545" fill="black"/>
<path d="M181.962 282.891C181.962 282.891 200.48 274.852 201.985 273.598C203.49 272.344 200.411 253.846 200.411 253.846C200.411 253.846 213.759 276.299 207.919 279.436C202.079 282.572 185.66 288.337 185.353 288.631C184.241 289.699 180.699 284.447 181.962 282.891Z" fill="black"/>
<path d="M161.758 350.535C156.469 328.022 147.895 304.779 168.688 288.055C168.688 288.055 183.001 283.645 187.286 286.593C191.571 289.542 220.897 334.212 220.897 334.212" fill="#00CFCA"/>
<path d="M184.543 305.211C184.543 305.211 154.58 306.798 162.48 293.151C170.38 279.505 201.792 278.49 201.792 278.49L211.633 292.85L197.928 300.526C192.946 303.018 188.125 305.222 184.543 305.211Z" fill="#00CFCA"/>
<path d="M165.363 290.097C165.363 290.097 140.637 300.831 138.115 301.325C135.593 301.819 122.785 287.545 122.785 287.545C122.785 287.545 129.056 313.07 137.371 310.063C145.685 307.057 166.442 296.681 166.988 296.605C168.97 296.329 167.911 290.001 165.363 290.097Z" fill="black"/>
<path d="M165.693 297.768C162.24 297.635 155.317 302.283 156.732 310.539C160.319 308.932 163.702 306.903 166.809 304.495C171.134 300.948 168.373 298.407 168.373 298.407" fill="black"/>
<path d="M166.258 296.319C162.805 296.186 151.245 299.842 152.658 308.099C152.658 308.099 161.165 306.076 165.49 302.528C169.816 298.98 170.388 297.531 170.388 297.531" fill="#00CFCA"/>
<path d="M164.207 298.255C162.081 298.173 154.962 300.425 155.834 305.509L164.207 298.255Z" fill="black"/>
<path d="M174.387 294.048C177.86 293.743 181.41 285.535 181.41 285.535C171.026 282.26 168.045 287.002 169.149 290.407C169.386 291.571 170.062 292.6 171.038 293.278C172.014 293.956 173.213 294.232 174.387 294.048Z" fill="black"/>
<path d="M170.181 290.113C170.554 290.976 171.252 291.658 172.123 292.011C172.995 292.364 173.97 292.36 174.839 292C175.708 291.64 176.4 290.953 176.767 290.087C177.133 289.221 177.144 288.246 176.798 287.372C176.798 287.372 170.167 290.086 170.181 290.113Z" fill="white"/>
<path d="M171.696 289.449C171.954 290.048 172.437 290.522 173.04 290.767C173.644 291.013 174.32 291.011 174.923 290.761C175.525 290.512 176.005 290.035 176.258 289.435C176.512 288.834 176.518 288.158 176.277 287.552L171.672 289.384C171.678 289.407 171.687 289.428 171.696 289.449Z" fill="black"/>
<path d="M195.064 282.756C195.064 282.756 188.013 282.732 188.764 284.459C189.514 286.187 191.767 287.525 191.767 287.525" stroke="#091C1B" stroke-width="0.423377" stroke-miterlimit="10"/>
<path d="M195.819 284.504C195.819 284.504 191.176 284.487 191.67 285.625C192.164 286.763 193.722 286.2 193.722 286.2" fill="black"/>
<path d="M205.644 312.28L184.478 306.443L197.929 300.528L205.644 312.28Z" fill="black"/>
<path d="M155.878 309.786L152.686 319.039L155.442 317.243L154.435 323.068L155.64 320.904L154.831 327.659L157.373 325.681" fill="#00CFCA"/>
<path d="M203.818 289.467C203.234 288.456 203.307 287.321 203.981 286.932C204.655 286.542 205.675 287.047 206.258 288.058C206.842 289.069 206.769 290.204 206.095 290.593C205.421 290.982 204.401 290.478 203.818 289.467Z" fill="black"/>
<path d="M176.505 344.077C175.8 343.372 162.412 321.528 151.842 323.642C141.273 325.756 122.248 333.507 128.589 352.532C129.999 361.693 143.387 371.558 143.387 371.558" fill="black"/>
<path d="M201.677 621C126.812 621 66.123 618.46 66.123 615.327C66.123 612.194 126.812 609.654 201.677 609.654C276.541 609.654 337.23 612.194 337.23 615.327C337.23 618.46 276.541 621 201.677 621Z" fill="#091C1B"/>
<path d="M237.213 422.085C232.478 484.407 199.95 528.81 148.743 561.171L144.944 542.136L128.337 560.025L105.604 578.451C105.604 578.451 66.2672 584.713 65.4343 585.892C64.6014 587.072 72.4103 542.2 72.4103 542.2L63.0386 547.961C63.0386 547.961 102.569 470.678 96.2222 460.891C89.8755 451.105 73.11 456.066 73.11 456.066C116.617 436.359 145.707 391.782 170.773 340.265" fill="#47D5CD"/>
<path d="M99.6093 544.559C119.002 527.029 135.221 505.739 144.723 481.276C149.716 468.297 151.98 454.427 151.372 440.534C150.875 431.825 149.896 423.151 148.44 414.55C147.865 410.874 147.249 407.205 146.678 403.528C146.396 401.692 146.114 399.856 145.858 398.016C145.664 396.618 140.292 398.139 145.598 396.352C134.697 400.026 142.825 372.54 141.977 370.22C151.606 355.261 162.426 357.429 170.777 340.267L237.213 422.085C232.478 484.406 199.95 528.811 148.743 561.173L144.944 542.137L128.337 560.026L105.604 578.452C105.604 578.452 66.2672 584.713 65.4343 585.893C65.0693 586.41 66.3637 578.085 67.9336 568.569C79.1619 561.489 89.7596 553.456 99.6093 544.559Z" fill="black"/>
<path d="M237.446 406.242L325.64 515.175L311.461 530.128L212.727 425.785C217.559 413.768 224.012 407.981 237.446 406.242Z" fill="#00CFCA"/>
<path d="M246.099 461.058L212.722 425.785C217.556 413.768 224.007 407.981 237.442 406.242L260.391 434.588C253.114 441.621 248.711 450.988 246.099 461.058Z" fill="black"/>
<path d="M196.91 423.746L243.036 412.162C243.036 412.162 256.983 335.767 240.147 332.044C223.312 328.321 165.023 338.983 149.761 352.093C134.499 365.203 196.91 423.746 196.91 423.746Z" fill="#00CFCA"/>
<path d="M175.719 395.063C175.221 393.082 176.565 377.476 177.558 377.227C178.55 376.979 196.383 378.817 206.289 376.33C216.194 373.842 248.551 363.359 248.551 363.359L247.943 368.382C239.186 370.552 230.58 372.48 222.176 375.867C213.892 379.161 206.69 384.7 201.382 391.863C199.292 394.762 198.058 398.19 197.822 401.756C197.585 405.322 198.355 408.883 200.043 412.032C202.259 416.037 205.66 419.258 209.778 421.254C203.109 423.112 197.829 424.308 196.901 423.748C194.077 422.043 171.57 399.744 171.57 399.744L175.719 395.063Z" fill="black"/>
<path d="M221.613 340.891C221.862 341.881 231.916 363.048 231.916 363.048" stroke="#3C170E" stroke-width="0.229435" stroke-miterlimit="10"/>
<path d="M200.025 371.325C199.75 370.23 200.747 369.036 202.251 368.658C203.756 368.279 205.199 368.86 205.474 369.954C205.75 371.048 204.753 372.242 203.248 372.621C201.744 372.999 200.301 372.419 200.025 371.325Z" stroke="#3C170E" stroke-width="0.229485" stroke-miterlimit="10"/>
<path d="M243.034 412.163C243.034 412.163 240.251 432.738 228.404 433.065C219.04 422.165 196.601 427.8 196.601 427.8L196.908 423.747L243.034 412.163Z" fill="black"/>
<path d="M290.633 471.471L278.173 494.333L309.847 529.627L325.319 514.407L290.633 471.471Z" fill="#008996"/>
<path d="M159.259 559.374L178.073 567.778L229.456 433.635C220.403 424.377 212.23 421.492 199.151 425.018L197.304 431.239L178.011 496.227L159.259 559.374Z" fill="#00CFCA"/>
<g style="mix-blend-mode:overlay" opacity="0.58">
<path d="M175.28 349.38L198.064 343.648L205.665 373.863L182.88 379.594L175.28 349.38Z" fill="#E5E0D3"/>
</g>
<g style="mix-blend-mode:overlay" opacity="0.58">
<path d="M205.18 386.614L213.6 384.496L221.2 414.71L212.78 416.828L205.18 386.614Z" fill="#E5E0D3"/>
</g>
<path d="M240.502 228.524L230.419 224.654L225.138 222.626L223.968 218.947C222.937 218.722 221.865 218.773 220.86 219.094C219.855 219.416 218.953 219.997 218.244 220.778C217.535 221.56 217.044 222.514 216.822 223.546C216.6 224.577 216.653 225.649 216.978 226.653L222.409 243.723L242.342 242.776L241.749 238.169L240.502 228.524Z" fill="#00CFCA"/>
<path d="M242.334 242.776L222.401 243.723L219.23 327.011L231.312 364.987C231.312 364.987 234.934 367.88 247.629 361.145C251.456 359.112 252.491 347.546 252.076 332.38C251.958 328.189 251.733 323.728 251.424 319.116C250.852 310.531 249.987 301.434 249.023 292.626C246.148 266.432 242.334 242.776 242.334 242.776Z" fill="#00CFCA"/>
<path d="M224.461 241.72C224.461 241.72 213.103 239.939 215.218 233.87C217.333 227.802 221.008 226.632 221.008 226.632" fill="#00CFCA"/>
<path d="M221.321 240.351L242.289 242.253L246.869 281.108C246.869 281.108 232.499 286.165 227.522 276.611C222.545 267.058 224.178 267.844 224.178 267.844C223.241 256.767 222.322 243.963 221.321 240.351Z" fill="#3C170E"/>
<path d="M222.509 248.213L241.971 247.289L249.362 291.501C249.362 291.501 233.836 296.965 228.458 286.639C223.08 276.313 221.163 276.102 221.163 276.102L222.509 248.213Z" fill="black"/>
<path d="M222.4 243.724L242.332 242.777L249.902 288.058C249.902 288.058 234 293.654 228.493 283.082C222.985 272.509 221.023 272.29 221.023 272.29L222.4 243.724Z" fill="#008996"/>
<path d="M231.818 258.592L243.567 258.034L248.03 284.729C248.03 284.729 238.659 288.028 235.409 281.796C232.16 275.564 231.005 275.434 231.005 275.434L231.818 258.592Z" fill="#00CFCA"/>
<path d="M242.986 244.873L236.438 245.726L236.969 254.131L241.99 253.069" fill="#00CFCA"/>
<g style="mix-blend-mode:overlay" opacity="0.58">
<path d="M240.493 228.525L230.409 224.655L233.214 239.753L241.74 238.17L240.493 228.525Z" fill="#E5E0D3"/>
</g>
<path d="M106.06 262.462L95.3967 264.179L89.8118 265.077L86.9523 262.484C85.948 262.807 85.0466 263.389 84.339 264.172C83.6315 264.955 83.1428 265.91 82.9222 266.942C82.7016 267.974 82.7569 269.045 83.0825 270.049C83.4082 271.052 83.9927 271.952 84.7771 272.658L98.0476 284.691L114.81 273.863L111.983 270.176L106.06 262.462Z" fill="#00CFCA"/>
<path d="M114.804 273.862L98.0421 284.69L137.124 358.311L166.641 385.082C166.641 385.082 171.225 385.765 178.822 373.566C181.111 369.887 176.199 359.364 168.223 346.458C166.017 342.893 163.583 339.147 160.999 335.314C156.193 328.178 150.877 320.745 145.621 313.611C129.981 292.404 114.804 273.862 114.804 273.862Z" fill="#00CFCA"/>
<path d="M98.8252 281.923C98.8252 281.923 88.109 286.086 86.8907 279.775C85.6724 273.465 88.2633 270.609 88.2633 270.609" fill="#00CFCA"/>
<path d="M95.4218 282.313L114.509 273.429L137.979 304.731C137.979 304.731 128.091 316.32 118.99 310.558C109.889 304.795 111.695 304.655 111.695 304.655C105.325 295.546 98.1008 284.935 95.4218 282.313Z" fill="#3C170E"/>
<path d="M99.5447 287.707L116.306 276.88L145.591 312.236C145.591 312.236 134.649 325.06 124.577 318.684C114.505 312.308 112.697 313.103 112.697 313.103L99.5447 287.707Z" fill="black"/>
<path d="M98.0457 284.691L114.806 273.863L144.092 309.219C144.092 309.219 133.149 322.044 123.078 315.667C113.007 309.291 111.198 310.086 111.198 310.086L98.0457 284.691Z" fill="#008996"/>
<path d="M113.647 292.82L123.527 286.438L140.791 307.279C140.791 307.279 134.341 314.84 128.403 311.08C122.466 307.321 121.401 307.79 121.401 307.79L113.647 292.82Z" fill="#00CFCA"/>
<path d="M116.418 275.35L111.184 279.376L115.863 286.377L119.672 282.937" fill="#00CFCA"/>
<g style="mix-blend-mode:overlay" opacity="0.58">
<path d="M145.624 313.613L130.996 329.741L159.746 355.813L169.786 344.742C165.324 338.496 161.401 333.468 161.401 333.468C161.401 333.468 161.26 334.136 161.007 335.316C156.196 328.179 150.881 320.745 145.624 313.613Z" fill="#E5E0D3"/>
</g>
<g style="mix-blend-mode:overlay" opacity="0.58">
<path d="M106.053 262.462L95.3892 264.179L105.395 275.826L111.974 270.177L106.053 262.462Z" fill="#E5E0D3"/>
</g>
<g style="mix-blend-mode:overlay" opacity="0.58">
<path d="M178.006 496.261L182.782 496.943L208.279 442.849C208.279 442.849 202.47 436.872 197.154 431.233L178.006 496.261Z" fill="#E5E0D3"/>
</g>
<path d="M174.923 505.665L195.208 521.988L179.518 566.74L159.388 558.631L174.923 505.665Z" fill="#008996"/>
<path d="M176.509 516.138L186.606 527.569L174.847 552.504L170.948 533.892L176.509 516.138Z" fill="#00CFCA"/>
<path d="M173.694 292.639C171.748 292.639 170.17 291.062 170.17 289.116C170.17 287.17 171.748 285.593 173.694 285.593C175.639 285.593 177.217 287.17 177.217 289.116C177.217 291.062 175.639 292.639 173.694 292.639Z" fill="white"/>
<path d="M173.692 290.524C172.914 290.524 172.283 289.894 172.283 289.115C172.283 288.337 172.914 287.706 173.692 287.706C174.471 287.706 175.102 288.337 175.102 289.115C175.102 289.894 174.471 290.524 173.692 290.524Z" fill="black"/>
<path d="M233.282 331.116C233.282 331.116 218.618 320.221 213.945 322.719C209.272 325.218 179.05 342.085 179.05 342.085L230.168 334.545" fill="black"/>
<path d="M181.962 282.891C181.962 282.891 200.48 274.852 201.985 273.598C203.49 272.344 200.411 253.846 200.411 253.846C200.411 253.846 213.759 276.299 207.919 279.436C202.079 282.572 185.66 288.337 185.353 288.631C184.241 289.699 180.699 284.447 181.962 282.891Z" fill="black"/>
<path d="M161.758 350.535C156.469 328.022 147.895 304.779 168.688 288.055C168.688 288.055 183.001 283.645 187.286 286.593C191.571 289.542 220.897 334.212 220.897 334.212" fill="#00CFCA"/>
<path d="M184.543 305.211C184.543 305.211 154.58 306.798 162.48 293.151C170.38 279.505 201.792 278.49 201.792 278.49L211.633 292.85L197.928 300.526C192.946 303.018 188.125 305.222 184.543 305.211Z" fill="#00CFCA"/>
<path d="M165.363 290.097C165.363 290.097 140.637 300.831 138.115 301.325C135.593 301.819 122.785 287.545 122.785 287.545C122.785 287.545 129.056 313.07 137.371 310.063C145.685 307.057 166.442 296.681 166.988 296.605C168.97 296.329 167.911 290.001 165.363 290.097Z" fill="black"/>
<path d="M165.693 297.768C162.24 297.635 155.317 302.283 156.732 310.539C160.319 308.932 163.702 306.903 166.809 304.495C171.134 300.948 168.373 298.407 168.373 298.407" fill="black"/>
<path d="M166.258 296.319C162.805 296.186 151.245 299.842 152.658 308.099C152.658 308.099 161.165 306.076 165.49 302.528C169.816 298.98 170.388 297.531 170.388 297.531" fill="#00CFCA"/>
<path d="M164.207 298.255C162.081 298.173 154.962 300.425 155.834 305.509L164.207 298.255Z" fill="black"/>
<path d="M174.387 294.048C177.86 293.743 181.41 285.535 181.41 285.535C171.026 282.26 168.045 287.002 169.149 290.407C169.386 291.571 170.062 292.6 171.038 293.278C172.014 293.956 173.213 294.232 174.387 294.048Z" fill="black"/>
<path d="M170.181 290.113C170.554 290.976 171.252 291.658 172.123 292.011C172.995 292.364 173.97 292.36 174.839 292C175.708 291.64 176.4 290.953 176.767 290.087C177.133 289.221 177.144 288.246 176.798 287.372C176.798 287.372 170.167 290.086 170.181 290.113Z" fill="white"/>
<path d="M171.696 289.449C171.954 290.048 172.437 290.522 173.04 290.767C173.644 291.013 174.32 291.011 174.923 290.761C175.525 290.512 176.005 290.035 176.258 289.435C176.512 288.834 176.518 288.158 176.277 287.552L171.672 289.384C171.678 289.407 171.687 289.428 171.696 289.449Z" fill="black"/>
<path d="M195.064 282.756C195.064 282.756 188.013 282.732 188.764 284.459C189.514 286.187 191.767 287.525 191.767 287.525" stroke="#091C1B" stroke-width="0.423377" stroke-miterlimit="10"/>
<path d="M195.819 284.504C195.819 284.504 191.176 284.487 191.67 285.625C192.164 286.763 193.722 286.2 193.722 286.2" fill="black"/>
<path d="M205.644 312.28L184.478 306.443L197.929 300.528L205.644 312.28Z" fill="black"/>
<path d="M155.878 309.786L152.686 319.039L155.442 317.243L154.435 323.068L155.64 320.904L154.831 327.659L157.373 325.681" fill="#00CFCA"/>
<path d="M203.818 289.467C203.234 288.456 203.307 287.321 203.981 286.932C204.655 286.542 205.675 287.047 206.258 288.058C206.842 289.069 206.769 290.204 206.095 290.593C205.421 290.982 204.401 290.478 203.818 289.467Z" fill="black"/>
<path d="M176.505 344.077C175.8 343.372 162.412 321.528 151.842 323.642C141.273 325.756 122.248 333.507 128.589 352.532C129.999 361.693 143.387 371.558 143.387 371.558" fill="black"/>
<path d="M201.677 621C126.812 621 66.123 618.46 66.123 615.327C66.123 612.194 126.812 609.654 201.677 609.654C276.541 609.654 337.23 612.194 337.23 615.327C337.23 618.46 276.541 621 201.677 621Z" fill="#404B51"/>
<path d="M237.213 422.085C232.478 484.407 199.95 528.81 148.743 561.171L144.944 542.136L128.337 560.025L105.604 578.451C105.604 578.451 66.2672 584.713 65.4343 585.892C64.6014 587.072 72.4103 542.2 72.4103 542.2L63.0386 547.961C63.0386 547.961 102.569 470.678 96.2222 460.891C89.8755 451.105 73.11 456.066 73.11 456.066C116.617 436.359 145.707 391.782 170.773 340.265" fill="#47D5CD"/>
<path d="M99.6093 544.559C119.002 527.029 135.221 505.739 144.723 481.276C149.716 468.297 151.98 454.427 151.372 440.534C150.875 431.825 149.896 423.151 148.44 414.55C147.865 410.874 147.249 407.205 146.678 403.528C146.396 401.692 146.114 399.856 145.858 398.016C145.664 396.618 140.292 398.139 145.598 396.352C134.697 400.026 142.825 372.54 141.977 370.22C151.606 355.261 162.426 357.429 170.777 340.267L237.213 422.085C232.478 484.406 199.95 528.811 148.743 561.173L144.944 542.137L128.337 560.026L105.604 578.452C105.604 578.452 66.2672 584.713 65.4343 585.893C65.0693 586.41 66.3637 578.085 67.9336 568.569C79.1619 561.489 89.7596 553.456 99.6093 544.559Z" fill="black"/>
<path d="M237.446 406.242L325.64 515.175L311.461 530.128L212.727 425.785C217.559 413.768 224.012 407.981 237.446 406.242Z" fill="#00CFCA"/>
<path d="M246.099 461.058L212.722 425.785C217.556 413.768 224.007 407.981 237.442 406.242L260.391 434.588C253.114 441.621 248.711 450.988 246.099 461.058Z" fill="black"/>
<path d="M196.91 423.746L243.036 412.162C243.036 412.162 256.983 335.767 240.147 332.044C223.312 328.321 165.023 338.983 149.761 352.093C134.499 365.203 196.91 423.746 196.91 423.746Z" fill="#00CFCA"/>
<path d="M175.719 395.063C175.221 393.082 176.565 377.476 177.558 377.227C178.55 376.979 196.383 378.817 206.289 376.33C216.194 373.842 248.551 363.359 248.551 363.359L247.943 368.382C239.186 370.552 230.58 372.48 222.176 375.867C213.892 379.161 206.69 384.7 201.382 391.863C199.292 394.762 198.058 398.19 197.822 401.756C197.585 405.322 198.355 408.883 200.043 412.032C202.259 416.037 205.66 419.258 209.778 421.254C203.109 423.112 197.829 424.308 196.901 423.748C194.077 422.043 171.57 399.744 171.57 399.744L175.719 395.063Z" fill="black"/>
<path d="M221.613 340.891C221.862 341.881 231.916 363.048 231.916 363.048" stroke="#3C170E" stroke-width="0.229435" stroke-miterlimit="10"/>
<path d="M200.025 371.325C199.75 370.23 200.747 369.036 202.251 368.658C203.756 368.279 205.199 368.86 205.474 369.954C205.75 371.048 204.753 372.242 203.248 372.621C201.744 372.999 200.301 372.419 200.025 371.325Z" stroke="#3C170E" stroke-width="0.229485" stroke-miterlimit="10"/>
<path d="M243.034 412.163C243.034 412.163 240.251 432.738 228.404 433.065C219.04 422.165 196.601 427.8 196.601 427.8L196.908 423.747L243.034 412.163Z" fill="black"/>
<path d="M290.633 471.471L278.173 494.333L309.847 529.627L325.319 514.407L290.633 471.471Z" fill="#008996"/>
<path d="M159.259 559.374L178.073 567.778L229.456 433.635C220.403 424.377 212.23 421.492 199.151 425.018L197.304 431.239L178.011 496.227L159.259 559.374Z" fill="#00CFCA"/>
<g style="mix-blend-mode:overlay" opacity="0.58">
<path d="M175.28 349.38L198.064 343.648L205.665 373.863L182.88 379.594L175.28 349.38Z" fill="#E5E0D3"/>
</g>
<g style="mix-blend-mode:overlay" opacity="0.58">
<path d="M205.18 386.614L213.6 384.496L221.2 414.71L212.78 416.828L205.18 386.614Z" fill="#E5E0D3"/>
</g>
<path d="M240.502 228.524L230.419 224.654L225.138 222.626L223.968 218.947C222.937 218.722 221.865 218.773 220.86 219.094C219.855 219.416 218.953 219.997 218.244 220.778C217.535 221.56 217.044 222.514 216.822 223.546C216.6 224.577 216.653 225.649 216.978 226.653L222.409 243.723L242.342 242.776L241.749 238.169L240.502 228.524Z" fill="#00CFCA"/>
<path d="M242.334 242.776L222.401 243.723L219.23 327.011L231.312 364.987C231.312 364.987 234.934 367.88 247.629 361.145C251.456 359.112 252.491 347.546 252.076 332.38C251.958 328.189 251.733 323.728 251.424 319.116C250.852 310.531 249.987 301.434 249.023 292.626C246.148 266.432 242.334 242.776 242.334 242.776Z" fill="#00CFCA"/>
<path d="M224.461 241.72C224.461 241.72 213.103 239.939 215.218 233.87C217.333 227.802 221.008 226.632 221.008 226.632" fill="#00CFCA"/>
<path d="M221.321 240.351L242.289 242.253L246.869 281.108C246.869 281.108 232.499 286.165 227.522 276.611C222.545 267.058 224.178 267.844 224.178 267.844C223.241 256.767 222.322 243.963 221.321 240.351Z" fill="#3C170E"/>
<path d="M222.509 248.213L241.971 247.289L249.362 291.501C249.362 291.501 233.836 296.965 228.458 286.639C223.08 276.313 221.163 276.102 221.163 276.102L222.509 248.213Z" fill="black"/>
<path d="M222.4 243.724L242.332 242.777L249.902 288.058C249.902 288.058 234 293.654 228.493 283.082C222.985 272.509 221.023 272.29 221.023 272.29L222.4 243.724Z" fill="#008996"/>
<path d="M231.818 258.592L243.567 258.034L248.03 284.729C248.03 284.729 238.659 288.028 235.409 281.796C232.16 275.564 231.005 275.434 231.005 275.434L231.818 258.592Z" fill="#00CFCA"/>
<path d="M242.986 244.873L236.438 245.726L236.969 254.131L241.99 253.069" fill="#00CFCA"/>
<g style="mix-blend-mode:overlay" opacity="0.58">
<path d="M240.493 228.525L230.409 224.655L233.214 239.753L241.74 238.17L240.493 228.525Z" fill="#E5E0D3"/>
</g>
<path d="M106.06 262.462L95.3967 264.179L89.8118 265.077L86.9523 262.484C85.948 262.807 85.0466 263.389 84.339 264.172C83.6315 264.955 83.1428 265.91 82.9222 266.942C82.7016 267.974 82.7569 269.045 83.0825 270.049C83.4082 271.052 83.9927 271.952 84.7771 272.658L98.0476 284.691L114.81 273.863L111.983 270.176L106.06 262.462Z" fill="#00CFCA"/>
<path d="M114.804 273.862L98.0421 284.69L137.124 358.311L166.641 385.082C166.641 385.082 171.225 385.765 178.822 373.566C181.111 369.887 176.199 359.364 168.223 346.458C166.017 342.893 163.583 339.147 160.999 335.314C156.193 328.178 150.877 320.745 145.621 313.611C129.981 292.404 114.804 273.862 114.804 273.862Z" fill="#00CFCA"/>
<path d="M98.8252 281.923C98.8252 281.923 88.109 286.086 86.8907 279.775C85.6724 273.465 88.2633 270.609 88.2633 270.609" fill="#00CFCA"/>
<path d="M95.4218 282.313L114.509 273.429L137.979 304.731C137.979 304.731 128.091 316.32 118.99 310.558C109.889 304.795 111.695 304.655 111.695 304.655C105.325 295.546 98.1008 284.935 95.4218 282.313Z" fill="#3C170E"/>
<path d="M99.5447 287.707L116.306 276.88L145.591 312.236C145.591 312.236 134.649 325.06 124.577 318.684C114.505 312.308 112.697 313.103 112.697 313.103L99.5447 287.707Z" fill="black"/>
<path d="M98.0457 284.691L114.806 273.863L144.092 309.219C144.092 309.219 133.149 322.044 123.078 315.667C113.007 309.291 111.198 310.086 111.198 310.086L98.0457 284.691Z" fill="#008996"/>
<path d="M113.647 292.82L123.527 286.438L140.791 307.279C140.791 307.279 134.341 314.84 128.403 311.08C122.466 307.321 121.401 307.79 121.401 307.79L113.647 292.82Z" fill="#00CFCA"/>
<path d="M116.418 275.35L111.184 279.376L115.863 286.377L119.672 282.937" fill="#00CFCA"/>
<g style="mix-blend-mode:overlay" opacity="0.58">
<path d="M145.624 313.613L130.996 329.741L159.746 355.813L169.786 344.742C165.324 338.496 161.401 333.468 161.401 333.468C161.401 333.468 161.26 334.136 161.007 335.316C156.196 328.179 150.881 320.745 145.624 313.613Z" fill="#E5E0D3"/>
</g>
<g style="mix-blend-mode:overlay" opacity="0.58">
<path d="M106.053 262.462L95.3892 264.179L105.395 275.826L111.974 270.177L106.053 262.462Z" fill="#E5E0D3"/>
</g>
<g style="mix-blend-mode:overlay" opacity="0.58">
<path d="M178.006 496.261L182.782 496.943L208.279 442.849C208.279 442.849 202.47 436.872 197.154 431.233L178.006 496.261Z" fill="#E5E0D3"/>
</g>
<path d="M174.923 505.665L195.208 521.988L179.518 566.74L159.388 558.631L174.923 505.665Z" fill="#008996"/>
<path d="M176.509 516.138L186.606 527.569L174.847 552.504L170.948 533.892L176.509 516.138Z" fill="#00CFCA"/>
<path d="M173.694 292.639C171.748 292.639 170.17 291.062 170.17 289.116C170.17 287.17 171.748 285.593 173.694 285.593C175.639 285.593 177.217 287.17 177.217 289.116C177.217 291.062 175.639 292.639 173.694 292.639Z" fill="white"/>
<path d="M173.692 290.524C172.914 290.524 172.283 289.894 172.283 289.115C172.283 288.337 172.914 287.706 173.692 287.706C174.471 287.706 175.102 288.337 175.102 289.115C175.102 289.894 174.471 290.524 173.692 290.524Z" fill="black"/>
<path d="M179.308 566.429L171.557 581.663L146.092 575.355L159.74 560.262L179.308 566.429Z" fill="black"/>
<path d="M178.314 566.183L167.876 567.054L168.28 565.425L163.813 566.445L164.263 564.629L155.929 564.492L159.94 558.72" fill="#00CFCA"/>
<path d="M164.649 576.166L163.583 577.977L147.901 574.092L155.022 566.2L161.505 568.146C162.299 568.384 163.03 568.801 163.64 569.363C164.25 569.925 164.725 570.619 165.028 571.391C165.33 572.164 165.454 572.995 165.388 573.822C165.322 574.65 165.07 575.451 164.649 576.166Z" fill="#54555A"/>
<path d="M309.972 530.021L322.958 541.172L344.785 525.343L326.253 516.63L309.972 530.021Z" fill="black"/>
<path d="M310.831 529.399L321.056 526.128L320.07 524.77L324.685 523.973L323.586 522.459L331.441 519.076L325.502 515.271" fill="#00CFCA"/>
<path d="M327.498 533.35L329.179 534.618L342.622 524.869L332.947 520.307L327.517 524.653C326.851 525.165 326.312 525.823 325.94 526.576C325.568 527.329 325.374 528.157 325.372 528.997C325.371 529.836 325.561 530.666 325.93 531.42C326.298 532.175 326.835 532.835 327.498 533.35Z" fill="#54555A"/>
<path d="M174.385 349.009C171.661 349.009 169.452 346.8 169.452 344.076C169.452 341.352 171.661 339.144 174.385 339.144C177.109 339.144 179.317 341.352 179.317 344.076C179.317 346.8 177.109 349.009 174.385 349.009Z" fill="black"/>
<path d="M174.392 346.895C172.836 346.895 171.574 345.633 171.574 344.077C171.574 342.52 172.836 341.258 174.392 341.258C175.949 341.258 177.211 342.52 177.211 344.077C177.211 345.633 175.949 346.895 174.392 346.895Z" fill="#95F5F0"/>
<path d="M218.423 328.221C210.09 335.69 191.647 342.313 178.258 343.018" stroke="black" stroke-width="4.43658" stroke-miterlimit="10"/>
<path d="M245.025 406.332C245.025 406.332 243.15 426.923 231.381 427.76C221.592 417.323 199.516 423.904 199.516 423.904L199.645 419.859L245.025 406.332Z" fill="black"/>
<path d="M239.138 411.858L273.031 450.478C273.031 450.478 245.55 480.968 235.685 475.141C225.82 469.313 218.403 461.347 212.432 461.753C206.461 462.158 185.656 467.39 185.656 467.39L201.784 424.858" fill="black"/>
<path d="M243.58 405.359L275.147 448.366C275.147 448.366 248.929 477.241 237.42 471.901C225.911 466.561 222.729 458.141 215.529 458.912C208.328 459.684 186.363 462.457 186.363 462.457L197.899 420.839" fill="#008996"/>
<path d="M194.33 416.588L245.05 401.469L246.94 407.81L196.219 422.928L194.33 416.588Z" fill="black"/>
<path d="M229.753 423.14C222.861 423.14 217.275 417.553 217.275 410.661C217.275 403.77 222.861 398.183 229.753 398.183C236.645 398.183 242.231 403.77 242.231 410.661C242.231 417.553 236.645 423.14 229.753 423.14Z" fill="black"/>
<path d="M229.271 421.554C222.379 421.554 216.792 415.967 216.792 409.076C216.792 402.184 222.379 396.597 229.271 396.597C236.162 396.597 241.749 402.184 241.749 409.076C241.749 415.967 236.162 421.554 229.271 421.554Z" fill="#008996"/>
<path d="M225.789 411.513C227.055 411.131 228.119 410.262 228.745 409.097C229.371 407.932 229.51 406.566 229.129 405.299C228.988 404.806 228.995 404.283 229.15 403.794C229.305 403.306 229.601 402.874 230.001 402.553C230.401 402.233 230.886 402.038 231.397 401.993C231.908 401.948 232.42 402.055 232.87 402.3C233.32 402.546 233.687 402.919 233.925 403.373C234.163 403.826 234.262 404.34 234.209 404.85C234.155 405.36 233.952 405.842 233.625 406.237C233.298 406.632 232.862 406.921 232.371 407.068C231.745 407.257 231.162 407.568 230.657 407.982C230.151 408.397 229.732 408.907 229.424 409.484C229.116 410.06 228.924 410.692 228.861 411.343C228.797 411.993 228.862 412.65 229.053 413.276C229.195 413.767 229.188 414.29 229.034 414.778C228.88 415.266 228.585 415.698 228.187 416.019C227.788 416.34 227.304 416.536 226.794 416.583C226.285 416.629 225.773 416.525 225.323 416.281C224.872 416.038 224.504 415.667 224.264 415.215C224.024 414.764 223.922 414.251 223.972 413.742C224.023 413.232 224.222 412.749 224.546 412.353C224.87 411.957 225.303 411.665 225.792 411.514L225.789 411.513Z" fill="white"/>
<path d="M232.551 409.35C233.047 409.197 233.578 409.195 234.075 409.345C234.573 409.494 235.014 409.788 235.344 410.188C235.675 410.589 235.878 411.079 235.93 411.596C235.981 412.113 235.877 412.633 235.633 413.091C235.388 413.549 235.012 413.923 234.554 414.168C234.095 414.412 233.575 414.514 233.058 414.462C232.542 414.41 232.052 414.205 231.652 413.874C231.252 413.543 230.959 413.101 230.811 412.603C230.711 412.275 230.677 411.931 230.711 411.59C230.744 411.249 230.845 410.918 231.006 410.616C231.168 410.314 231.388 410.046 231.653 409.829C231.918 409.612 232.223 409.449 232.551 409.35Z" fill="white"/>
<path d="M221.754 407.462C221.341 406.075 222.12 404.619 223.494 404.209C224.868 403.799 226.317 404.592 226.731 405.979C227.144 407.366 226.365 408.822 224.991 409.232C223.617 409.641 222.168 408.849 221.754 407.462Z" fill="white"/>
<path d="M240.121 416.747L265.644 457.878" stroke="#091C1B" stroke-width="0.49563" stroke-miterlimit="10"/>
<path d="M229.65 422.167L248.021 469.856" stroke="#091C1B" stroke-width="0.49563" stroke-miterlimit="10"/>
<path d="M204.545 419.008L200.104 461.401" stroke="#091C1B" stroke-width="0.49563" stroke-miterlimit="10"/>
<path d="M215.637 415.701L222.841 463.028" stroke="#091C1B" stroke-width="0.49563" stroke-miterlimit="10"/>
<path d="M275.594 137.795C275.594 174.341 261.076 209.391 235.234 235.234C209.391 261.076 174.341 275.594 137.795 275.594C101.25 275.593 66.2018 261.075 40.3605 235.234C14.5193 209.392 0.00125716 174.345 0 137.799C-2.16245e-08 101.254 14.5175 66.2045 40.3589 40.3622C66.2003 14.5199 101.249 0.00125721 137.795 0C174.341 -2.16245e-08 209.39 14.5175 235.232 40.3589C261.074 66.2002 275.593 101.249 275.594 137.795Z" fill="#111C23"/>
<path d="M156.631 225.103C155.579 225.103 154.561 224.734 153.753 224.06C153.249 223.638 152.843 223.111 152.564 222.516C152.286 221.92 152.142 221.271 152.142 220.614V183.553C152.142 182.501 152.512 181.483 153.186 180.676C153.86 179.869 154.795 179.323 155.83 179.135C166.012 177.27 175.399 172.386 182.77 165.117C184.225 163.666 185.578 162.115 186.818 160.477C173.933 147.639 159.105 153.172 141.936 159.571L136.778 161.467C119.238 168.009 99.3286 175.423 82.3626 158.452C76.8994 152.869 73.4698 145.612 72.624 137.847C71.7781 130.081 73.565 122.256 77.698 115.627C68.4636 101.259 71.6255 81.8802 86.4583 67.0427C95.1235 58.4881 106.162 52.7384 118.139 50.5413C118.786 50.4233 119.45 50.4493 120.086 50.6172C120.722 50.7852 121.313 51.091 121.817 51.513C122.322 51.9342 122.728 52.4612 123.007 53.0568C123.285 53.6523 123.429 54.3019 123.429 54.9593V92.0626C123.428 93.1135 123.06 94.131 122.387 94.9382C121.714 95.7453 120.779 96.2912 119.746 96.4807C109.563 98.3462 100.177 103.23 92.8058 110.498C91.3515 111.951 89.9989 113.501 88.7574 115.139C101.642 127.971 116.47 122.444 133.64 116.04L138.797 114.144C156.337 107.597 176.247 100.183 193.213 117.158C196.681 120.598 199.346 124.761 201.018 129.35C202.689 133.939 203.327 138.841 202.883 143.705C202.365 149.406 200.653 154.935 197.858 159.931C207.112 174.281 203.964 193.683 189.098 208.53C180.437 217.082 169.404 222.832 157.432 225.032C157.166 225.08 156.896 225.104 156.626 225.103H156.631ZM161.115 187.179V214.93C169.279 212.548 176.718 208.167 182.76 202.183C193.189 191.754 196.484 178.656 192.085 168.251C191.136 169.354 190.146 170.43 189.112 171.479C181.369 179.136 171.701 184.559 161.13 187.175L161.115 187.179ZM84.0976 123.07C81.7795 127.797 80.9781 133.126 81.8028 138.326C82.6276 143.527 85.0382 148.345 88.7053 152.124C101.599 165.018 116.442 159.481 133.63 153.072L138.788 151.176C155.744 144.857 174.886 137.722 191.468 152.551C192.799 149.511 193.627 146.275 193.919 142.97C194.25 139.403 193.787 135.807 192.565 132.44C191.344 129.072 189.392 126.017 186.851 123.492C173.957 110.598 159.115 116.135 141.926 122.544L136.769 124.44C119.817 130.759 100.675 137.898 84.0929 123.075L84.0976 123.07ZM114.432 60.6763C106.269 63.0589 98.8293 67.4402 92.7868 73.4233C82.3579 83.8522 79.0632 96.9453 83.4576 107.346C84.4057 106.252 85.3996 105.178 86.4394 104.122C94.1833 96.46 103.856 91.035 114.432 88.422V60.6763Z" fill="#00FFB9"/>
</svg>
