<svg width="25" height="25" viewBox="0 0 25 25" fill="none" xmlns="http://www.w3.org/2000/svg">
<path d="M21.3748 14.7222C20.9498 14.982 20.4539 15.0292 20.076 14.8167C19.6038 14.5333 19.3204 13.8957 19.3204 13.022V10.3536C19.3204 9.07845 18.8245 8.1575 17.9744 7.92136C16.5339 7.4963 15.4477 9.26736 15.0463 9.92855L12.4959 14.0138V8.98399C12.4723 7.8269 12.0945 7.1421 11.3861 6.92957C10.9138 6.78789 10.2054 6.85873 9.52056 7.89775L3.82958 17.0128C3.07393 15.5723 2.67249 13.9665 2.67249 12.3372C2.67249 6.83511 7.08832 2.37206 12.4959 2.37206C17.9035 2.37206 22.3194 6.83511 22.3194 12.3372V12.3608V12.3844C22.3666 13.447 22.036 14.2971 21.3748 14.7222ZM24.4919 12.3372V12.3136V12.29C24.4683 5.60718 19.0842 0.152344 12.4959 0.152344C5.884 0.152344 0.5 5.60718 0.5 12.3372C0.5 19.0436 5.884 24.522 12.4959 24.522C15.5421 24.522 18.4231 23.3649 20.6428 21.2633C21.0914 20.8382 21.1151 20.1534 20.69 19.7048C20.2886 19.2561 19.6038 19.2325 19.1551 19.6339C19.1551 19.6339 19.1551 19.6339 19.1315 19.6575C17.3368 21.3577 14.9282 22.3259 12.4487 22.3259C9.54418 22.3259 6.94663 21.0508 5.15197 19.0199L10.2762 10.8023V14.6041C10.2762 16.4224 10.9846 17.0128 11.575 17.1781C12.1653 17.3434 13.0627 17.2253 14.0308 15.6904L16.8409 11.1329C16.9354 10.9912 17.0062 10.8495 17.1007 10.755V13.0692C17.1007 14.7694 17.7855 16.139 18.9662 16.8002C20.0288 17.4142 21.3748 17.3434 22.4847 16.6585C23.8543 15.7612 24.5863 14.2027 24.4919 12.3372Z" fill="#E7ECEF"/>
</svg>
