<svg width="80" height="80" viewBox="0 0 80 80" fill="none" xmlns="http://www.w3.org/2000/svg">
<circle opacity="0.05" cx="40" cy="40" r="40" fill="white"/>
<path d="M57.7998 44.9108V44.8908L57.7996 44.8898C57.7885 44.1111 57.1535 43.4826 56.3719 43.4826C55.5836 43.4826 54.944 44.1223 54.944 44.9105C54.944 49.4882 51.8619 53.3609 47.664 54.56L47.8556 54.2405L47.8557 54.2404C48.2611 53.5636 48.0412 52.6881 47.3652 52.2811L47.3645 52.2808C46.6833 51.8741 45.8093 52.0949 45.4054 52.7717C45.4053 52.7718 45.4052 52.772 45.4051 52.7721L43.6866 55.6367C43.4225 56.077 43.4149 56.6274 43.6697 57.0742C43.9228 57.5221 44.3968 57.799 44.9117 57.799C52.0183 57.799 57.7998 52.0179 57.7998 44.9108ZM22.2004 35.0876V35.1076L22.2006 35.1086C22.2117 35.8873 22.8467 36.5158 23.6284 36.5158C24.4166 36.5158 25.0563 35.8761 25.0563 35.0879C25.0563 30.5102 28.1384 26.6375 32.3362 25.4384L32.1446 25.7579L32.1446 25.758C31.7391 26.4348 31.9589 27.3106 32.6351 27.7173L32.6356 27.7176C33.3139 28.1228 34.1897 27.9018 34.5948 27.2267L34.5948 27.2267L36.3136 24.3617L36.1421 24.2588L36.3136 24.3617C36.5777 23.9214 36.5854 23.371 36.3306 22.9242C36.0774 22.4763 35.6035 22.1994 35.0885 22.1994C27.9819 22.1994 22.2004 27.9805 22.2004 35.0876ZM51.2147 22.1998H46.7957C44.59 22.1998 42.9318 22.7131 41.8275 23.8174C40.7231 24.9217 40.2097 26.5798 40.2097 28.7855V34.842C40.2097 37.0477 40.7231 38.7058 41.8275 39.8101C42.9318 40.9144 44.59 41.4277 46.7957 41.4277H51.2147C53.4204 41.4277 55.0785 40.9144 56.1828 39.8101C57.2871 38.7058 57.8004 37.0477 57.8004 34.842V28.7855C57.8004 26.5798 57.2871 24.9217 56.1828 23.8174C55.0785 22.7131 53.4204 22.1998 51.2147 22.1998ZM54.9446 34.8417C54.9446 36.3408 54.713 37.2497 54.1678 37.7948C53.6227 38.3399 52.7138 38.5716 51.2147 38.5716H46.7957C45.2966 38.5716 44.3877 38.3399 43.8424 37.7948C43.2972 37.2497 43.0655 36.3408 43.0655 34.8417V28.7852C43.0655 27.2861 43.2972 26.3773 43.8424 25.8321C44.3877 25.287 45.2966 25.0554 46.7957 25.0554H51.2147C52.7138 25.0554 53.6227 25.287 54.1678 25.8321C54.713 26.3773 54.9446 27.2861 54.9446 28.7852V34.8417ZM33.2051 38.5716H28.7861C26.5804 38.5716 24.9223 39.0849 23.818 40.1892C22.7137 41.2934 22.2004 42.9516 22.2004 45.1573V51.2137C22.2004 53.4194 22.7137 55.0775 23.818 56.1818C24.9223 57.2861 26.5804 57.7994 28.7861 57.7994H33.2051C35.4108 57.7994 37.069 57.2861 38.1733 56.1818C39.2777 55.0775 39.791 53.4194 39.791 51.2137V45.1573C39.791 42.9516 39.2777 41.2934 38.1733 40.1892C37.069 39.0849 35.4108 38.5716 33.2051 38.5716ZM36.9352 51.2134C36.9352 52.7125 36.7035 53.6214 36.1583 54.1665C35.6131 54.7117 34.7042 54.9433 33.2051 54.9433H28.7861C27.2869 54.9433 26.3781 54.7117 25.833 54.1665C25.2878 53.6214 25.0562 52.7126 25.0562 51.2134V45.157C25.0562 43.6579 25.2878 42.749 25.833 42.2039C26.3781 41.6587 27.2869 41.4271 28.7861 41.4271H33.2051C34.7042 41.4271 35.6131 41.6587 36.1583 42.2039C36.7035 42.749 36.9352 43.6579 36.9352 45.157V51.2134Z" fill="white" stroke="white" stroke-width="0.4"/>
</svg>
