<svg width="199" height="43" viewBox="0 0 199 43" fill="none" xmlns="http://www.w3.org/2000/svg">
<path d="M51.5941 22.4943L51.5051 29.6483L46.6855 29.6211L46.9117 11.3367L57.1526 11.3925L57.1224 13.8415L51.7011 13.8113L51.6227 20.1072L57.044 20.1373L57.1526 11.3925L62.043 11.4196L61.9043 22.5486L51.5941 22.4943Z" fill="white"/>
<path d="M77.4187 24.829L68.4551 24.7792L68.4219 27.4499L77.9389 27.5027L76.924 29.7239L63.7441 29.6516L63.904 16.8049L72.8675 16.8547L72.8389 19.1996L68.526 19.1846L68.4853 22.4283L72.7982 22.4524L72.8675 16.8562L77.5182 16.8818L77.4187 24.829Z" fill="white"/>
<path d="M79.8398 29.7736L79.9997 16.927L93.6606 17.0024L92.789 19.287L84.5976 19.2418L84.495 27.5086L93.4827 27.5584L92.4904 29.843L79.8398 29.7736Z" fill="white"/>
<path d="M105.134 22.5018L110.27 29.9393L105.066 29.9106L100.164 23.0145L100.079 29.8835L95.4287 29.8578L95.6549 11.5734L100.306 11.599L100.183 21.4568L104.768 17.061L110.527 17.0926L105.134 22.5018Z" fill="white"/>
<path d="M128.702 30.072L112.294 29.9816L112.324 27.5974L123.817 27.6608L123.918 19.5523L128.832 19.5794L128.702 30.072ZM117.432 14.0466L117.364 19.5161L123.918 19.5523L123.889 21.8957L112.445 21.8429L112.57 11.6986L129.508 11.7921L128.564 14.1084L117.432 14.0466Z" fill="white"/>
<path d="M135.989 19.5234L135.858 30.0809L131.207 30.0552L131.433 11.7708L136.084 11.7964L136.016 17.2342L140.377 17.2584L140.349 19.54L135.989 19.5234ZM144.892 30.1291L140.219 30.1035L140.379 17.2568L145.052 17.2825L144.892 30.1291Z" fill="white"/>
<path d="M151.47 30.1653L146.819 30.1397L146.979 17.2931L151.63 17.3187L151.47 30.1653ZM147.047 11.8552L151.698 11.8809L151.649 15.8243L146.999 15.7986L147.047 11.8552Z" fill="white"/>
<path d="M167.072 25.3534L158.108 25.3036L158.075 27.9743L167.592 28.0271L166.577 30.2484L153.397 30.176L153.557 17.3293L162.521 17.3791L162.492 19.724L158.179 19.709L158.139 22.9527L162.451 22.9768L162.521 17.3806L167.172 17.4063L167.072 25.3534Z" fill="white"/>
<path d="M174.288 30.2908L169.494 30.2652L169.72 11.9807L174.514 12.0064L174.288 30.2908Z" fill="white"/>
<path d="M190.223 12.0923L189.996 30.3768L176.215 30.3014L176.375 17.4548L185.506 17.5045L185.477 19.7861L180.995 19.7695L180.893 28.0364L185.374 28.0605L185.506 17.503L185.573 12.0652L190.223 12.0923Z" fill="white"/>
<path d="M32.7484 22.1068C32.7484 22.1068 33.9397 23.4866 34.7148 26.0803C35.033 27.145 28.8487 29.8729 28.8487 29.8729C28.8487 29.8729 31.6837 27.4255 29.084 26.1723C26.4842 24.9192 23.6853 26.0019 21.829 18.848C21.5696 17.8452 20.3406 17.4486 19.7585 17.4486C18.3877 17.4486 13.7703 19.3486 13.7703 19.3486C13.7703 19.3486 13.4792 19.8282 13.2063 20.0921C13.2063 20.0921 12.9529 20.3364 12.9318 20.356C12.6574 20.6199 12.1084 20.9019 11.8355 20.8853C11.5882 20.8702 11.561 20.8853 11.2866 20.6214C11.1132 20.4555 11.0121 20.0921 11.0121 19.8282C11.0121 19.237 11.7616 18.9385 12.1084 18.7711C12.6574 18.5072 13.2334 18.5072 13.4792 18.7711C13.4988 18.7922 13.7537 19.035 13.725 19.035C13.725 19.035 13.725 19.2989 14.5484 18.7711C15.7774 17.9809 18.5069 16.8273 18.997 16.5257C19.1297 16.4442 19.2322 16.3251 19.288 16.1818C19.4313 15.8169 19.7721 15.0584 20.3089 14.5411C20.8578 14.0118 22.5031 12.9547 24.6897 14.0872C28.4808 16.0491 28.8487 15.841 28.8487 15.841C28.8487 15.841 29.6329 14.5411 31.827 12.163C33.905 9.91008 36.2153 8.46241 36.2153 8.46241L37.0386 10.8405C37.0386 10.8405 37.7942 10.2705 40.4678 8.54987C40.3894 7.28466 39.0247 6.27581 37.3463 6.27581C37.3463 6.27581 27.7992 2.15747 24.6218 2.15747C21.4445 2.15747 11.9305 6.27581 11.9305 6.27581C10.2038 6.27581 8.80442 7.34347 8.80442 8.65995C8.80442 8.65995 8.64759 22.906 10.1616 26.201C12.315 30.8818 24.6203 40.6792 24.6203 40.6792C24.6203 40.6792 36.639 30.9693 39.1333 26.2884C39.8315 24.9795 40.1858 21.9243 40.3593 18.7198C38.6251 20.3288 36.1821 21.5971 32.7484 22.1068Z" fill="white"/>
</svg>
