<svg width="163" height="29" viewBox="0 0 163 29" fill="none" xmlns="http://www.w3.org/2000/svg">
<g clip-path="url(#clip0_290_2667)">
<path d="M64.2802 22.4873H60.8387V21.3685C60.2154 22.0782 59.2037 22.7234 57.7842 22.7234C55.4615 22.7234 53.9336 21.1311 53.9336 18.6573V11.1509H57.3752V17.8417C57.3752 18.9824 57.8695 19.7128 58.9882 19.7128C59.9354 19.7128 60.8387 19.0457 60.8387 17.7126V11.1509H64.2802V22.4885V22.4873Z" fill="white"/>
<path d="M65.8076 19.326C65.8076 16.9813 67.787 16.0342 70.1743 15.6909L72.7126 15.2612V15.0676C72.7126 14.2288 72.2609 13.6907 71.1422 13.6907C70.1524 13.6907 69.6363 14.1205 69.4208 15.0457L66.1289 14.5514C66.6232 12.5512 68.4091 10.9163 71.2919 10.9163C74.1747 10.9163 76.0896 12.2712 76.0896 14.9179V19.2846C76.0896 19.8653 76.3051 20.0382 76.9722 19.9518V22.49C74.9928 22.8126 73.6597 22.4474 73.079 21.4784C72.3255 22.2526 71.2079 22.7043 69.7227 22.7043C67.4425 22.7043 65.8076 21.3274 65.8076 19.3272V19.326ZM72.7126 17.4756L70.7331 17.8408C69.8298 17.9918 69.1627 18.2925 69.1627 19.0886C69.1627 19.7984 69.7008 20.1855 70.5176 20.1855C71.6583 20.1855 72.7126 19.5829 72.7126 18.4215V17.4744V17.4756Z" fill="white"/>
<path d="M78.7707 11.1511H82.2123V12.2918C82.8356 11.5602 83.8898 10.915 85.3312 10.915C87.654 10.915 89.1173 12.528 89.1173 15.003V22.4899H85.6757V15.9927C85.6757 14.852 85.2022 14.0132 84.0834 14.0132C83.1363 14.0132 82.211 14.6804 82.211 16.0134V22.4887H78.7695V11.1511H78.7707Z" fill="white"/>
<path d="M91.8643 13.9911H90.4229V11.1509H91.8643V8.01123H95.2631V11.1521H97.4789V13.9923H95.2631V18.5746C95.2631 19.5217 95.7574 19.6933 96.6181 19.6933C97.0271 19.6933 97.2207 19.6714 97.6078 19.6288V22.4471C97.0052 22.5335 96.3601 22.598 95.5432 22.598C93.0902 22.598 91.8643 21.78 91.8643 19.4572V13.9935V13.9911Z" fill="white"/>
<path d="M100.685 18.5079C101.61 19.5196 103.073 20.121 104.299 20.121C105.203 20.121 105.956 19.8203 105.956 19.2177C105.956 18.4653 105.203 18.3789 103.396 18.0563C101.525 17.6911 99.5237 17.1956 99.5237 14.7438C99.5237 12.4417 101.568 10.9138 104.364 10.9138C106.408 10.9138 108.214 11.6881 109.162 12.7205L107.44 14.9361C106.58 14.0328 105.461 13.5373 104.342 13.5373C103.503 13.5373 102.965 13.8599 102.965 14.3761C102.965 14.9994 103.632 15.0858 105.009 15.3439C107.053 15.753 109.333 16.2472 109.333 18.8074C109.333 21.3676 107.053 22.7225 104.17 22.7225C102.191 22.7225 99.9535 22.0554 98.9004 20.8295L100.686 18.5067L100.685 18.5079Z" fill="white"/>
<path d="M111.699 13.9911H110.258V11.1509H111.699V8.01123H115.098V11.1521H117.314V13.9923H115.098V18.5746C115.098 19.5217 115.592 19.6933 116.453 19.6933C116.862 19.6933 117.056 19.6714 117.443 19.6288V22.4471C116.84 22.5335 116.195 22.598 115.378 22.598C112.926 22.598 111.699 21.78 111.699 19.4572V13.9935V13.9911Z" fill="white"/>
<path d="M118.843 19.326C118.843 16.9813 120.823 16.0342 123.21 15.6909L125.748 15.2612V15.0676C125.748 14.2288 125.297 13.6907 124.178 13.6907C123.188 13.6907 122.672 14.1205 122.457 15.0457L119.165 14.5514C119.659 12.5512 121.445 10.9163 124.328 10.9163C127.21 10.9163 129.125 12.2712 129.125 14.9179V19.2846C129.125 19.8653 129.341 20.0382 130.008 19.9518V22.49C128.029 22.8126 126.696 22.4474 126.114 21.4784C125.361 22.2526 124.242 22.7043 122.757 22.7043C120.477 22.7043 118.842 21.3274 118.842 19.3272L118.843 19.326ZM125.748 17.4756L123.769 17.8408C122.866 17.9918 122.198 18.2925 122.198 19.0886C122.198 19.7984 122.737 20.1855 123.553 20.1855C124.694 20.1855 125.747 19.5829 125.747 18.4215V17.4744L125.748 17.4756Z" fill="white"/>
<path d="M135.048 22.4875H131.606V11.1511H135.048V12.2918C135.671 11.5602 136.705 10.915 138.146 10.915C139.501 10.915 140.62 11.4957 141.265 12.4635C141.91 11.7537 143.029 10.915 144.771 10.915C147.073 10.915 148.601 12.528 148.601 15.003V22.4899H145.159V15.9927C145.159 14.852 144.708 14.0132 143.611 14.0132C142.708 14.0132 141.825 14.6804 141.825 16.0134V22.4887H138.383V15.9915C138.383 14.8508 137.953 14.012 136.835 14.012C135.932 14.012 135.049 14.6791 135.049 16.0122V22.4875H135.048Z" fill="white"/>
<path d="M153.758 21.3699V26.2748H150.317V11.1511H153.758V12.2918C154.404 11.475 155.48 10.915 156.835 10.915C159.954 10.915 161.718 13.5823 161.718 16.8315C161.718 20.0807 159.954 22.7261 156.835 22.7261C155.48 22.7261 154.404 22.1673 153.758 21.3711V21.3699ZM153.736 17.1322C153.736 18.8317 154.662 19.7995 155.952 19.7995C157.458 19.7995 158.254 18.5736 158.254 16.8303C158.254 15.087 157.458 13.8611 155.952 13.8611C154.662 13.8611 153.736 14.807 153.736 16.5284V17.131V17.1322Z" fill="white"/>
<path d="M38.022 8.68335C34.8202 11.8851 34.8215 17.0761 38.022 20.2766C41.2237 23.4783 46.4135 23.4783 49.6152 20.2766C52.8169 17.0749 52.8169 11.8851 49.6152 8.68335C46.4147 5.48283 41.2225 5.48283 38.022 8.68335ZM47.1889 17.8503C45.3275 19.7117 42.3108 19.7117 40.4482 17.8503C38.5868 15.9889 38.5868 12.9722 40.4482 11.1096C42.3096 9.247 45.3275 9.24822 47.1889 11.1096C49.0503 12.971 49.0503 15.9889 47.1889 17.8503Z" fill="white"/>
<path d="M45.0027 13.2881L42.5967 15.6941L50.0962 23.1936L52.5022 20.7876L45.0027 13.2881Z" fill="white"/>
<path d="M25.7669 14.4587C25.7669 12.2665 25.1364 10.1098 23.931 8.2735L28.3715 3.81003L25.0437 0.459473L20.6032 4.92294C16.8624 2.46778 12.0225 2.46778 8.28161 4.92294L3.83107 0.459473L0.493164 3.81003L4.93359 8.2735C2.48916 12.0372 2.48916 16.8919 4.93359 20.6556L0.493164 25.1089L3.83107 28.4595L8.27149 23.996C12.0123 26.4512 16.8523 26.4512 20.5931 23.996L25.0336 28.4595L28.3715 25.1089L23.931 20.6455C25.1364 18.8092 25.7787 16.6643 25.7669 14.4603V14.4587ZM7.82475 14.4587C7.82475 11.7506 9.45325 9.30548 11.955 8.29711C14.4568 7.28705 17.3243 7.89578 19.1939 9.84676C21.0635 11.7978 21.5692 14.7015 20.4566 17.1684L16.0971 12.7842L12.7693 16.1348L17.1288 20.519C15.0873 21.4363 12.712 21.2643 10.8306 20.0367C8.96099 18.8092 7.82475 16.7081 7.82475 14.4603V14.4587Z" fill="white"/>
</g>
<defs>
<clipPath id="clip0_290_2667">
<rect width="162" height="28" fill="white" transform="translate(0.493164 0.459473)"/>
</clipPath>
</defs>
</svg>
