<svg width="410" height="246" viewBox="0 0 410 246" fill="none" xmlns="http://www.w3.org/2000/svg">
<g filter="url(#filter0_d_290_3566)">
<rect x="3" y="2.09766" width="403.711" height="475.902" rx="14.0177" fill="white"/>
<rect x="3.35044" y="2.4481" width="403.01" height="475.201" rx="13.6673" stroke="#D1D2D3" stroke-width="0.700887"/>
</g>
<path d="M25.6415 66.1222H27.032L24.206 70.9892V73.9722H22.9613V70.9892L20.1353 66.1222H21.5595L23.6005 69.879L25.6415 66.1222ZM32.1463 71.1238C32.1463 72.0284 31.8958 72.7498 31.3949 73.2881C30.894 73.8264 30.21 74.0955 29.3428 74.0955C28.4755 74.0955 27.7915 73.8264 27.2906 73.2881C26.7897 72.7498 26.5392 72.0284 26.5392 71.1238C26.5392 70.2266 26.7934 69.5052 27.3018 68.9594C27.8101 68.4137 28.4905 68.1408 29.3428 68.1408C30.195 68.1408 30.8754 68.4137 31.3837 68.9594C31.8921 69.5052 32.1463 70.2266 32.1463 71.1238ZM28.1428 69.7332C27.8662 70.0696 27.7279 70.5331 27.7279 71.1238C27.7279 71.7144 27.87 72.1779 28.154 72.5143C28.4456 72.8507 28.8493 73.019 29.3652 73.019C29.8736 73.019 30.2661 72.8507 30.5427 72.5143C30.8193 72.1779 30.9576 71.7144 30.9576 71.1238C30.9576 70.5331 30.8118 70.0696 30.5202 69.7332C30.2361 69.3893 29.8399 69.2174 29.3315 69.2174C28.8232 69.2174 28.4269 69.3893 28.1428 69.7332ZM36.909 68.2529H38.0865V73.9722H36.9426V73.0077C36.6286 73.6956 36.0829 74.0395 35.3054 74.0395C34.6699 74.0395 34.1615 73.8413 33.7802 73.4451C33.4064 73.0489 33.2195 72.5143 33.2195 71.8415V68.2529H34.397V71.7293C34.397 72.148 34.4942 72.4695 34.6886 72.6937C34.8904 72.9106 35.1745 73.019 35.5409 73.019C35.9894 73.019 36.3296 72.847 36.5614 72.5031C36.7931 72.1517 36.909 71.6583 36.909 71.0228V68.2529ZM45.2418 69.879H48.8864V73.9722H47.7425V73.019C47.1968 73.789 46.3968 74.174 45.3427 74.174C44.2213 74.174 43.3241 73.8002 42.6513 73.0526C41.9784 72.305 41.642 71.3219 41.642 70.1033C41.642 68.8473 41.9934 67.8417 42.6961 67.0867C43.4064 66.3241 44.3446 65.9428 45.5109 65.9428C46.4529 65.9428 47.2267 66.1933 47.8322 66.6942C48.4378 67.1876 48.7854 67.8492 48.8752 68.6791H47.6192C47.5594 68.2006 47.3276 67.8193 46.9239 67.5352C46.5277 67.2437 46.038 67.0979 45.4548 67.0979C44.6698 67.0979 44.0456 67.367 43.5821 67.9053C43.1185 68.4361 42.8868 69.1538 42.8868 70.0584C42.8868 70.9705 43.1185 71.6919 43.5821 72.2228C44.0456 72.7536 44.6773 73.019 45.4773 73.019C46.1277 73.019 46.6473 72.847 47.036 72.5031C47.4248 72.1517 47.6416 71.662 47.6865 71.034H45.2418V69.879ZM50.389 67.2549V65.8867H51.6562V67.2549H50.389ZM50.4226 73.9722V68.2529H51.6113V73.9722H50.4226ZM56.9566 68.2529H58.1789L55.9361 73.9722H54.5904L52.3587 68.2529H53.6259L55.2856 72.8283L56.9566 68.2529ZM63.7408 70.9555V71.449H59.5691C59.5691 71.9648 59.7186 72.3723 60.0177 72.6713C60.3167 72.9629 60.7242 73.1087 61.24 73.1087C61.9503 73.1087 62.4175 72.8358 62.6418 72.29H63.6847C63.5427 72.8358 63.2436 73.2731 62.7876 73.6021C62.339 73.931 61.7933 74.0955 61.1503 74.0955C60.3354 74.0955 59.6813 73.8301 59.1878 73.2993C58.7019 72.761 58.4589 72.0471 58.4589 71.1574C58.4589 70.2528 58.7094 69.5239 59.2103 68.9706C59.7186 68.4174 60.3803 68.1408 61.1952 68.1408C61.9652 68.1408 62.582 68.3987 63.0455 68.9146C63.509 69.4229 63.7408 70.1033 63.7408 70.9555ZM62.2269 69.5201C61.9727 69.2585 61.6213 69.1276 61.1727 69.1276C60.7242 69.1276 60.3541 69.2585 60.0625 69.5201C59.7784 69.7818 59.6177 70.1369 59.5803 70.5855H62.6082C62.6082 70.1369 62.4811 69.7818 62.2269 69.5201Z" fill="#323638"/>
<path d="M248.992 72.0391C248.992 72.5952 248.776 73.0563 248.344 73.4227C247.912 73.789 247.366 73.9722 246.705 73.9722H243.722V67.1035H246.823C247.366 67.1035 247.811 67.2605 248.158 67.5745C248.504 67.8819 248.678 68.2712 248.678 68.7421C248.678 69.0692 248.593 69.3734 248.423 69.6547C248.259 69.9295 248.027 70.1421 247.726 70.2925C248.125 70.443 248.436 70.6752 248.658 70.9892C248.881 71.2966 248.992 71.6466 248.992 72.0391ZM244.802 68.1142V69.9491H246.519C246.826 69.9491 247.075 69.8608 247.265 69.6841C247.461 69.501 247.559 69.272 247.559 68.9973C247.559 68.7291 247.468 68.5165 247.284 68.3595C247.108 68.1959 246.866 68.1142 246.558 68.1142H244.802ZM247.873 71.8527C247.873 71.5583 247.762 71.3195 247.539 71.1364C247.324 70.9467 247.042 70.8518 246.696 70.8518H244.802V72.9517H246.607C246.987 72.9517 247.291 72.8503 247.52 72.6475C247.755 72.4447 247.873 72.1798 247.873 71.8527ZM253.943 70.4888V73.9722H252.952V73.2166C252.586 73.7923 252.04 74.0801 251.314 74.0801C250.81 74.0801 250.411 73.946 250.116 73.6778C249.829 73.403 249.685 73.0367 249.685 72.5788C249.685 72.0751 249.835 71.7219 250.136 71.5191C250.45 71.3032 250.82 71.1625 251.245 71.0971L252.314 70.9303C252.511 70.9042 252.664 70.8485 252.776 70.7635C252.887 70.6719 252.942 70.528 252.942 70.3318C252.942 69.9131 252.635 69.7038 252.02 69.7038C251.32 69.7038 250.914 69.9851 250.803 70.5476H249.822C249.881 70.0308 250.11 69.622 250.509 69.3211C250.908 69.0202 251.428 68.8697 252.069 68.8697C252.671 68.8697 253.132 69.0071 253.453 69.2818C253.78 69.55 253.943 69.9523 253.943 70.4888ZM252.913 71.8527V71.4896C252.73 71.5485 252.498 71.6008 252.216 71.6466L251.647 71.7349C251.399 71.7742 251.179 71.8461 250.99 71.9508C250.8 72.062 250.705 72.255 250.705 72.5297C250.705 72.7456 250.777 72.9124 250.921 73.0302C251.071 73.1479 251.281 73.2068 251.549 73.2068C251.948 73.2068 252.275 73.0825 252.53 72.8339C252.785 72.5853 252.913 72.2583 252.913 71.8527ZM256.265 66.9955V73.9722H255.224V66.9955H256.265ZM261.519 70.4888V73.9722H260.528V73.2166C260.161 73.7923 259.615 74.0801 258.889 74.0801C258.385 74.0801 257.986 73.946 257.692 73.6778C257.404 73.403 257.26 73.0367 257.26 72.5788C257.26 72.0751 257.411 71.7219 257.712 71.5191C258.026 71.3032 258.395 71.1625 258.82 71.0971L259.89 70.9303C260.086 70.9042 260.24 70.8485 260.351 70.7635C260.462 70.6719 260.518 70.528 260.518 70.3318C260.518 69.9131 260.21 69.7038 259.595 69.7038C258.896 69.7038 258.49 69.9851 258.379 70.5476H257.398C257.456 70.0308 257.685 69.622 258.084 69.3211C258.483 69.0202 259.003 68.8697 259.645 68.8697C260.246 68.8697 260.708 69.0071 261.028 69.2818C261.355 69.55 261.519 69.9523 261.519 70.4888ZM260.488 71.8527V71.4896C260.305 71.5485 260.073 71.6008 259.792 71.6466L259.223 71.7349C258.974 71.7742 258.755 71.8461 258.565 71.9508C258.375 72.062 258.281 72.255 258.281 72.5297C258.281 72.7456 258.353 72.9124 258.497 73.0302C258.647 73.1479 258.856 73.2068 259.125 73.2068C259.524 73.2068 259.851 73.0825 260.106 72.8339C260.361 72.5853 260.488 72.2583 260.488 71.8527ZM267.117 70.7341V73.9722H266.087V70.842C266.087 70.5215 265.999 70.2663 265.822 70.0766C265.646 69.8869 265.404 69.7921 265.096 69.7921C264.71 69.7921 264.403 69.9262 264.174 70.1944C263.951 70.4626 263.84 70.8289 263.84 71.2934V73.9722H262.8V68.9678H263.84V69.7136C264.01 69.4192 264.216 69.2066 264.458 69.0758C264.7 68.9384 265.004 68.8697 265.371 68.8697C265.933 68.8697 266.365 69.03 266.666 69.3505C266.967 69.6645 267.117 70.1257 267.117 70.7341ZM270.469 74.0801C269.73 74.0801 269.141 73.8479 268.703 73.3834C268.271 72.9124 268.055 72.2877 268.055 71.5093C268.055 70.7243 268.281 70.0897 268.732 69.6056C269.184 69.115 269.776 68.8697 270.508 68.8697C271.136 68.8697 271.65 69.0463 272.049 69.3996C272.448 69.7528 272.654 70.2107 272.667 70.7733H271.656C271.63 70.4724 271.516 70.2369 271.313 70.0668C271.117 69.8902 270.845 69.8019 270.499 69.8019C270.06 69.8019 269.717 69.9523 269.468 70.2533C269.22 70.5476 269.095 70.9532 269.095 71.47C269.095 71.9868 269.216 72.3956 269.459 72.6966C269.707 72.9909 270.051 73.1381 270.489 73.1381C270.822 73.1381 271.094 73.0498 271.303 72.8732C271.519 72.69 271.643 72.4447 271.676 72.1372H272.697C272.638 72.7391 272.409 73.2133 272.01 73.56C271.611 73.9068 271.097 74.0801 270.469 74.0801ZM277.969 71.3326V71.7644H274.319C274.319 72.2157 274.45 72.5723 274.711 72.8339C274.973 73.0891 275.33 73.2166 275.781 73.2166C276.402 73.2166 276.811 72.9778 277.008 72.5003H277.92C277.796 72.9778 277.534 73.3605 277.135 73.6484C276.743 73.9362 276.265 74.0801 275.703 74.0801C274.989 74.0801 274.417 73.8479 273.985 73.3834C273.56 72.9124 273.348 72.2877 273.348 71.5093C273.348 70.7177 273.567 70.0799 274.005 69.5958C274.45 69.1117 275.029 68.8697 275.742 68.8697C276.416 68.8697 276.955 69.0954 277.361 69.5468C277.766 69.9916 277.969 70.5869 277.969 71.3326ZM276.644 70.0766C276.422 69.8477 276.115 69.7332 275.722 69.7332C275.33 69.7332 275.006 69.8477 274.751 70.0766C274.502 70.3056 274.361 70.6163 274.329 71.0088H276.978C276.978 70.6163 276.867 70.3056 276.644 70.0766ZM278.67 73.9722V72.7456H279.857V73.9722H278.67ZM278.67 70.2238V68.9973H279.857V70.2238H278.67ZM285.714 67.2212V73.9722H284.497V68.7912C284.013 69.0921 283.464 69.2655 282.849 69.3113V68.1534C283.575 68.0422 284.183 67.7315 284.674 67.2212H285.714ZM291.801 70.5869C291.801 71.712 291.599 72.5755 291.193 73.1774C290.794 73.7792 290.195 74.0801 289.397 74.0801C288.599 74.0801 287.998 73.7792 287.592 73.1774C287.193 72.5755 286.993 71.712 286.993 70.5869C286.993 69.4683 287.193 68.608 287.592 68.0062C287.998 67.4044 288.599 67.1035 289.397 67.1035C290.195 67.1035 290.794 67.4044 291.193 68.0062C291.599 68.608 291.801 69.4683 291.801 70.5869ZM290.545 70.5869C290.545 69.0234 290.163 68.2417 289.397 68.2417C288.632 68.2417 288.249 69.0234 288.249 70.5869C288.249 72.1569 288.632 72.9419 289.397 72.9419C290.163 72.9419 290.545 72.1569 290.545 70.5869ZM293.304 73.8937H292.676V72.6082H294.079V73.717C294.079 74.3189 293.912 74.767 293.578 75.0613C293.258 75.3492 292.852 75.5291 292.362 75.601L292.244 74.9338C292.571 74.9011 292.829 74.7899 293.019 74.6002C293.209 74.417 293.304 74.1815 293.304 73.8937ZM299.329 70.5869C299.329 71.712 299.126 72.5755 298.721 73.1774C298.322 73.7792 297.723 74.0801 296.925 74.0801C296.127 74.0801 295.525 73.7792 295.12 73.1774C294.72 72.5755 294.521 71.712 294.521 70.5869C294.521 69.4683 294.72 68.608 295.12 68.0062C295.525 67.4044 296.127 67.1035 296.925 67.1035C297.723 67.1035 298.322 67.4044 298.721 68.0062C299.126 68.608 299.329 69.4683 299.329 70.5869ZM298.073 70.5869C298.073 69.0234 297.69 68.2417 296.925 68.2417C296.16 68.2417 295.777 69.0234 295.777 70.5869C295.777 72.1569 296.16 72.9419 296.925 72.9419C297.69 72.9419 298.073 72.1569 298.073 70.5869ZM304.727 70.5869C304.727 71.712 304.524 72.5755 304.118 73.1774C303.719 73.7792 303.121 74.0801 302.323 74.0801C301.525 74.0801 300.923 73.7792 300.517 73.1774C300.118 72.5755 299.919 71.712 299.919 70.5869C299.919 69.4683 300.118 68.608 300.517 68.0062C300.923 67.4044 301.525 67.1035 302.323 67.1035C303.121 67.1035 303.719 67.4044 304.118 68.0062C304.524 68.608 304.727 69.4683 304.727 70.5869ZM303.471 70.5869C303.471 69.0234 303.088 68.2417 302.323 68.2417C301.557 68.2417 301.175 69.0234 301.175 70.5869C301.175 72.1569 301.557 72.9419 302.323 72.9419C303.088 72.9419 303.471 72.1569 303.471 70.5869ZM310.124 70.5869C310.124 71.712 309.921 72.5755 309.516 73.1774C309.117 73.7792 308.518 74.0801 307.72 74.0801C306.922 74.0801 306.32 73.7792 305.915 73.1774C305.516 72.5755 305.316 71.712 305.316 70.5869C305.316 69.4683 305.516 68.608 305.915 68.0062C306.32 67.4044 306.922 67.1035 307.72 67.1035C308.518 67.1035 309.117 67.4044 309.516 68.0062C309.921 68.608 310.124 69.4683 310.124 70.5869ZM308.868 70.5869C308.868 69.0234 308.486 68.2417 307.72 68.2417C306.955 68.2417 306.572 69.0234 306.572 70.5869C306.572 72.1569 306.955 72.9419 307.72 72.9419C308.486 72.9419 308.868 72.1569 308.868 70.5869ZM316.097 75.0908L315.587 75.6795C314.828 75.202 314.217 74.5347 313.752 73.6778C313.294 72.8274 313.065 71.8854 313.065 70.8518C313.065 69.8182 313.294 68.8763 313.752 68.0258C314.223 67.1623 314.835 66.4918 315.587 66.0143L316.097 66.6129C315.495 67.1296 315.021 67.7544 314.675 68.487C314.334 69.2197 314.164 70.008 314.164 70.8518C314.164 71.6957 314.334 72.484 314.675 73.2166C315.021 73.9493 315.495 74.574 316.097 75.0908ZM319.882 71.5878C319.581 71.5878 319.218 71.4536 318.793 71.1854C318.557 71.035 318.39 70.9598 318.292 70.9598C318.187 70.9598 318.099 71.0121 318.027 71.1168C317.955 71.2214 317.919 71.3523 317.919 71.5093H316.918C316.918 71.0186 317.036 70.6196 317.272 70.3121C317.514 69.9981 317.821 69.8411 318.194 69.8411C318.456 69.8411 318.806 69.9687 319.244 70.2238C319.486 70.3874 319.672 70.4691 319.803 70.4691C320.006 70.4691 320.107 70.2467 320.107 69.8019H321.147C321.147 70.3645 321.033 70.8028 320.804 71.1168C320.582 71.4308 320.274 71.5878 319.882 71.5878ZM325.069 74.0703V75.2183H324.431V74.0605C323.737 73.9885 323.175 73.7563 322.743 73.3638C322.305 72.9648 322.082 72.3989 322.076 71.6662H323.322C323.329 72.0457 323.43 72.3531 323.626 72.5886C323.822 72.8241 324.091 72.9746 324.431 73.04V71.0284C324.032 70.9238 323.679 70.7995 323.371 70.6556C322.671 70.3285 322.321 69.7659 322.321 68.9678C322.321 68.3725 322.511 67.9081 322.89 67.5745C323.27 67.2343 323.783 67.0413 324.431 66.9955V66.1124H325.069V67.0054C325.684 67.0511 326.197 67.2408 326.609 67.5745C327.015 67.9016 327.221 68.3791 327.227 69.0071H325.991C325.965 68.4903 325.657 68.1698 325.069 68.0455V70.0766C325.513 70.1813 325.893 70.2991 326.207 70.4299C326.54 70.5673 326.812 70.7766 327.021 71.0579C327.231 71.3326 327.335 71.6793 327.335 72.098C327.335 72.6998 327.123 73.1675 326.697 73.5012C326.266 73.8348 325.723 74.0245 325.069 74.0703ZM324.431 69.8902V68.0258C324.143 68.0651 323.917 68.1665 323.754 68.33C323.59 68.4936 323.508 68.6964 323.508 68.9384C323.508 69.1674 323.584 69.3571 323.734 69.5075C323.885 69.658 324.117 69.7855 324.431 69.8902ZM326.119 72.1765C326.119 71.9279 326.034 71.7317 325.863 71.5878C325.693 71.4438 325.428 71.3195 325.069 71.2149V73.0792C325.389 73.0531 325.644 72.9615 325.834 72.8045C326.024 72.6409 326.119 72.4316 326.119 72.1765ZM332.891 72.098C332.891 72.7064 332.659 73.1904 332.195 73.5502C331.73 73.9035 331.158 74.0801 330.477 74.0801C329.758 74.0801 329.143 73.874 328.633 73.4619C328.129 73.0498 327.877 72.4905 327.877 71.784H329.143C329.143 72.1503 329.257 72.4349 329.486 72.6377C329.722 72.8405 330.042 72.9419 330.448 72.9419C330.808 72.9419 331.096 72.8666 331.311 72.7162C331.527 72.5657 331.635 72.3466 331.635 72.0587C331.635 71.4635 331.164 71.1658 330.222 71.1658H329.712V70.0668H330.183C330.575 70.0668 330.889 69.9785 331.125 69.8019C331.36 69.6187 331.478 69.38 331.478 69.0856C331.478 68.8174 331.38 68.6113 331.184 68.4674C330.994 68.3169 330.739 68.2417 330.418 68.2417C329.614 68.2417 329.212 68.6342 329.212 69.4192H327.956C327.956 68.68 328.191 68.1109 328.662 67.7118C329.133 67.3063 329.732 67.1035 330.458 67.1035C331.105 67.1035 331.648 67.267 332.087 67.5941C332.525 67.9212 332.744 68.366 332.744 68.9286C332.744 69.3211 332.639 69.6547 332.43 69.9295C332.227 70.2042 331.962 70.3939 331.635 70.4986C332.047 70.6556 332.358 70.8616 332.567 71.1168C332.783 71.3719 332.891 71.699 332.891 72.098ZM334.388 73.8937H333.76V72.6082H335.164V73.717C335.164 74.3189 334.997 74.767 334.663 75.0613C334.343 75.3492 333.937 75.5291 333.446 75.601L333.329 74.9338C333.656 74.9011 333.914 74.7899 334.104 74.6002C334.294 74.417 334.388 74.1815 334.388 73.8937ZM340.414 70.5869C340.414 71.712 340.211 72.5755 339.806 73.1774C339.407 73.7792 338.808 74.0801 338.01 74.0801C337.212 74.0801 336.61 73.7792 336.204 73.1774C335.805 72.5755 335.606 71.712 335.606 70.5869C335.606 69.4683 335.805 68.608 336.204 68.0062C336.61 67.4044 337.212 67.1035 338.01 67.1035C338.808 67.1035 339.407 67.4044 339.806 68.0062C340.211 68.608 340.414 69.4683 340.414 70.5869ZM339.158 70.5869C339.158 69.0234 338.775 68.2417 338.01 68.2417C337.245 68.2417 336.862 69.0234 336.862 70.5869C336.862 72.1569 337.245 72.9419 338.01 72.9419C338.775 72.9419 339.158 72.1569 339.158 70.5869ZM345.812 70.5869C345.812 71.712 345.609 72.5755 345.203 73.1774C344.804 73.7792 344.206 74.0801 343.407 74.0801C342.609 74.0801 342.008 73.7792 341.602 73.1774C341.203 72.5755 341.003 71.712 341.003 70.5869C341.003 69.4683 341.203 68.608 341.602 68.0062C342.008 67.4044 342.609 67.1035 343.407 67.1035C344.206 67.1035 344.804 67.4044 345.203 68.0062C345.609 68.608 345.812 69.4683 345.812 70.5869ZM344.556 70.5869C344.556 69.0234 344.173 68.2417 343.407 68.2417C342.642 68.2417 342.259 69.0234 342.259 70.5869C342.259 72.1569 342.642 72.9419 343.407 72.9419C344.173 72.9419 344.556 72.1569 344.556 70.5869ZM351.209 70.5869C351.209 71.712 351.006 72.5755 350.601 73.1774C350.202 73.7792 349.603 74.0801 348.805 74.0801C348.007 74.0801 347.405 73.7792 347 73.1774C346.601 72.5755 346.401 71.712 346.401 70.5869C346.401 69.4683 346.601 68.608 347 68.0062C347.405 67.4044 348.007 67.1035 348.805 67.1035C349.603 67.1035 350.202 67.4044 350.601 68.0062C351.006 68.608 351.209 69.4683 351.209 70.5869ZM349.953 70.5869C349.953 69.0234 349.57 68.2417 348.805 68.2417C348.04 68.2417 347.657 69.0234 347.657 70.5869C347.657 72.1569 348.04 72.9419 348.805 72.9419C349.57 72.9419 349.953 72.1569 349.953 70.5869ZM351.651 66.6129L352.162 66.0143C352.914 66.4918 353.526 67.1623 353.997 68.0258C354.455 68.8763 354.683 69.8182 354.683 70.8518C354.683 71.8854 354.455 72.8274 353.997 73.6778C353.532 74.5347 352.921 75.202 352.162 75.6795L351.651 75.0908C352.253 74.574 352.724 73.9493 353.064 73.2166C353.411 72.484 353.585 71.6957 353.585 70.8518C353.585 70.008 353.411 69.2197 353.064 68.487C352.724 67.7544 352.253 67.1296 351.651 66.6129Z" fill="#323638"/>
<rect x="361.829" y="61.9208" width="27.7098" height="17.1027" rx="5.95754" stroke="#31C1BF" stroke-width="0.700887"/>
<path d="M373.641 67.1035V73.9722H372.621V68.5165L370.609 73.9722H369.589L367.587 68.5165V73.9722H366.596V67.1035H368.078L370.119 72.6867L372.16 67.1035H373.641ZM378.992 70.4888V73.9722H378.001V73.2166C377.635 73.7923 377.089 74.0801 376.362 74.0801C375.859 74.0801 375.46 73.946 375.165 73.6778C374.877 73.403 374.734 73.0367 374.734 72.5788C374.734 72.0751 374.884 71.7219 375.185 71.5191C375.499 71.3032 375.869 71.1625 376.294 71.0971L377.363 70.9303C377.56 70.9042 377.713 70.8485 377.824 70.7635C377.936 70.6719 377.991 70.528 377.991 70.3318C377.991 69.9131 377.684 69.7038 377.069 69.7038C376.369 69.7038 375.963 69.9851 375.852 70.5476H374.871C374.93 70.0308 375.159 69.622 375.558 69.3211C375.957 69.0202 376.477 68.8697 377.118 68.8697C377.72 68.8697 378.181 69.0071 378.502 69.2818C378.829 69.55 378.992 69.9523 378.992 70.4888ZM377.962 71.8527V71.4896C377.779 71.5485 377.546 71.6008 377.265 71.6466L376.696 71.7349C376.447 71.7742 376.228 71.8461 376.039 71.9508C375.849 72.062 375.754 72.255 375.754 72.5297C375.754 72.7456 375.826 72.9124 375.97 73.0302C376.12 73.1479 376.33 73.2068 376.598 73.2068C376.997 73.2068 377.324 73.0825 377.579 72.8339C377.834 72.5853 377.962 72.2583 377.962 71.8527ZM383.57 73.9722L382.314 72.1863L381.049 73.9722H379.763L381.657 71.4896L379.734 68.9678H381.058L382.295 70.7144L383.511 68.9678H384.797L382.942 71.4013L384.905 73.9722H383.57Z" fill="#31C1BF"/>
<g filter="url(#filter1_b_290_3566)">
<rect x="19.8213" y="83.4766" width="370.068" height="70.0887" rx="14.0177" fill="#F4F4F4"/>
</g>
<g clip-path="url(#clip0_290_3566)">
<path d="M47.8566 133.512C55.6248 133.512 61.8743 127.262 61.8743 119.494C61.8743 111.726 55.6248 105.476 47.8566 105.476C40.0884 105.476 33.8389 111.726 33.8389 119.494C33.8389 127.262 40.0884 133.512 47.8566 133.512Z" fill="#2775CA"/>
<path d="M51.7122 121.714C51.7122 119.669 50.4857 118.968 48.0326 118.676C46.2804 118.443 45.9299 117.976 45.9299 117.158C45.9299 116.34 46.5141 115.814 47.6821 115.814C48.7335 115.814 49.3176 116.165 49.6096 117.041C49.668 117.216 49.8432 117.333 50.0185 117.333H50.9529C51.1866 117.333 51.3618 117.158 51.3618 116.924V116.866C51.1281 115.581 50.0768 114.588 48.7335 114.471V113.069C48.7335 112.836 48.5582 112.661 48.2663 112.602H47.3902C47.1565 112.602 46.9813 112.777 46.9228 113.069V114.413C45.1706 114.646 44.061 115.814 44.061 117.275C44.061 119.202 45.2291 119.961 47.6821 120.253C49.3176 120.545 49.8432 120.896 49.8432 121.83C49.8432 122.765 49.0255 123.407 47.9158 123.407C46.3971 123.407 45.8715 122.765 45.6963 121.889C45.6379 121.655 45.4627 121.538 45.2875 121.538H44.2945C44.061 121.538 43.8857 121.714 43.8857 121.947V122.006C44.1193 123.466 45.0538 124.517 46.9813 124.809V126.211C46.9813 126.445 47.1565 126.62 47.4485 126.678H48.3246C48.5582 126.678 48.7335 126.503 48.7919 126.211V124.809C50.5441 124.517 51.7122 123.291 51.7122 121.714V121.714Z" fill="white"/>
<path d="M44.8775 127.846C40.3217 126.211 37.9854 121.13 39.6793 116.632C40.5554 114.179 42.4829 112.31 44.8775 111.434C45.1112 111.317 45.2279 111.142 45.2279 110.85V110.032C45.2279 109.798 45.1112 109.623 44.8775 109.565C44.8191 109.565 44.7023 109.565 44.6438 109.623C39.0952 111.375 36.058 117.275 37.8102 122.823C38.8615 126.094 41.3731 128.606 44.6438 129.657C44.8775 129.774 45.1112 129.657 45.1695 129.423C45.2279 129.365 45.2279 129.307 45.2279 129.19V128.372C45.2279 128.197 45.0527 127.963 44.8775 127.846ZM51.0687 109.623C50.835 109.506 50.6014 109.623 50.5431 109.857C50.4846 109.915 50.4846 109.974 50.4846 110.091V110.908C50.4846 111.142 50.6598 111.375 50.835 111.492C55.3908 113.128 57.7271 118.209 56.0332 122.707C55.1571 125.16 53.2297 127.029 50.835 127.905C50.6014 128.022 50.4846 128.197 50.4846 128.489V129.307C50.4846 129.54 50.6014 129.715 50.835 129.774C50.8935 129.774 51.0103 129.774 51.0687 129.715C56.6174 127.963 59.6546 122.064 57.9024 116.515C56.851 113.186 54.281 110.675 51.0687 109.623Z" fill="white"/>
</g>
<path d="M73.481 115.144H74.7034V120.034C74.7034 121.043 74.4305 121.824 73.8847 122.377C73.3465 122.923 72.5764 123.196 71.5746 123.196C70.5728 123.196 69.7953 122.923 69.2421 122.377C68.6888 121.824 68.4122 121.043 68.4122 120.034V115.144H69.657V120.056C69.657 120.699 69.8252 121.189 70.1616 121.525C70.5055 121.854 70.9915 122.019 71.6195 122.019C72.225 122.019 72.6848 121.865 72.9988 121.559C73.3203 121.252 73.481 120.8 73.481 120.202V115.144ZM79.1057 123.196C78.1637 123.196 77.3899 122.938 76.7843 122.422C76.1862 121.906 75.8872 121.23 75.8872 120.392H77.132C77.1693 120.938 77.3675 121.368 77.7263 121.682C78.0852 121.996 78.5562 122.153 79.1393 122.153C79.6252 122.153 80.0065 122.048 80.2831 121.839C80.5598 121.622 80.6981 121.331 80.6981 120.964C80.6981 120.703 80.6233 120.49 80.4738 120.325C80.3317 120.176 80.1561 120.06 79.9467 119.978C79.7449 119.895 79.4383 119.806 79.0272 119.708L78.7244 119.63C78.1562 119.488 77.7151 119.35 77.4011 119.215C76.5413 118.849 76.1115 118.209 76.1115 117.297C76.1115 116.587 76.3657 116.023 76.874 115.604C77.3824 115.178 78.059 114.965 78.9038 114.965C79.7561 114.965 80.4551 115.178 81.0009 115.604C81.5466 116.03 81.8195 116.591 81.8195 117.286H80.5411C80.5186 116.882 80.3616 116.576 80.0701 116.367C79.7785 116.15 79.3748 116.041 78.8589 116.041C78.3805 116.041 78.0029 116.142 77.7263 116.344C77.4572 116.546 77.3226 116.826 77.3226 117.185C77.3226 117.566 77.4646 117.854 77.7487 118.049C78.0403 118.236 78.5001 118.4 79.1281 118.542C79.7037 118.662 80.1673 118.785 80.5186 118.912C80.87 119.039 81.1952 119.256 81.4943 119.563C81.7933 119.862 81.9428 120.292 81.9428 120.852C81.9428 121.555 81.6812 122.123 81.1579 122.557C80.642 122.983 79.9579 123.196 79.1057 123.196ZM89.7982 118.912C89.8057 119.436 89.7197 119.94 89.5403 120.426C89.3609 120.912 89.1029 121.349 88.7665 121.738C88.4301 122.127 87.9927 122.437 87.4544 122.669C86.9236 122.893 86.3293 123.002 85.6714 122.994H83.2491V115.144H85.862C87.0507 115.144 88.0039 115.492 88.7217 116.187C89.4394 116.875 89.7982 117.783 89.7982 118.912ZM88.5422 118.912C88.5422 118.12 88.303 117.488 87.8245 117.017C87.3535 116.539 86.718 116.299 85.9181 116.299H84.4939V121.828H85.6826C86.5274 121.828 87.2152 121.555 87.746 121.009C88.2768 120.456 88.5422 119.757 88.5422 118.912ZM96.7774 120.168H98.0334C97.9885 121.073 97.6446 121.805 97.0017 122.366C96.3587 122.919 95.555 123.196 94.5906 123.196C93.4393 123.196 92.5123 122.811 91.8095 122.041C91.1142 121.271 90.7666 120.269 90.7666 119.036C90.7666 117.817 91.118 116.834 91.8207 116.086C92.5309 115.339 93.4692 114.965 94.6355 114.965C95.5775 114.965 96.3512 115.215 96.9568 115.716C97.5624 116.21 97.91 116.871 97.9997 117.701H96.7325C96.6727 117.23 96.4447 116.849 96.0485 116.557C95.6522 116.266 95.1663 116.12 94.5906 116.12C93.8206 116.12 93.2001 116.385 92.7291 116.916C92.2581 117.447 92.0226 118.146 92.0226 119.013C92.0226 119.888 92.2581 120.606 92.7291 121.166C93.2001 121.719 93.8206 121.996 94.5906 121.996C95.1887 121.996 95.6896 121.832 96.0933 121.503C96.497 121.174 96.7251 120.729 96.7774 120.168ZM98.4317 122.994V121.592H99.7886V122.994H98.4317ZM105.755 119.978V120.471H101.583C101.583 120.987 101.733 121.394 102.032 121.693C102.331 121.985 102.738 122.131 103.254 122.131C103.964 122.131 104.432 121.858 104.656 121.312H105.699C105.557 121.858 105.258 122.295 104.802 122.624C104.353 122.953 103.807 123.117 103.164 123.117C102.349 123.117 101.695 122.852 101.202 122.321C100.716 121.783 100.473 121.069 100.473 120.179C100.473 119.275 100.723 118.546 101.224 117.993C101.733 117.439 102.394 117.163 103.209 117.163C103.979 117.163 104.596 117.421 105.06 117.937C105.523 118.445 105.755 119.125 105.755 119.978ZM104.241 118.542C103.987 118.28 103.635 118.15 103.187 118.15C102.738 118.15 102.368 118.28 102.077 118.542C101.793 118.804 101.632 119.159 101.594 119.607H104.622C104.622 119.159 104.495 118.804 104.241 118.542Z" fill="#101010"/>
<path d="M118.396 117.391L122.602 121.596L126.807 117.391" stroke="#101010" stroke-width="1.40177" stroke-linecap="round" stroke-linejoin="round"/>
<path d="M316.313 109.427C316.313 108.067 316.757 106.948 317.647 106.072C318.537 105.195 319.675 104.757 321.062 104.757C322.671 104.757 323.934 105.385 324.849 106.641C325.778 107.884 326.243 109.637 326.243 111.9C326.243 113.182 326.092 114.288 325.791 115.217C325.491 116.146 325.085 116.852 324.575 117.336C324.064 117.82 323.528 118.174 322.965 118.396C322.403 118.605 321.795 118.71 321.14 118.71C319.95 118.71 318.955 118.37 318.157 117.69C317.359 117.009 316.875 116.087 316.705 114.922H318.825C318.916 115.511 319.178 115.969 319.61 116.296C320.041 116.61 320.584 116.767 321.238 116.767C323.306 116.767 324.339 115.06 324.339 111.645C323.999 112.391 323.508 112.96 322.867 113.352C322.226 113.732 321.494 113.922 320.669 113.922C319.4 113.922 318.354 113.496 317.529 112.646C316.718 111.796 316.313 110.723 316.313 109.427ZM318.471 109.27C318.471 110.069 318.713 110.723 319.198 111.233C319.682 111.743 320.31 111.998 321.081 111.998C321.853 111.998 322.481 111.743 322.965 111.233C323.45 110.71 323.692 110.049 323.692 109.251C323.692 108.466 323.456 107.844 322.985 107.386C322.514 106.929 321.88 106.7 321.081 106.7C320.283 106.7 319.649 106.935 319.178 107.406C318.707 107.864 318.471 108.485 318.471 109.27ZM327.491 109.427C327.491 108.067 327.936 106.948 328.826 106.072C329.715 105.195 330.854 104.757 332.24 104.757C333.85 104.757 335.112 105.385 336.028 106.641C336.957 107.884 337.421 109.637 337.421 111.9C337.421 113.182 337.271 114.288 336.97 115.217C336.669 116.146 336.263 116.852 335.753 117.336C335.243 117.82 334.707 118.174 334.144 118.396C333.581 118.605 332.973 118.71 332.319 118.71C331.128 118.71 330.134 118.37 329.336 117.69C328.538 117.009 328.054 116.087 327.884 114.922H330.003C330.095 115.511 330.356 115.969 330.788 116.296C331.22 116.61 331.763 116.767 332.417 116.767C334.484 116.767 335.518 115.06 335.518 111.645C335.178 112.391 334.687 112.96 334.046 113.352C333.405 113.732 332.672 113.922 331.848 113.922C330.579 113.922 329.532 113.496 328.708 112.646C327.897 111.796 327.491 110.723 327.491 109.427ZM329.65 109.27C329.65 110.069 329.892 110.723 330.376 111.233C330.86 111.743 331.488 111.998 332.26 111.998C333.032 111.998 333.66 111.743 334.144 111.233C334.628 110.71 334.87 110.049 334.87 109.251C334.87 108.466 334.635 107.844 334.164 107.386C333.693 106.929 333.058 106.7 332.26 106.7C331.462 106.7 330.827 106.935 330.356 107.406C329.885 107.864 329.65 108.485 329.65 109.27ZM338.67 109.427C338.67 108.067 339.114 106.948 340.004 106.072C340.894 105.195 342.032 104.757 343.419 104.757C345.028 104.757 346.291 105.385 347.206 106.641C348.135 107.884 348.6 109.637 348.6 111.9C348.6 113.182 348.449 114.288 348.148 115.217C347.848 116.146 347.442 116.852 346.932 117.336C346.421 117.82 345.885 118.174 345.322 118.396C344.76 118.605 344.152 118.71 343.497 118.71C342.307 118.71 341.312 118.37 340.514 117.69C339.716 117.009 339.232 116.087 339.062 114.922H341.182C341.273 115.511 341.535 115.969 341.967 116.296C342.398 116.61 342.941 116.767 343.595 116.767C345.663 116.767 346.696 115.06 346.696 111.645C346.356 112.391 345.865 112.96 345.224 113.352C344.583 113.732 343.851 113.922 343.026 113.922C341.757 113.922 340.711 113.496 339.886 112.646C339.075 111.796 338.67 110.723 338.67 109.427ZM340.828 109.27C340.828 110.069 341.07 110.723 341.554 111.233C342.039 111.743 342.667 111.998 343.438 111.998C344.21 111.998 344.838 111.743 345.322 111.233C345.807 110.71 346.049 110.049 346.049 109.251C346.049 108.466 345.813 107.844 345.342 107.386C344.871 106.929 344.237 106.7 343.438 106.7C342.64 106.7 342.006 106.935 341.535 107.406C341.064 107.864 340.828 108.485 340.828 109.27ZM349.77 118.494V116.041H352.144V118.494H349.77ZM353.322 109.427C353.322 108.067 353.767 106.948 354.657 106.072C355.546 105.195 356.685 104.757 358.072 104.757C359.681 104.757 360.943 105.385 361.859 106.641C362.788 107.884 363.253 109.637 363.253 111.9C363.253 113.182 363.102 114.288 362.801 115.217C362.5 116.146 362.095 116.852 361.584 117.336C361.074 117.82 360.538 118.174 359.975 118.396C359.413 118.605 358.804 118.71 358.15 118.71C356.959 118.71 355.965 118.37 355.167 117.69C354.369 117.009 353.885 116.087 353.715 114.922H355.834C355.926 115.511 356.188 115.969 356.619 116.296C357.051 116.61 357.594 116.767 358.248 116.767C360.315 116.767 361.349 115.06 361.349 111.645C361.009 112.391 360.518 112.96 359.877 113.352C359.236 113.732 358.503 113.922 357.679 113.922C356.41 113.922 355.363 113.496 354.539 112.646C353.728 111.796 353.322 110.723 353.322 109.427ZM355.481 109.27C355.481 110.069 355.723 110.723 356.207 111.233C356.691 111.743 357.319 111.998 358.091 111.998C358.863 111.998 359.491 111.743 359.975 111.233C360.459 110.71 360.701 110.049 360.701 109.251C360.701 108.466 360.466 107.844 359.995 107.386C359.524 106.929 358.889 106.7 358.091 106.7C357.293 106.7 356.659 106.935 356.188 107.406C355.717 107.864 355.481 108.485 355.481 109.27ZM364.501 109.427C364.501 108.067 364.946 106.948 365.835 106.072C366.725 105.195 367.863 104.757 369.25 104.757C370.859 104.757 372.122 105.385 373.038 106.641C373.967 107.884 374.431 109.637 374.431 111.9C374.431 113.182 374.281 114.288 373.98 115.217C373.679 116.146 373.273 116.852 372.763 117.336C372.253 117.82 371.716 118.174 371.154 118.396C370.591 118.605 369.983 118.71 369.329 118.71C368.138 118.71 367.144 118.37 366.346 117.69C365.547 117.009 365.063 116.087 364.893 114.922H367.013C367.104 115.511 367.366 115.969 367.798 116.296C368.23 116.61 368.773 116.767 369.427 116.767C371.494 116.767 372.527 115.06 372.527 111.645C372.187 112.391 371.697 112.96 371.056 113.352C370.414 113.732 369.682 113.922 368.858 113.922C367.588 113.922 366.542 113.496 365.718 112.646C364.906 111.796 364.501 110.723 364.501 109.427ZM366.66 109.27C366.66 110.069 366.902 110.723 367.386 111.233C367.87 111.743 368.498 111.998 369.27 111.998C370.042 111.998 370.67 111.743 371.154 111.233C371.638 110.71 371.88 110.049 371.88 109.251C371.88 108.466 371.644 107.844 371.173 107.386C370.702 106.929 370.068 106.7 369.27 106.7C368.472 106.7 367.837 106.935 367.366 107.406C366.895 107.864 366.66 108.485 366.66 109.27Z" fill="#101010"/>
<path d="M338.573 135.012C338.285 135.012 337.938 134.877 337.533 134.609C337.219 134.413 336.993 134.315 336.856 134.315C336.712 134.315 336.591 134.374 336.493 134.492C336.401 134.603 336.342 134.75 336.316 134.933H335.629C335.655 134.488 335.773 134.132 335.982 133.864C336.198 133.595 336.463 133.461 336.777 133.461C337.026 133.461 337.359 133.589 337.778 133.844C338.105 134.053 338.357 134.158 338.534 134.158C338.834 134.158 338.985 133.913 338.985 133.422H339.682C339.682 133.919 339.58 134.308 339.377 134.59C339.181 134.871 338.913 135.012 338.573 135.012ZM345.693 135.669C345.693 136.245 345.487 136.703 345.075 137.043C344.669 137.376 344.149 137.56 343.514 137.592V138.74H342.877V137.573C342.249 137.488 341.742 137.249 341.356 136.856C340.976 136.457 340.774 135.937 340.747 135.296H341.562C341.568 135.715 341.689 136.062 341.925 136.336C342.167 136.604 342.484 136.788 342.877 136.886V134.335C342.229 134.158 341.748 133.936 341.434 133.667C341.127 133.399 340.966 132.987 340.953 132.431C340.953 131.875 341.127 131.433 341.473 131.106C341.82 130.779 342.288 130.589 342.877 130.537V129.634H343.514V130.527C344.103 130.586 344.581 130.776 344.947 131.096C345.32 131.417 345.519 131.845 345.546 132.382H344.731C344.718 132.042 344.6 131.77 344.378 131.567C344.156 131.358 343.868 131.231 343.514 131.185V133.785C343.966 133.89 344.339 134.007 344.633 134.138C345.34 134.426 345.693 134.936 345.693 135.669ZM342.877 133.599V131.185C342.517 131.244 342.232 131.374 342.023 131.577C341.82 131.78 341.719 132.055 341.719 132.401C341.719 132.729 341.81 132.98 341.994 133.157C342.177 133.327 342.471 133.474 342.877 133.599ZM344.878 135.767C344.878 135.427 344.767 135.162 344.545 134.972C344.322 134.783 343.979 134.622 343.514 134.492V136.945C343.927 136.925 344.257 136.811 344.506 136.601C344.754 136.392 344.878 136.114 344.878 135.767ZM346.328 132.941C346.328 132.254 346.547 131.698 346.986 131.273C347.43 130.841 347.98 130.625 348.634 130.625C348.981 130.625 349.305 130.694 349.606 130.832C349.906 130.962 350.178 131.165 350.42 131.44C350.669 131.708 350.861 132.078 350.999 132.549C351.143 133.013 351.215 133.556 351.215 134.178C351.215 135.466 350.956 136.359 350.44 136.856C349.923 137.353 349.327 137.602 348.654 137.602C348.045 137.602 347.548 137.432 347.162 137.092C346.77 136.745 346.554 136.294 346.515 135.738H347.349C347.381 136.078 347.519 136.349 347.761 136.552C348.003 136.748 348.327 136.847 348.732 136.847C349.851 136.847 350.41 135.976 350.41 134.236V134.138C350.207 134.485 349.939 134.747 349.606 134.923C349.278 135.093 348.922 135.178 348.536 135.178C347.921 135.178 347.398 134.976 346.966 134.57C346.541 134.164 346.328 133.622 346.328 132.941ZM347.152 132.863C347.152 133.334 347.296 133.71 347.584 133.991C347.879 134.272 348.235 134.413 348.654 134.413C349.072 134.413 349.429 134.276 349.723 134.001C350.018 133.726 350.165 133.36 350.165 132.902C350.165 132.424 350.011 132.055 349.704 131.793C349.403 131.525 349.04 131.391 348.614 131.391C348.189 131.391 347.839 131.525 347.565 131.793C347.29 132.055 347.152 132.411 347.152 132.863ZM351.898 132.941C351.898 132.254 352.117 131.698 352.556 131.273C353.001 130.841 353.55 130.625 354.204 130.625C354.551 130.625 354.875 130.694 355.176 130.832C355.477 130.962 355.748 131.165 355.99 131.44C356.239 131.708 356.432 132.078 356.569 132.549C356.713 133.013 356.785 133.556 356.785 134.178C356.785 135.466 356.526 136.359 356.01 136.856C355.493 137.353 354.898 137.602 354.224 137.602C353.615 137.602 353.118 137.432 352.732 137.092C352.34 136.745 352.124 136.294 352.085 135.738H352.919C352.951 136.078 353.089 136.349 353.331 136.552C353.573 136.748 353.897 136.847 354.302 136.847C355.421 136.847 355.98 135.976 355.98 134.236V134.138C355.777 134.485 355.509 134.747 355.176 134.923C354.849 135.093 354.492 135.178 354.106 135.178C353.491 135.178 352.968 134.976 352.536 134.57C352.111 134.164 351.898 133.622 351.898 132.941ZM352.722 132.863C352.722 133.334 352.866 133.71 353.154 133.991C353.449 134.272 353.805 134.413 354.224 134.413C354.642 134.413 354.999 134.276 355.293 134.001C355.588 133.726 355.735 133.36 355.735 132.902C355.735 132.424 355.581 132.055 355.274 131.793C354.973 131.525 354.61 131.391 354.185 131.391C353.759 131.391 353.409 131.525 353.135 131.793C352.86 132.055 352.722 132.411 352.722 132.863ZM362.159 135.708C362.159 136.29 361.94 136.752 361.501 137.092C361.069 137.432 360.507 137.602 359.813 137.602C359.12 137.602 358.554 137.432 358.116 137.092C357.684 136.752 357.468 136.29 357.468 135.708C357.468 135.296 357.58 134.943 357.802 134.649C358.031 134.354 358.348 134.135 358.754 133.991C358.015 133.677 357.645 133.147 357.645 132.401C357.645 131.832 357.848 131.394 358.253 131.087C358.672 130.779 359.192 130.625 359.813 130.625C360.441 130.625 360.958 130.779 361.364 131.087C361.776 131.394 361.982 131.832 361.982 132.401C361.982 133.147 361.612 133.677 360.873 133.991C361.279 134.135 361.593 134.354 361.815 134.649C362.044 134.943 362.159 135.296 362.159 135.708ZM358.813 133.304C359.055 133.514 359.388 133.618 359.813 133.618C360.239 133.618 360.569 133.514 360.805 133.304C361.047 133.095 361.168 132.817 361.168 132.47C361.168 132.143 361.056 131.881 360.834 131.685C360.618 131.482 360.278 131.381 359.813 131.381C359.349 131.381 359.006 131.482 358.783 131.685C358.567 131.881 358.459 132.143 358.459 132.47C358.459 132.817 358.577 133.095 358.813 133.304ZM361.315 135.63C361.315 135.257 361.184 134.956 360.922 134.727C360.661 134.492 360.291 134.374 359.813 134.374C359.336 134.374 358.966 134.492 358.705 134.727C358.443 134.956 358.312 135.257 358.312 135.63C358.312 135.996 358.44 136.29 358.695 136.513C358.957 136.735 359.329 136.847 359.813 136.847C360.298 136.847 360.667 136.735 360.922 136.513C361.184 136.29 361.315 135.996 361.315 135.63ZM362.798 137.494V136.395H363.867V137.494H362.798ZM364.507 132.941C364.507 132.254 364.726 131.698 365.165 131.273C365.609 130.841 366.159 130.625 366.813 130.625C367.16 130.625 367.484 130.694 367.785 130.832C368.085 130.962 368.357 131.165 368.599 131.44C368.848 131.708 369.041 132.078 369.178 132.549C369.322 133.013 369.394 133.556 369.394 134.178C369.394 135.466 369.135 136.359 368.619 136.856C368.102 137.353 367.507 137.602 366.833 137.602C366.224 137.602 365.727 137.432 365.341 137.092C364.949 136.745 364.733 136.294 364.694 135.738H365.528C365.56 136.078 365.698 136.349 365.94 136.552C366.182 136.748 366.506 136.847 366.911 136.847C368.03 136.847 368.589 135.976 368.589 134.236V134.138C368.386 134.485 368.118 134.747 367.785 134.923C367.457 135.093 367.101 135.178 366.715 135.178C366.1 135.178 365.577 134.976 365.145 134.57C364.72 134.164 364.507 133.622 364.507 132.941ZM365.331 132.863C365.331 133.334 365.475 133.71 365.763 133.991C366.058 134.272 366.414 134.413 366.833 134.413C367.251 134.413 367.608 134.276 367.902 134.001C368.197 133.726 368.344 133.36 368.344 132.902C368.344 132.424 368.19 132.055 367.883 131.793C367.582 131.525 367.219 131.391 366.793 131.391C366.368 131.391 366.018 131.525 365.744 131.793C365.469 132.055 365.331 132.411 365.331 132.863ZM374.856 135.63C374.856 136.212 374.62 136.686 374.149 137.053C373.685 137.419 373.132 137.602 372.491 137.602C371.83 137.602 371.261 137.403 370.784 137.004C370.313 136.604 370.077 136.055 370.077 135.355H370.931V135.443C370.931 135.895 371.078 136.241 371.373 136.483C371.673 136.726 372.059 136.847 372.53 136.847C372.975 136.847 373.332 136.732 373.6 136.503C373.875 136.274 374.012 135.996 374.012 135.669C374.012 135.329 373.862 135.038 373.561 134.796C373.266 134.547 372.867 134.423 372.364 134.423H371.961V133.687H372.158C372.694 133.687 373.116 133.563 373.423 133.314C373.731 133.059 373.884 132.758 373.884 132.411C373.884 132.11 373.763 131.865 373.521 131.675C373.279 131.479 372.946 131.381 372.521 131.381C372.043 131.381 371.673 131.512 371.412 131.774C371.15 132.035 371.019 132.411 371.019 132.902H370.195C370.195 132.195 370.411 131.639 370.843 131.234C371.274 130.822 371.844 130.616 372.55 130.616C373.171 130.616 373.688 130.773 374.1 131.087C374.512 131.401 374.719 131.819 374.719 132.343C374.719 132.702 374.617 133.026 374.414 133.314C374.212 133.602 373.924 133.821 373.551 133.971C373.963 134.089 374.284 134.295 374.512 134.59C374.741 134.884 374.856 135.231 374.856 135.63Z" fill="#8D8F90"/>
<path d="M201.117 181.601L204.855 185.339M204.855 185.339V177.863M204.855 185.339L208.593 181.601M213.266 181.601C213.266 186.246 209.5 190.011 204.855 190.011C200.21 190.011 196.444 186.246 196.444 181.601C196.444 176.956 200.21 173.19 204.855 173.19C209.5 173.19 213.266 176.956 213.266 181.601Z" stroke="#8D8F90" stroke-width="1.40177" stroke-linecap="round" stroke-linejoin="round"/>
<path d="M25.6415 213.786H27.032L24.206 218.653V221.636H22.9613V218.653L20.1353 213.786H21.5595L23.6005 217.543L25.6415 213.786ZM32.1463 218.788C32.1463 219.692 31.8958 220.414 31.3949 220.952C30.894 221.49 30.21 221.76 29.3428 221.76C28.4755 221.76 27.7915 221.49 27.2906 220.952C26.7897 220.414 26.5392 219.692 26.5392 218.788C26.5392 217.891 26.7934 217.169 27.3018 216.623C27.8101 216.078 28.4905 215.805 29.3428 215.805C30.195 215.805 30.8754 216.078 31.3837 216.623C31.8921 217.169 32.1463 217.891 32.1463 218.788ZM28.1428 217.397C27.8662 217.734 27.7279 218.197 27.7279 218.788C27.7279 219.378 27.87 219.842 28.154 220.178C28.4456 220.515 28.8493 220.683 29.3652 220.683C29.8736 220.683 30.2661 220.515 30.5427 220.178C30.8193 219.842 30.9576 219.378 30.9576 218.788C30.9576 218.197 30.8118 217.734 30.5202 217.397C30.2361 217.053 29.8399 216.881 29.3315 216.881C28.8232 216.881 28.4269 217.053 28.1428 217.397ZM36.909 215.917H38.0865V221.636H36.9426V220.672C36.6286 221.36 36.0829 221.704 35.3054 221.704C34.6699 221.704 34.1615 221.505 33.7802 221.109C33.4064 220.713 33.2195 220.178 33.2195 219.506V215.917H34.397V219.393C34.397 219.812 34.4942 220.134 34.6886 220.358C34.8904 220.575 35.1745 220.683 35.5409 220.683C35.9894 220.683 36.3296 220.511 36.5614 220.167C36.7931 219.816 36.909 219.322 36.909 218.687V215.917ZM48.6203 221.636H47.1849L45.1663 218.407H43.6076V221.636H42.374V213.786H45.5252C46.2877 213.786 46.9045 213.996 47.3755 214.414C47.8465 214.825 48.082 215.36 48.082 216.018C48.082 216.534 47.9325 216.99 47.6335 217.386C47.3344 217.782 46.9382 218.044 46.4447 218.171L48.6203 221.636ZM46.8372 216.063C46.8372 215.719 46.7251 215.446 46.5008 215.244C46.2765 215.042 45.9737 214.941 45.5925 214.941H43.6076V217.285H45.4691C45.8803 217.285 46.2092 217.173 46.456 216.949C46.7101 216.717 46.8372 216.422 46.8372 216.063ZM54.3055 218.62V219.113H50.1339C50.1339 219.629 50.2834 220.036 50.5824 220.335C50.8815 220.627 51.2889 220.773 51.8048 220.773C52.515 220.773 52.9823 220.5 53.2066 219.954H54.2495C54.1074 220.5 53.8084 220.937 53.3523 221.266C52.9038 221.595 52.358 221.76 51.7151 221.76C50.9002 221.76 50.246 221.494 49.7526 220.963C49.2666 220.425 49.0237 219.711 49.0237 218.821C49.0237 217.917 49.2741 217.188 49.775 216.635C50.2834 216.081 50.945 215.805 51.7599 215.805C52.53 215.805 53.1467 216.063 53.6103 216.579C54.0738 217.087 54.3055 217.767 54.3055 218.62ZM52.7916 217.184C52.5374 216.923 52.1861 216.792 51.7375 216.792C51.2889 216.792 50.9189 216.923 50.6273 217.184C50.3432 217.446 50.1825 217.801 50.1451 218.25H53.1729C53.1729 217.801 53.0458 217.446 52.7916 217.184ZM57.8087 221.76C56.9639 221.76 56.291 221.494 55.7901 220.963C55.2967 220.425 55.05 219.711 55.05 218.821C55.05 217.924 55.3079 217.199 55.8238 216.646C56.3396 216.085 57.0162 215.805 57.8535 215.805C58.5712 215.805 59.1581 216.007 59.6141 216.41C60.0702 216.814 60.3057 217.337 60.3206 217.98H59.1656C59.1357 217.637 59.0048 217.367 58.7731 217.173C58.5488 216.971 58.2385 216.87 57.8423 216.87C57.3414 216.87 56.9489 217.042 56.6648 217.386C56.3807 217.722 56.2387 218.186 56.2387 218.777C56.2387 219.367 56.377 219.834 56.6536 220.178C56.9377 220.515 57.3302 220.683 57.8311 220.683C58.2124 220.683 58.5226 220.582 58.7619 220.38C59.0086 220.171 59.1506 219.891 59.188 219.539H60.3543C60.287 220.227 60.0253 220.769 59.5693 221.165C59.1132 221.561 58.5264 221.76 57.8087 221.76ZM66.3801 218.62V219.113H62.2084C62.2084 219.629 62.3579 220.036 62.657 220.335C62.956 220.627 63.3635 220.773 63.8793 220.773C64.5895 220.773 65.0568 220.5 65.2811 219.954H66.324C66.182 220.5 65.8829 220.937 65.4269 221.266C64.9783 221.595 64.4325 221.76 63.7896 221.76C62.9747 221.76 62.3205 221.494 61.8271 220.963C61.3412 220.425 61.0982 219.711 61.0982 218.821C61.0982 217.917 61.3486 217.188 61.8495 216.635C62.3579 216.081 63.0196 215.805 63.8345 215.805C64.6045 215.805 65.2213 216.063 65.6848 216.579C66.1483 217.087 66.3801 217.767 66.3801 218.62ZM64.8662 217.184C64.612 216.923 64.2606 216.792 63.812 216.792C63.3635 216.792 62.9934 216.923 62.7018 217.184C62.4177 217.446 62.257 217.801 62.2196 218.25H65.2474C65.2474 217.801 65.1203 217.446 64.8662 217.184ZM67.4385 214.919V213.551H68.7057V214.919H67.4385ZM67.4721 221.636V215.917H68.6608V221.636H67.4721ZM74.0061 215.917H75.2284L72.9856 221.636H71.6399L69.4083 215.917H70.6755L72.3352 220.492L74.0061 215.917ZM80.7903 218.62V219.113H76.6186C76.6186 219.629 76.7682 220.036 77.0672 220.335C77.3662 220.627 77.7737 220.773 78.2895 220.773C78.9998 220.773 79.467 220.5 79.6913 219.954H80.7342C80.5922 220.5 80.2931 220.937 79.8371 221.266C79.3885 221.595 78.8428 221.76 78.1998 221.76C77.3849 221.76 76.7308 221.494 76.2373 220.963C75.7514 220.425 75.5084 219.711 75.5084 218.821C75.5084 217.917 75.7589 217.188 76.2598 216.635C76.7682 216.081 77.4298 215.805 78.2447 215.805C79.0147 215.805 79.6315 216.063 80.095 216.579C80.5586 217.087 80.7903 217.767 80.7903 218.62ZM79.2764 217.184C79.0222 216.923 78.6708 216.792 78.2223 216.792C77.7737 216.792 77.4036 216.923 77.1121 217.184C76.828 217.446 76.6672 217.801 76.6298 218.25H79.6577C79.6577 217.801 79.5306 217.446 79.2764 217.184Z" fill="#323638"/>
<g filter="url(#filter2_b_290_3566)">
<rect x="19.8213" y="230.141" width="370.068" height="70.0887" rx="14.0177" fill="#F4F4F4"/>
</g>
<g clip-path="url(#clip1_290_3566)">
<rect x="19.8213" y="18.9189" width="342.033" height="25.2319" rx="12.616" fill="#F4F4F4"/>
<g filter="url(#filter3_dd_290_3566)">
<rect x="21.2227" y="20.3208" width="169.615" height="22.4284" rx="11.2142" fill="white"/>
<rect x="20.8722" y="19.9704" width="170.316" height="23.1293" rx="11.5646" stroke="#31C1BF" stroke-width="0.700887"/>
<path d="M103.6 28.0783V35.9282H102.433V29.6931L100.134 35.9282H98.9681L96.6804 29.6931V35.9282H95.5478V28.0783H97.2411L99.5737 34.4592L101.906 28.0783H103.6ZM105.162 29.2109V27.8428H106.429V29.2109H105.162ZM105.195 35.9282V30.209H106.384V35.9282H105.195ZM112.806 32.2275V35.9282H111.628V32.3509C111.628 31.9846 111.527 31.693 111.326 31.4762C111.124 31.2594 110.847 31.151 110.496 31.151C110.055 31.151 109.703 31.3042 109.442 31.6108C109.187 31.9173 109.06 32.3359 109.06 32.8667V35.9282H107.872V30.209H109.06V31.0613C109.255 30.7248 109.49 30.4819 109.767 30.3323C110.043 30.1753 110.391 30.0968 110.81 30.0968C111.453 30.0968 111.946 30.28 112.29 30.6463C112.634 31.0052 112.806 31.5323 112.806 32.2275ZM117.13 34.9077V35.9282H116.334C115.706 35.9282 115.265 35.7974 115.01 35.5357C114.756 35.2666 114.629 34.7993 114.629 34.134V31.2407H113.541V30.209H114.629V28.8296L115.818 28.5156V30.209H116.995V31.2407H115.818V34.1788C115.818 34.6648 116.065 34.9077 116.558 34.9077H117.13Z" fill="#101010"/>
</g>
<path d="M262.245 35.9282H261.113L259.027 32.5864H257.154V35.9282H256.212V28.0783H259.24C260.003 28.0783 260.601 28.2876 261.034 28.7063C261.468 29.1175 261.685 29.6258 261.685 30.2314C261.685 30.7323 261.539 31.1846 261.247 31.5883C260.963 31.992 260.563 32.2687 260.048 32.4182L262.245 35.9282ZM260.754 30.2651C260.754 29.8763 260.623 29.5586 260.362 29.3118C260.107 29.0651 259.752 28.9418 259.296 28.9418H257.154V31.7453H259.162C259.648 31.7453 260.033 31.6033 260.317 31.3192C260.608 31.0276 260.754 30.6762 260.754 30.2651ZM267.823 33.3265H263.606C263.621 33.9246 263.789 34.3919 264.111 34.7283C264.432 35.0573 264.855 35.2217 265.378 35.2217C265.737 35.2217 266.047 35.1395 266.309 34.975C266.578 34.8031 266.761 34.5713 266.858 34.2797H267.778C267.628 34.8629 267.329 35.304 266.881 35.603C266.425 35.9021 265.909 36.0516 265.333 36.0516C264.585 36.0516 263.957 35.7937 263.449 35.2778C262.948 34.7619 262.698 34.033 262.698 33.091C262.698 32.149 262.948 31.4239 263.449 30.9155C263.957 30.4071 264.589 30.1529 265.344 30.1529C266.069 30.1529 266.664 30.3921 267.127 30.8706C267.591 31.3416 267.823 32.0145 267.823 32.8892V33.3265ZM263.628 32.5752H266.892C266.892 32.0892 266.746 31.7005 266.454 31.4089C266.17 31.1099 265.793 30.9603 265.322 30.9603C264.858 30.9603 264.473 31.0986 264.167 31.3753C263.868 31.6444 263.688 32.0444 263.628 32.5752ZM274.009 27.9549V35.9282H273.112V34.818C272.783 35.6404 272.136 36.0516 271.172 36.0516C270.372 36.0516 269.744 35.7675 269.288 35.1993C268.832 34.6236 268.604 33.9246 268.604 33.1022C268.604 32.2873 268.832 31.5921 269.288 31.0164C269.751 30.4407 270.383 30.1529 271.183 30.1529C272.087 30.1529 272.719 30.4968 273.078 31.1846V27.9549H274.009ZM273.056 33.0574C273.056 32.4593 272.906 31.9659 272.607 31.5771C272.3 31.1809 271.863 30.9828 271.295 30.9828C270.719 30.9828 270.286 31.1846 269.994 31.5883C269.702 31.992 269.557 32.4929 269.557 33.091C269.557 33.6891 269.702 34.19 269.994 34.5937C270.286 34.99 270.716 35.1881 271.284 35.1881C271.859 35.1881 272.297 34.9825 272.596 34.5713C272.902 34.1526 273.056 33.648 273.056 33.0574ZM280.313 33.3265H276.097C276.112 33.9246 276.28 34.3919 276.601 34.7283C276.923 35.0573 277.345 35.2217 277.869 35.2217C278.227 35.2217 278.538 35.1395 278.799 34.975C279.068 34.8031 279.252 34.5713 279.349 34.2797H280.268C280.119 34.8629 279.82 35.304 279.371 35.603C278.915 35.9021 278.399 36.0516 277.824 36.0516C277.076 36.0516 276.448 35.7937 275.94 35.2778C275.439 34.7619 275.188 34.033 275.188 33.091C275.188 32.149 275.439 31.4239 275.94 30.9155C276.448 30.4071 277.08 30.1529 277.835 30.1529C278.56 30.1529 279.154 30.3921 279.618 30.8706C280.081 31.3416 280.313 32.0145 280.313 32.8892V33.3265ZM276.119 32.5752H279.382C279.382 32.0892 279.237 31.7005 278.945 31.4089C278.661 31.1099 278.283 30.9603 277.812 30.9603C277.349 30.9603 276.964 31.0986 276.657 31.3753C276.358 31.6444 276.179 32.0444 276.119 32.5752ZM286.219 33.3265H282.003C282.017 33.9246 282.186 34.3919 282.507 34.7283C282.829 35.0573 283.251 35.2217 283.774 35.2217C284.133 35.2217 284.443 35.1395 284.705 34.975C284.974 34.8031 285.157 34.5713 285.255 34.2797H286.174C286.025 34.8629 285.726 35.304 285.277 35.603C284.821 35.9021 284.305 36.0516 283.73 36.0516C282.982 36.0516 282.354 35.7937 281.846 35.2778C281.345 34.7619 281.094 34.033 281.094 33.091C281.094 32.149 281.345 31.4239 281.846 30.9155C282.354 30.4071 282.986 30.1529 283.741 30.1529C284.466 30.1529 285.06 30.3921 285.524 30.8706C285.987 31.3416 286.219 32.0145 286.219 32.8892V33.3265ZM282.025 32.5752H285.288C285.288 32.0892 285.143 31.7005 284.851 31.4089C284.567 31.1099 284.189 30.9603 283.718 30.9603C283.255 30.9603 282.87 31.0986 282.563 31.3753C282.264 31.6444 282.085 32.0444 282.025 32.5752ZM295.242 31.936V35.9282H294.312V32.2388C294.312 31.835 294.211 31.5285 294.009 31.3192C293.807 31.1099 293.53 31.0052 293.179 31.0052C292.745 31.0052 292.402 31.1697 292.147 31.4986C291.901 31.8276 291.777 32.2836 291.777 32.8667V35.9282H290.858V32.2388C290.858 31.835 290.757 31.5285 290.555 31.3192C290.353 31.1099 290.076 31.0052 289.725 31.0052C289.291 31.0052 288.948 31.1697 288.693 31.4986C288.447 31.8201 288.323 32.2724 288.323 32.8555V35.9282H287.393V30.2538H288.301V31.1734C288.592 30.4931 289.116 30.1529 289.871 30.1529C290.297 30.1529 290.66 30.2651 290.959 30.4893C291.258 30.7136 291.452 31.0015 291.542 31.3528C291.826 30.5529 292.428 30.1529 293.347 30.1529C293.923 30.1529 294.383 30.3099 294.727 30.6239C295.071 30.9304 295.242 31.3678 295.242 31.936Z" fill="#8D8F90"/>
</g>
<g clip-path="url(#clip2_290_3566)">
<path d="M381.479 33.6375C382.64 33.6375 383.581 32.6961 383.581 31.5348C383.581 30.3735 382.64 29.4321 381.479 29.4321C380.317 29.4321 379.376 30.3735 379.376 31.5348C379.376 32.6961 380.317 33.6375 381.479 33.6375Z" stroke="#101010" stroke-width="1.40177" stroke-linecap="round" stroke-linejoin="round"/>
<path d="M386.666 33.6376C386.573 33.849 386.545 34.0835 386.586 34.3109C386.627 34.5382 386.736 34.748 386.897 34.9132L386.939 34.9553C387.07 35.0855 387.173 35.2401 387.243 35.4102C387.314 35.5804 387.35 35.7628 387.35 35.947C387.35 36.1313 387.314 36.3137 387.243 36.4838C387.173 36.654 387.07 36.8086 386.939 36.9388C386.809 37.0691 386.654 37.1725 386.484 37.2431C386.314 37.3136 386.132 37.3499 385.947 37.3499C385.763 37.3499 385.581 37.3136 385.411 37.2431C385.24 37.1725 385.086 37.0691 384.956 36.9388L384.914 36.8967C384.748 36.7352 384.539 36.6268 384.311 36.5855C384.084 36.5443 383.849 36.5721 383.638 36.6654C383.431 36.7543 383.254 36.9018 383.129 37.0899C383.005 37.2779 382.938 37.4982 382.937 37.7238V37.8429C382.937 38.2147 382.789 38.5713 382.527 38.8341C382.264 39.097 381.907 39.2447 381.535 39.2447C381.164 39.2447 380.807 39.097 380.544 38.8341C380.281 38.5713 380.134 38.2147 380.134 37.8429V37.7799C380.128 37.5479 380.053 37.3229 379.918 37.1341C379.783 36.9454 379.594 36.8016 379.377 36.7215C379.165 36.6282 378.931 36.6004 378.703 36.6416C378.476 36.6828 378.266 36.7912 378.101 36.9528L378.059 36.9949C377.929 37.1252 377.774 37.2286 377.604 37.2991C377.434 37.3697 377.251 37.406 377.067 37.406C376.883 37.406 376.701 37.3697 376.53 37.2991C376.36 37.2286 376.206 37.1252 376.075 36.9949C375.945 36.8647 375.842 36.7101 375.771 36.5399C375.701 36.3697 375.664 36.1873 375.664 36.0031C375.664 35.8189 375.701 35.6365 375.771 35.4663C375.842 35.2961 375.945 35.1415 376.075 35.0114L376.118 34.9693C376.279 34.8041 376.387 34.5943 376.429 34.3669C376.47 34.1396 376.442 33.9051 376.349 33.6937C376.26 33.4864 376.112 33.3096 375.924 33.1851C375.736 33.0605 375.516 32.9937 375.29 32.9928H375.171C374.8 32.9928 374.443 32.8451 374.18 32.5822C373.917 32.3193 373.77 31.9628 373.77 31.591C373.77 31.2192 373.917 30.8627 374.18 30.5998C374.443 30.3369 374.8 30.1892 375.171 30.1892H375.234C375.466 30.1838 375.691 30.1087 375.88 29.9737C376.069 29.8387 376.213 29.6501 376.293 29.4323C376.386 29.2209 376.414 28.9864 376.373 28.759C376.331 28.5317 376.223 28.3219 376.061 28.1567L376.019 28.1146C375.889 27.9844 375.786 27.8298 375.715 27.6597C375.645 27.4895 375.608 27.3071 375.608 27.1229C375.608 26.9387 375.645 26.7562 375.715 26.5861C375.786 26.4159 375.889 26.2613 376.019 26.1311C376.15 26.0008 376.304 25.8974 376.474 25.8268C376.645 25.7563 376.827 25.72 377.011 25.72C377.195 25.72 377.378 25.7563 377.548 25.8268C377.718 25.8974 377.873 26.0008 378.003 26.1311L378.045 26.1732C378.21 26.3347 378.42 26.4431 378.647 26.4844C378.875 26.5256 379.109 26.4978 379.321 26.4045H379.377C379.584 26.3156 379.761 26.1681 379.885 25.98C380.01 25.792 380.077 25.5717 380.078 25.3461V25.227C380.078 24.8552 380.225 24.4986 380.488 24.2358C380.751 23.9729 381.108 23.8252 381.479 23.8252C381.851 23.8252 382.208 23.9729 382.47 24.2358C382.733 24.4986 382.881 24.8552 382.881 25.227V25.29C382.882 25.5156 382.949 25.7359 383.073 25.924C383.198 26.112 383.375 26.2595 383.582 26.3484C383.793 26.4417 384.028 26.4695 384.255 26.4283C384.483 26.3871 384.692 26.2787 384.858 26.1171L384.9 26.075C385.03 25.9447 385.184 25.8413 385.355 25.7708C385.525 25.7002 385.707 25.6639 385.891 25.6639C386.076 25.6639 386.258 25.7002 386.428 25.7708C386.598 25.8413 386.753 25.9447 386.883 26.075C387.013 26.2052 387.117 26.3598 387.187 26.53C387.258 26.7002 387.294 26.8826 387.294 27.0668C387.294 27.251 387.258 27.4334 387.187 27.6036C387.117 27.7738 387.013 27.9284 386.883 28.0586L386.841 28.1006C386.679 28.2658 386.571 28.4756 386.53 28.703C386.489 28.9303 386.516 29.1648 386.61 29.3762V29.4323C386.699 29.6396 386.846 29.8164 387.034 29.9409C387.222 30.0655 387.443 30.1323 387.668 30.1332H387.787C388.159 30.1332 388.516 30.2809 388.778 30.5437C389.041 30.8066 389.189 31.1632 389.189 31.535C389.189 31.9067 389.041 32.2633 388.778 32.5262C388.516 32.789 388.159 32.9367 387.787 32.9367H387.724C387.499 32.9376 387.278 33.0045 387.09 33.129C386.902 33.2535 386.755 33.4303 386.666 33.6376V33.6376Z" stroke="#101010" stroke-width="1.40177" stroke-linecap="round" stroke-linejoin="round"/>
</g>
<defs>
<filter id="filter0_d_290_3566" x="0.196452" y="0.695882" width="409.318" height="481.509" filterUnits="userSpaceOnUse" color-interpolation-filters="sRGB">
<feFlood flood-opacity="0" result="BackgroundImageFix"/>
<feColorMatrix in="SourceAlpha" type="matrix" values="0 0 0 0 0 0 0 0 0 0 0 0 0 0 0 0 0 0 127 0" result="hardAlpha"/>
<feOffset dy="1.40177"/>
<feGaussianBlur stdDeviation="1.40177"/>
<feColorMatrix type="matrix" values="0 0 0 0 0.129412 0 0 0 0 0.141176 0 0 0 0 0.160784 0 0 0 0.05 0"/>
<feBlend mode="normal" in2="BackgroundImageFix" result="effect1_dropShadow_290_3566"/>
<feBlend mode="normal" in="SourceGraphic" in2="effect1_dropShadow_290_3566" result="shape"/>
</filter>
<filter id="filter1_b_290_3566" x="8.6071" y="72.2624" width="392.497" height="92.5173" filterUnits="userSpaceOnUse" color-interpolation-filters="sRGB">
<feFlood flood-opacity="0" result="BackgroundImageFix"/>
<feGaussianBlur in="BackgroundImageFix" stdDeviation="5.6071"/>
<feComposite in2="SourceAlpha" operator="in" result="effect1_backgroundBlur_290_3566"/>
<feBlend mode="normal" in="SourceGraphic" in2="effect1_backgroundBlur_290_3566" result="shape"/>
</filter>
<filter id="filter2_b_290_3566" x="8.6071" y="218.926" width="392.497" height="92.5173" filterUnits="userSpaceOnUse" color-interpolation-filters="sRGB">
<feFlood flood-opacity="0" result="BackgroundImageFix"/>
<feGaussianBlur in="BackgroundImageFix" stdDeviation="5.6071"/>
<feComposite in2="SourceAlpha" operator="in" result="effect1_backgroundBlur_290_3566"/>
<feBlend mode="normal" in="SourceGraphic" in2="effect1_backgroundBlur_290_3566" result="shape"/>
</filter>
<filter id="filter3_dd_290_3566" x="14.9144" y="16.1157" width="182.231" height="35.0443" filterUnits="userSpaceOnUse" color-interpolation-filters="sRGB">
<feFlood flood-opacity="0" result="BackgroundImageFix"/>
<feColorMatrix in="SourceAlpha" type="matrix" values="0 0 0 0 0 0 0 0 0 0 0 0 0 0 0 0 0 0 127 0" result="hardAlpha"/>
<feOffset dy="2.10266"/>
<feGaussianBlur stdDeviation="0.350444"/>
<feColorMatrix type="matrix" values="0 0 0 0 0 0 0 0 0 0 0 0 0 0 0 0 0 0 0.04 0"/>
<feBlend mode="normal" in2="BackgroundImageFix" result="effect1_dropShadow_290_3566"/>
<feColorMatrix in="SourceAlpha" type="matrix" values="0 0 0 0 0 0 0 0 0 0 0 0 0 0 0 0 0 0 127 0" result="hardAlpha"/>
<feOffset dy="2.10266"/>
<feGaussianBlur stdDeviation="2.80355"/>
<feColorMatrix type="matrix" values="0 0 0 0 0 0 0 0 0 0 0 0 0 0 0 0 0 0 0.12 0"/>
<feBlend mode="normal" in2="effect1_dropShadow_290_3566" result="effect2_dropShadow_290_3566"/>
<feBlend mode="normal" in="SourceGraphic" in2="effect2_dropShadow_290_3566" result="shape"/>
</filter>
<clipPath id="clip0_290_3566">
<rect width="28.0355" height="28.0355" fill="white" transform="translate(33.8389 105.476)"/>
</clipPath>
<clipPath id="clip1_290_3566">
<rect x="19.8213" y="18.9189" width="342.033" height="25.2319" rx="12.616" fill="white"/>
</clipPath>
<clipPath id="clip2_290_3566">
<rect width="16.8213" height="16.8213" fill="white" transform="translate(373.068 23.124)"/>
</clipPath>
</defs>
</svg>
