<svg width="209" height="57" viewBox="0 0 209 57" fill="none" xmlns="http://www.w3.org/2000/svg">
<path fill-rule="evenodd" clip-rule="evenodd" d="M26.3392 10.8663C24.4505 12.8718 18.1288 15.1284 12.6997 15.7354L10.4932 15.982L10.7038 19.9665C10.9575 24.7765 12.0038 28.9063 13.9885 32.9351C16.4997 38.0329 21.439 43.4723 25.9776 46.1385L27.3061 46.9189L29.8492 45.2173C31.2478 44.2818 33.4191 42.4774 34.6745 41.2082L36.9571 38.9004L35.5222 38.7808C34.3856 38.6862 33.9242 38.8477 33.3033 39.5574C32.3315 40.6681 27.794 44.3196 27.3852 44.3196C27.2203 44.3196 27.0854 37.1696 27.0854 28.4309V12.5425L28.6267 13.5131C29.4748 14.0468 30.9082 14.7995 31.8121 15.1864L33.4562 15.889V14.81C33.4562 13.9246 33.2377 13.6585 32.2382 13.3278C31.5682 13.1058 30.1509 12.2663 29.0877 11.4621L27.1555 10L26.3392 10.8663ZM34.9552 13.2231C34.9552 14.1186 35.1032 14.2658 35.9858 14.2509C36.8263 14.2371 37.0381 14.0442 37.1348 13.2059C37.2416 12.2824 37.137 12.1781 36.1042 12.1781C35.0961 12.1781 34.9552 12.306 34.9552 13.2231ZM40.2017 15.4981C40.2017 16.3244 40.4019 16.614 41.0592 16.7392C42.3922 16.9934 42.825 16.6921 42.825 15.5108C42.825 14.514 42.7126 14.4206 41.5134 14.4206C40.3175 14.4206 40.2017 14.5159 40.2017 15.4981ZM31.5824 17.9711C31.5824 19.2481 31.618 19.2792 33.0814 19.2792C34.5448 19.2792 34.5804 19.2481 34.5804 17.9711C34.5804 16.694 34.5448 16.663 33.0814 16.663C31.618 16.663 31.5824 16.694 31.5824 17.9711ZM35.6998 16.9743C35.4963 17.0431 35.33 18.0099 35.33 19.1233V21.1478H37.7658H40.2017V19.127V17.1059L38.1357 16.9781C36.9991 16.9074 35.9029 16.9059 35.6998 16.9743ZM48.8211 17.9711C48.8211 18.6561 49.0208 18.9054 49.5706 18.9054C50.1203 18.9054 50.3201 18.6561 50.3201 17.9711C50.3201 17.286 50.1203 17.0367 49.5706 17.0367C49.0208 17.0367 48.8211 17.286 48.8211 17.9711ZM45.0735 18.9054C45.0735 19.7758 46.3758 19.9556 46.694 19.1289C46.9466 18.4723 46.6449 18.1579 45.7605 18.1579C45.3235 18.1579 45.0735 18.4296 45.0735 18.9054ZM94.1662 20.5177C93.4448 20.7457 92.0635 21.7197 91.0966 22.682C87.0186 26.7412 87.2925 33.6561 91.6839 37.5015C93.3736 38.9811 95.2958 39.5851 97.6747 39.3836C100.334 39.1582 102.231 38.1566 103.747 36.1762C109.518 28.6383 102.867 17.7674 94.1662 20.5177ZM30.1771 20.7016C29.0015 20.8175 28.9591 20.8799 28.9591 22.5V24.1788L30.7392 24.0649L32.5193 23.9509L32.6321 22.4111C32.7573 20.7065 32.4312 20.4796 30.1771 20.7016ZM136.139 20.548C136.139 20.6538 135.042 24.7922 133.703 29.7438C132.363 34.6954 131.267 38.8342 131.267 38.9407C131.267 39.0472 131.812 39.082 132.479 39.0173L133.691 38.9004L135.565 32.0927C136.596 28.3486 137.541 25.4055 137.664 25.5523C137.855 25.7784 139.491 31.6315 141.004 37.4988C141.409 39.0667 141.436 39.0872 143.072 39.0872C144.707 39.0872 144.734 39.0663 145.139 37.4988C145.365 36.6251 145.703 35.4059 145.889 34.7893C146.076 34.1726 146.664 31.9862 147.196 29.9307C147.728 27.8751 148.26 25.941 148.378 25.6327C148.497 25.3244 149.472 28.1834 150.545 31.9862L152.496 38.9004L153.686 39.0173C154.341 39.082 154.876 39.0431 154.876 38.931C154.876 38.8193 154.391 36.9166 153.799 34.7029C153.206 32.4893 152.185 28.66 151.531 26.1933C150.876 23.7266 150.251 21.405 150.141 21.0338C149.987 20.5132 149.629 20.385 148.577 20.4732L147.213 20.5872L145.605 26.3802C144.72 29.5663 143.819 32.8208 143.603 33.6124C143.387 34.4039 143.101 34.9432 142.969 34.8113C142.836 34.679 141.878 31.4245 140.838 27.5791L138.949 20.5872L137.544 20.4714C136.771 20.4075 136.139 20.4418 136.139 20.548ZM182.608 21.8019L182.608 23.0165H185.981H189.354V31.0519V39.0872H190.478H191.602V31.0519V23.0165H194.975H198.348V21.9099V20.8029L190.478 20.6952L182.607 20.5872L182.608 21.8019ZM58.7149 21.3997C56.4563 22.5236 55.6135 25.639 56.9555 27.905C57.9969 29.6631 59.7369 30.2566 64.5011 30.4793C68.4533 30.6643 68.8037 30.7432 69.5018 31.6039C70.4395 32.7602 70.2034 34.8588 69.0278 35.817C68.3461 36.3724 67.413 36.4711 62.8327 36.4711H57.4404V37.7792V39.0872L62.2185 39.0783C68.2412 39.0671 69.6536 38.7497 71.2126 37.0571C72.3095 35.866 72.4305 35.5072 72.4305 33.4494C72.4305 31.3628 72.323 31.0567 71.195 29.9318C69.6293 28.3703 67.8402 27.88 63.7007 27.8774C60.7019 27.8755 60.3211 27.7921 59.4847 26.9576C58.3777 25.8539 58.3346 25.2515 59.2801 24.0858C59.9662 23.24 60.2301 23.1985 65.6509 23.0831L71.3063 22.9627V21.8684V20.7741L65.5913 20.798C61.2239 20.8163 59.6024 20.958 58.7149 21.3997ZM74.3628 27.7817C74.4774 34.0175 74.5756 34.932 75.2543 36.0843C76.4951 38.1903 77.9068 38.7677 82.3724 38.9949L86.2964 39.1945V37.833V36.4711H83.0863C77.23 36.4711 76.9467 36.054 76.9358 27.4079L76.9276 20.7741H75.5807H74.2342L74.3628 27.7817ZM108.041 21.0544C108.046 21.2088 109.12 25.287 110.427 30.1175L112.804 38.9004H114.225H115.646L117.554 31.9219C118.604 28.0837 119.573 24.8336 119.709 24.6995C119.845 24.5649 120.039 24.7623 120.14 25.1375C120.241 25.5127 121.132 28.8046 122.118 32.4534L123.912 39.0872H125.254H126.595L129.058 29.9307L131.522 20.7741H130.285C129.145 20.7741 129.014 20.8993 128.625 22.3625C127.671 25.9537 125.599 33.3328 125.399 33.8549C125.2 34.3725 124.377 31.7452 122.266 23.8574L121.441 20.7741H119.655C117.94 20.7741 117.86 20.8219 117.627 21.9887C117.191 24.1721 114.311 34.2612 114.165 34.1154C113.94 33.8923 110.655 21.899 110.655 21.3052C110.655 20.9475 110.227 20.7741 109.344 20.7741C108.622 20.7741 108.036 20.9001 108.041 21.0544ZM158.624 29.9307V39.0872H159.748H160.872V29.9307V20.7741H159.748H158.624V29.9307ZM166.943 21.3994C164.855 22.4253 163.985 25.3281 165.059 27.68C165.926 29.5767 167.683 30.2334 172.552 30.4797C177.71 30.7409 178.31 31.0616 178.245 33.5212C178.177 36.1011 177.769 36.2674 171.166 36.4038L165.369 36.5238V37.8446V39.1657L171.289 39.033C176.212 38.9228 177.381 38.7867 178.239 38.2261C179.881 37.1531 180.731 35.4261 180.733 33.1635C180.734 31.3991 180.589 31.019 179.499 29.9318C177.933 28.3703 176.144 27.88 172.004 27.8774C169.006 27.8755 168.625 27.7921 167.788 26.9576C166.681 25.8539 166.638 25.2515 167.584 24.0858C168.27 23.24 168.534 23.1985 173.955 23.0831L179.61 22.9627V21.8684V20.7741L173.895 20.7827C169.386 20.7894 167.919 20.9195 166.943 21.3994ZM40.4959 22.9231C40.4214 23.2826 40.4285 23.9557 40.512 24.418C40.6421 25.1394 40.898 25.2589 42.3067 25.2589H43.9493V23.764V22.269H42.2902C41.012 22.269 40.6005 22.4189 40.4959 22.9231ZM100.537 23.7386C103.087 25.6973 104.155 29.5117 103 32.5285C101.16 37.3344 96.0216 38.533 92.6039 34.9537C86.959 29.0412 94.17 18.8471 100.537 23.7386ZM37.0684 24.3971C36.6465 24.8179 36.8117 25.2589 37.3911 25.2589C37.7003 25.2589 37.9532 25.1009 37.9532 24.9073C37.9532 24.436 37.3679 24.0985 37.0684 24.3971ZM46.8772 24.5346C46.8042 24.7529 46.8079 25.5938 46.8851 26.4033L47.026 27.8751H48.8604H50.6948V26.0064V24.1377H48.8522C47.8388 24.1377 46.9499 24.3164 46.8772 24.5346ZM33.4562 28.6226V30.865H34.7678C36.0484 30.865 36.0795 30.9005 36.0795 32.36C36.0795 33.7054 35.9858 33.8549 35.1426 33.8549C34.3931 33.8549 34.2057 34.0418 34.2057 34.7893C34.2057 35.5782 34.3807 35.7236 35.33 35.7236H36.4542V33.2943V30.865H37.5785H38.7027V28.6226V26.3802H36.0795H33.4562V28.6226ZM40.5765 28.6226C40.5765 29.1709 40.8265 29.3701 41.5134 29.3701C42.2003 29.3701 42.4503 29.1709 42.4503 28.6226C42.4503 28.0743 42.2003 27.8751 41.5134 27.8751C40.8265 27.8751 40.5765 28.0743 40.5765 28.6226ZM44.393 29.246C44.4874 30.0432 44.7183 30.2521 45.542 30.2861C46.4298 30.3231 46.5726 30.1848 46.5726 29.289C46.5726 28.3774 46.4305 28.2488 45.4236 28.2488C44.3986 28.2488 44.2869 28.3569 44.393 29.246ZM31.5824 32.1731C31.5824 32.4814 31.8354 32.7337 32.1445 32.7337C32.4537 32.7337 32.7067 32.4814 32.7067 32.1731C32.7067 31.8648 32.4537 31.6125 32.1445 31.6125C31.8354 31.6125 31.5824 31.8648 31.5824 32.1731ZM43.6682 32.2564C42.6687 32.3801 42.4503 32.5707 42.4503 33.3178C42.4503 34.1094 42.6219 34.2286 43.7619 34.2286C44.9694 34.2286 45.0735 34.1397 45.0735 33.1074C45.0735 32.4908 45.0316 32.0131 44.9799 32.046C44.9281 32.0789 44.3379 32.1738 43.6682 32.2564ZM38.7027 35.5367C38.7027 36.8377 38.7117 36.8448 40.3891 36.8448C42.0665 36.8448 42.0755 36.8377 42.0755 35.5367C42.0755 34.2357 42.0665 34.2286 40.3891 34.2286C38.7117 34.2286 38.7027 34.2357 38.7027 35.5367Z" fill="white"/>
</svg>
