<svg width="84" height="84" viewBox="0 0 84 84" fill="none" xmlns="http://www.w3.org/2000/svg">
<path d="M59.2452 37.5393C66.2805 37.5393 72.0002 31.8251 72.0002 24.7697C72.0002 17.7143 66.2805 12 59.2452 12C52.21 12 46.4902 17.7143 46.4902 24.7697C46.4902 31.8251 52.21 37.5393 59.2452 37.5393Z" fill="#31C1BF"/>
<path d="M24.755 71.9999C31.7994 71.9999 37.51 66.2827 37.51 59.2302C37.51 52.1777 31.7994 46.4606 24.755 46.4606C17.7106 46.4606 12 52.1777 12 59.2302C12 66.2827 17.7106 71.9999 24.755 71.9999Z" fill="#31C1BF"/>
<path d="M59.245 46.4606C47.8055 46.4606 37.51 37.2478 37.51 24.7697C37.51 17.7143 31.7903 12 24.755 12C17.7197 12 12 17.7143 12 24.7697C12 31.8251 17.8341 37.5393 24.755 37.5393C37.6244 37.5393 46.49 48.035 46.49 59.2303C46.49 66.344 52.2097 72 59.245 72C66.2803 72 72 66.2857 72 59.2303C72 52.1749 66.3947 46.4606 59.245 46.4606Z" fill="#31C1BF"/>
</svg>
